{"glyphs":{"뛔":{"x_min":27.78125,"x_max":1168.0625,"ha":1250,"o":"m 319 301 q 240 298 279 300 q 166 297 201 297 l 27 294 l 27 408 l 113 408 q 277 411 188 408 q 454 418 366 413 q 618 429 540 423 q 748 443 695 436 l 748 330 q 622 318 700 323 q 456 308 545 312 l 456 -125 l 319 -125 l 319 301 m 87 540 l 87 1009 l 356 1009 l 356 895 l 218 895 l 218 656 q 293 659 263 656 q 365 670 322 662 l 365 554 q 263 544 316 548 q 159 540 209 540 l 87 540 m 406 1009 l 683 1009 l 683 895 l 538 895 l 538 654 l 706 654 l 706 540 l 406 540 l 406 1009 m 1030 -170 l 1030 1069 l 1168 1069 l 1168 -170 l 1030 -170 m 800 86 l 555 86 l 555 197 l 800 197 l 800 1050 l 930 1050 l 930 -123 l 800 -123 l 800 86 "},"쌩":{"x_min":-4.171875,"x_max":1168.0625,"ha":1250,"o":"m 373 352 q 282 477 316 404 q 238 604 248 550 q 213 540 230 575 q 175 470 195 505 q 129 403 154 436 q 83 347 105 370 l -4 426 q 88 556 54 488 q 143 695 123 623 q 165 831 159 762 q 172 972 172 900 l 172 1033 l 302 1033 l 302 973 q 305 842 302 906 q 320 716 308 777 q 340 633 327 673 q 373 555 352 593 q 405 633 393 593 q 426 715 418 673 q 441 843 438 777 q 444 973 444 909 l 444 1033 l 575 1033 l 575 972 q 576 844 572 909 q 597 715 580 779 q 647 579 613 644 q 738 459 680 513 l 666 373 q 572 487 612 423 q 515 604 533 551 q 495 545 509 579 q 463 475 481 511 q 421 407 444 440 q 373 352 398 375 m 1031 794 l 1031 1070 l 1168 1070 l 1168 309 l 1031 309 l 1031 668 l 909 668 l 909 344 l 780 344 l 780 1056 l 909 1056 l 909 794 l 1031 794 m 773 -283 q 649 -261 706 -283 q 547 -198 591 -238 q 479 -106 504 -159 q 454 6 454 -54 q 479 120 454 66 q 547 212 504 173 q 649 275 591 252 q 773 298 706 298 q 898 275 840 298 q 1000 212 956 252 q 1068 120 1043 173 q 1094 6 1094 66 q 1068 -106 1094 -54 q 1000 -198 1043 -159 q 898 -261 956 -238 q 773 -283 840 -283 m 773 179 q 647 128 698 179 q 595 6 595 77 q 645 -113 595 -63 q 769 -162 694 -162 q 896 -113 843 -162 q 950 6 950 -63 q 899 128 950 77 q 773 179 848 179 "},"뱐":{"x_min":84.71875,"x_max":1255.5625,"ha":1250,"o":"m 1061 887 l 1252 887 l 1252 775 l 1061 775 l 1061 581 l 1255 581 l 1255 469 l 1061 469 l 1061 129 l 918 129 l 918 1072 l 1061 1072 l 1061 887 m 84 1020 l 229 1020 l 229 801 l 523 801 l 523 1020 l 668 1020 l 668 359 l 84 359 l 84 1020 m 229 686 l 229 473 l 523 473 l 523 686 l 229 686 m 336 184 l 481 184 l 481 -93 l 1081 -93 l 1081 -211 l 336 -211 l 336 184 "},"각":{"x_min":36.109375,"x_max":1252.78125,"ha":1250,"o":"m 1063 776 l 1252 776 l 1252 655 l 1063 655 l 1063 311 l 919 311 l 919 1070 l 1063 1070 l 1063 776 m 126 338 l 36 434 q 200 506 112 459 q 359 618 288 554 q 468 743 426 675 q 513 891 509 812 l 105 891 l 105 1008 l 680 1008 q 640 781 680 883 q 529 597 600 679 q 352 450 454 513 q 126 338 250 387 m 316 122 l 316 237 l 1063 237 l 1063 -225 l 918 -225 l 918 122 l 316 122 "},"다":{"x_min":134.71875,"x_max":1254.171875,"ha":1250,"o":"m 1063 640 l 1254 640 l 1254 522 l 1063 522 l 1063 -170 l 920 -170 l 920 1069 l 1063 1069 l 1063 640 m 829 312 l 829 197 q 730 183 788 190 q 609 172 672 176 q 484 163 545 166 q 377 162 423 161 l 134 161 l 134 997 l 679 997 l 679 875 l 277 875 l 277 280 l 420 281 q 620 290 509 281 q 829 312 731 298 "},"울":{"x_min":30.5625,"x_max":1219.453125,"ha":1250,"o":"m 551 387 l 30 387 l 30 500 l 1219 500 l 1219 387 l 705 387 l 705 281 l 1009 281 l 1009 -15 l 393 -15 l 393 -102 l 1036 -102 l 1036 -212 l 237 -212 l 237 87 l 855 87 l 855 172 l 237 172 l 237 281 l 551 281 l 551 387 m 948 838 q 922 725 948 777 q 854 634 897 673 q 751 575 809 597 q 626 552 693 552 q 500 575 559 552 q 398 634 441 597 q 329 725 354 673 q 304 838 304 777 q 329 949 304 897 q 398 1040 354 1001 q 500 1102 441 1079 q 626 1125 559 1125 q 751 1102 693 1125 q 854 1040 809 1079 q 922 949 897 1001 q 948 838 948 897 m 626 672 q 758 720 702 672 q 813 838 813 769 q 758 954 813 906 q 626 1002 702 1002 q 494 954 548 1002 q 440 838 440 906 q 494 720 440 769 q 626 672 548 672 "},"쵸":{"x_min":33.328125,"x_max":1213.890625,"ha":1250,"o":"m 402 73 l 402 341 l 536 341 l 536 73 l 715 73 l 715 341 l 848 341 l 848 73 l 1213 73 l 1213 -44 l 33 -44 l 33 73 l 402 73 m 902 818 q 835 711 873 761 q 751 615 797 661 q 919 522 826 565 q 1112 454 1012 480 l 1047 333 q 842 413 947 362 q 654 530 737 465 q 440 400 555 455 q 205 313 326 344 l 137 412 q 315 474 226 434 q 481 566 404 513 q 622 679 559 618 q 720 809 684 741 l 250 809 l 250 927 l 548 927 l 548 1111 l 698 1111 l 698 927 l 902 927 l 902 818 "},"청":{"x_min":30.5625,"x_max":1106.953125,"ha":1250,"o":"m 963 751 l 963 1072 l 1106 1072 l 1106 287 l 963 287 l 963 630 l 713 630 l 713 751 l 963 751 m 756 -283 q 631 -261 690 -283 q 530 -198 573 -238 q 462 -106 487 -159 q 437 6 437 -54 q 462 120 437 66 q 530 212 487 173 q 631 275 573 252 q 756 298 690 298 q 880 275 822 298 q 981 212 938 252 q 1050 120 1025 173 q 1076 6 1076 66 q 1050 -106 1076 -54 q 981 -198 1025 -159 q 880 -261 938 -238 q 756 -283 822 -283 m 931 6 q 881 128 931 77 q 756 179 830 179 q 629 128 681 179 q 577 6 577 77 q 627 -113 577 -63 q 752 -162 677 -162 q 879 -113 826 -162 q 931 6 931 -63 m 326 936 l 326 1111 l 472 1111 l 472 936 l 647 936 l 647 844 q 605 731 631 786 q 544 629 579 677 q 665 533 595 576 q 811 465 734 490 l 740 351 q 594 424 669 375 q 461 533 519 473 q 300 404 390 461 q 115 312 211 348 l 30 405 q 178 474 105 431 q 312 569 251 516 q 420 686 375 623 q 487 818 465 748 l 105 818 l 105 936 l 326 936 "},"늅":{"x_min":30.5625,"x_max":1219.453125,"ha":1250,"o":"m 411 411 l 30 411 l 30 522 l 1219 522 l 1219 411 l 838 411 l 838 231 l 694 231 l 694 411 l 555 411 l 555 231 l 411 231 l 411 411 m 240 1068 l 390 1068 l 390 755 l 1018 755 l 1018 645 l 240 645 l 240 1068 m 237 286 l 383 286 l 383 151 l 868 151 l 868 286 l 1013 286 l 1013 -211 l 237 -211 l 237 286 m 868 38 l 383 38 l 383 -97 l 868 -97 l 868 38 "},"슐":{"x_min":29.171875,"x_max":1219.453125,"ha":1250,"o":"m 383 419 l 29 419 l 29 531 l 1219 531 l 1219 419 l 880 419 l 880 298 l 1009 298 l 1009 -6 l 393 -6 l 393 -102 l 1036 -102 l 1036 -212 l 237 -212 l 237 95 l 855 95 l 855 188 l 237 188 l 237 298 l 383 298 l 383 419 m 529 419 l 529 298 l 734 298 l 734 419 l 529 419 m 627 843 q 556 763 598 800 q 463 697 513 726 q 351 638 409 663 q 236 595 293 612 l 159 691 q 290 739 219 708 q 419 816 361 770 q 508 906 472 855 q 544 1018 544 958 l 544 1072 l 706 1072 l 706 1018 q 743 906 706 958 q 833 813 779 854 q 959 738 890 768 q 1088 693 1027 708 l 1018 595 q 911 635 968 611 q 801 691 854 659 q 702 759 747 720 q 627 843 658 797 "},"딱":{"x_min":72.21875,"x_max":1252.78125,"ha":1250,"o":"m 1063 776 l 1252 776 l 1252 655 l 1063 655 l 1063 311 l 919 311 l 919 1070 l 1063 1070 l 1063 776 m 72 404 l 72 1015 l 388 1015 l 388 898 l 206 898 l 206 522 q 308 525 252 522 q 406 540 363 529 l 406 426 q 281 411 356 418 q 147 404 206 404 l 72 404 m 452 1015 l 784 1015 l 784 898 l 590 898 l 590 518 q 722 524 651 518 q 852 541 793 530 l 852 426 q 787 415 825 420 q 708 406 750 411 q 624 400 666 402 q 547 398 581 398 l 452 398 l 452 1015 m 316 122 l 316 237 l 1063 237 l 1063 -225 l 918 -225 l 918 122 l 316 122 "},"엾":{"x_min":59.71875,"x_max":1244.453125,"ha":1250,"o":"m 963 925 l 963 1072 l 1106 1072 l 1106 369 l 963 369 l 963 541 l 751 541 l 751 655 l 963 655 l 963 812 l 751 812 l 751 925 l 963 925 m 388 1044 q 514 1019 455 1044 q 618 951 573 994 q 688 852 662 909 q 715 730 715 794 q 688 608 715 665 q 618 509 662 551 q 514 442 573 466 q 388 418 455 418 q 259 442 319 418 q 155 509 200 466 q 85 608 111 551 q 59 730 59 665 q 85 852 59 794 q 155 951 111 909 q 259 1019 200 994 q 388 1044 319 1044 m 388 920 q 259 865 312 920 q 205 730 205 809 q 259 596 205 651 q 388 541 312 541 q 516 596 463 541 q 569 730 569 651 q 516 865 569 809 q 388 920 463 920 m 276 315 l 405 315 l 405 152 l 573 152 l 573 315 l 704 315 l 704 -213 l 276 -213 l 276 315 m 405 40 l 405 -100 l 573 -100 l 573 40 l 405 40 m 790 -230 l 709 -148 q 812 -66 772 -109 q 876 22 852 -23 q 902 101 894 61 q 911 186 911 141 l 911 320 l 1047 320 l 1047 193 q 1055 97 1047 143 q 1086 9 1063 52 q 1147 -72 1108 -31 q 1244 -150 1186 -112 l 1172 -230 q 1112 -188 1140 -209 q 1059 -143 1084 -166 q 1013 -89 1034 -118 q 979 -31 993 -61 q 947 -83 966 -56 q 906 -133 927 -109 q 850 -185 881 -161 q 790 -230 819 -209 "},"Ⅲ":{"x_min":306.9375,"x_max":944.453125,"ha":1250,"o":"m 944 -86 l 843 -86 l 843 950 l 944 950 l 944 -86 m 676 -86 l 575 -86 l 575 950 l 676 950 l 676 -86 m 406 -86 l 306 -86 l 306 950 l 406 950 l 406 -86 "},"둑":{"x_min":30.5625,"x_max":1220.828125,"ha":1250,"o":"m 551 344 l 30 344 l 30 461 l 1220 461 l 1220 344 l 705 344 l 705 184 l 1013 184 l 1013 -234 l 868 -234 l 868 69 l 225 69 l 225 184 l 551 184 l 551 344 m 236 1029 l 1016 1029 l 1016 911 l 379 911 l 379 706 l 1029 706 l 1029 593 l 236 593 l 236 1029 "},"옌":{"x_min":15.28125,"x_max":1150,"ha":1250,"o":"m 995 165 l 995 1069 l 1136 1069 l 1136 165 l 995 165 m 390 184 l 534 184 l 534 -93 l 1150 -93 l 1150 -211 l 390 -211 l 390 184 m 616 611 l 741 611 l 741 791 l 620 791 q 627 750 625 770 q 630 708 630 729 q 626 657 630 681 q 616 611 622 633 m 568 908 l 741 908 l 741 1054 l 876 1054 l 876 197 l 741 197 l 741 494 l 558 494 q 455 406 516 438 q 323 376 394 375 q 202 401 258 375 q 104 472 145 427 q 38 578 62 518 q 15 708 15 638 q 38 836 15 776 q 104 941 62 897 q 202 1012 145 986 q 323 1040 258 1038 q 462 1002 398 1038 q 568 908 526 966 m 323 911 q 200 851 248 911 q 151 708 151 791 q 200 564 151 623 q 323 505 248 505 q 445 564 397 505 q 494 708 494 623 q 445 851 494 791 q 323 911 397 911 "},"녈":{"x_min":127.78125,"x_max":1119.453125,"ha":1250,"o":"m 963 969 l 963 1072 l 1106 1072 l 1106 405 l 963 405 l 963 655 l 620 655 l 620 765 l 963 765 l 963 858 l 620 858 l 620 969 l 963 969 m 855 595 l 855 481 q 740 463 804 472 q 611 450 676 455 q 485 440 545 443 q 380 437 425 437 l 127 437 l 127 1030 l 273 1030 l 273 556 l 415 556 q 631 568 519 556 q 855 595 743 579 m 365 120 l 933 120 l 933 226 l 365 226 l 365 334 l 1091 334 l 1091 15 l 522 15 l 522 -100 l 1119 -100 l 1119 -212 l 365 -212 l 365 120 "},"잣":{"x_min":26.390625,"x_max":1252.78125,"ha":1250,"o":"m 591 268 l 751 268 l 751 190 q 780 72 751 127 q 856 -25 809 18 q 966 -106 905 -73 q 1091 -155 1027 -138 l 1019 -248 q 913 -208 968 -236 q 811 -144 859 -180 q 728 -74 765 -111 q 673 0 691 -37 q 615 -73 652 -36 q 531 -143 579 -111 q 427 -207 481 -179 q 323 -248 373 -236 l 248 -155 q 373 -100 311 -134 q 486 -18 436 -65 q 561 76 531 23 q 591 190 591 129 l 591 268 m 1061 737 l 1252 737 l 1252 615 l 1061 615 l 1061 234 l 918 234 l 918 1072 l 1061 1072 l 1061 737 m 640 898 q 596 779 623 837 q 533 668 569 722 q 659 570 587 613 q 808 498 730 526 l 723 379 q 583 460 655 408 q 456 570 511 512 q 290 425 381 488 q 95 323 198 361 l 26 419 q 181 500 106 451 q 316 612 256 550 q 419 747 377 675 q 477 897 461 819 l 105 897 l 105 1013 l 640 1013 l 640 898 "},"삣":{"x_min":79.171875,"x_max":1140.28125,"ha":1250,"o":"m 216 693 l 216 479 l 368 479 l 368 693 l 216 693 m 502 693 l 502 479 l 650 479 l 650 693 l 502 693 m 502 1019 l 502 804 l 650 804 l 650 1019 l 788 1019 l 788 368 l 79 368 l 79 1019 l 216 1019 l 216 804 l 368 804 l 368 1019 l 502 1019 m 963 236 l 963 1072 l 1106 1072 l 1106 236 l 963 236 m 636 268 l 797 268 l 797 180 q 830 68 797 122 q 918 -29 863 13 q 1025 -106 966 -75 q 1140 -154 1084 -138 l 1061 -248 q 961 -209 1013 -236 q 859 -147 908 -181 q 777 -75 813 -113 q 719 0 740 -37 q 662 -73 700 -36 q 577 -144 625 -111 q 474 -208 527 -180 q 372 -248 420 -236 l 293 -154 q 418 -98 352 -136 q 536 -11 484 -61 q 609 79 581 30 q 636 180 636 129 l 636 268 "},"세":{"x_min":22.21875,"x_max":1136.109375,"ha":1250,"o":"m 725 702 l 725 1050 l 859 1050 l 859 -125 l 725 -125 l 725 587 l 529 587 l 529 702 l 725 702 m 995 -172 l 995 1069 l 1136 1069 l 1136 -172 l 995 -172 m 652 218 l 554 133 q 488 203 520 162 q 427 290 456 244 q 378 383 400 336 q 344 473 356 430 q 254 282 312 380 q 133 113 197 184 l 22 190 q 120 312 76 241 q 198 465 165 383 q 248 635 230 547 q 266 811 266 723 l 266 1016 l 419 1016 l 419 813 q 436 642 419 727 q 483 477 452 556 q 556 332 513 400 q 652 218 600 265 "},"뜨":{"x_min":37.5,"x_max":1211.109375,"ha":1250,"o":"m 201 1004 l 588 1004 l 588 887 l 341 887 l 341 500 q 395 499 362 498 q 463 501 427 500 q 536 504 500 502 q 602 511 573 506 l 602 404 q 556 398 584 401 q 495 394 527 395 q 431 390 463 391 q 377 388 400 388 l 201 387 l 201 1004 m 645 1004 l 1043 1004 l 1043 887 l 786 887 l 786 497 l 1056 497 l 1056 384 l 645 384 l 645 1004 m 37 -31 l 37 88 l 1211 88 l 1211 -31 l 37 -31 "},"휸":{"x_min":27.78125,"x_max":1222.21875,"ha":1250,"o":"m 481 248 l 27 248 l 27 361 l 1222 361 l 1222 248 l 905 248 l 905 30 l 762 30 l 762 248 l 623 248 l 623 30 l 481 30 l 481 248 m 238 155 l 390 155 l 390 -90 l 1034 -90 l 1034 -208 l 238 -208 l 238 155 m 627 858 q 503 811 552 858 q 454 698 454 765 q 503 581 454 626 q 627 536 552 536 q 753 581 702 536 q 804 698 804 627 q 753 811 804 765 q 627 858 702 858 m 550 972 l 550 1112 l 706 1112 l 706 972 l 1077 972 l 1077 859 l 859 859 q 929 788 900 836 q 959 684 959 740 q 935 586 959 633 q 866 502 911 538 q 763 443 823 465 q 630 422 702 422 q 502 443 562 422 q 395 502 441 465 q 323 586 350 538 q 297 683 297 633 q 325 786 297 737 q 394 859 352 834 l 175 859 l 175 972 l 550 972 "},"쩌":{"x_min":0,"x_max":1108.328125,"ha":1250,"o":"m 963 702 l 963 1070 l 1108 1070 l 1108 -170 l 963 -170 l 963 579 l 788 579 l 788 702 l 963 702 m 750 1001 l 750 887 q 731 711 750 801 q 679 534 712 622 q 776 407 720 468 q 898 302 831 347 l 801 200 q 702 292 748 238 q 618 404 655 345 q 506 236 569 316 q 369 90 444 156 l 266 162 q 338 234 304 195 q 405 315 373 273 q 344 379 372 344 q 293 450 316 413 q 203 325 252 383 q 95 220 154 268 l 0 295 q 203 560 126 404 q 284 883 280 716 l 90 883 l 90 1001 l 750 1001 m 476 425 q 572 652 537 533 q 608 883 606 770 l 425 883 q 406 727 423 805 q 358 575 388 650 q 411 497 380 536 q 476 425 441 458 "},"쨈":{"x_min":-2.78125,"x_max":1168.0625,"ha":1250,"o":"m 416 -211 l 416 234 l 1154 234 l 1154 -211 l 416 -211 m 562 119 l 562 -97 l 1008 -97 l 1008 119 l 562 119 m 1031 772 l 1031 1070 l 1168 1070 l 1168 308 l 1031 308 l 1031 647 l 909 647 l 909 308 l 780 308 l 780 1056 l 909 1056 l 909 772 l 1031 772 m 644 1016 l 644 902 q 625 783 640 844 q 588 662 611 722 q 663 561 618 612 q 763 476 709 511 l 679 384 q 598 456 636 413 q 533 544 561 500 q 442 409 494 473 q 327 297 390 345 l 233 365 q 288 413 262 387 q 340 469 315 440 q 288 522 312 494 q 243 581 263 551 q 170 492 209 533 q 87 419 130 451 l -2 487 q 161 671 98 562 q 236 901 225 780 l 52 901 l 52 1016 l 644 1016 m 405 563 q 478 727 451 641 q 512 901 505 813 l 362 901 q 343 793 358 847 q 304 687 327 738 q 349 622 323 655 q 405 563 375 590 "},"묶":{"x_min":30.5625,"x_max":1220.828125,"ha":1250,"o":"m 551 344 l 30 344 l 30 461 l 1220 461 l 1220 344 l 705 344 l 705 184 l 1016 184 l 1016 -225 l 872 -225 l 872 70 l 656 70 l 656 133 l 594 133 l 594 -225 l 448 -225 l 448 70 l 212 70 l 212 184 l 551 184 l 551 344 m 236 1034 l 1013 1034 l 1013 593 l 236 593 l 236 1034 m 381 920 l 381 706 l 863 706 l 863 920 l 381 920 "},"름":{"x_min":29.171875,"x_max":1220.828125,"ha":1250,"o":"m 234 822 l 861 822 l 861 926 l 234 926 l 234 1034 l 1013 1034 l 1013 719 l 386 719 l 386 612 l 1036 612 l 1036 504 l 234 504 l 234 822 m 29 281 l 29 393 l 1220 393 l 1220 281 l 29 281 m 383 52 l 383 -100 l 862 -100 l 862 52 l 383 52 m 237 168 l 1012 168 l 1012 -213 l 237 -213 l 237 168 "},"깝":{"x_min":19.4375,"x_max":1252.78125,"ha":1250,"o":"m 1063 797 l 1252 797 l 1252 675 l 1063 675 l 1063 370 l 919 370 l 919 1070 l 1063 1070 l 1063 797 m 334 304 l 480 304 l 480 165 l 913 165 l 913 304 l 1058 304 l 1058 -211 l 334 -211 l 334 304 m 913 51 l 480 51 l 480 -97 l 913 -97 l 913 51 m 772 1019 q 748 814 772 911 q 684 637 725 718 q 588 489 643 555 q 473 375 534 423 l 365 444 q 539 654 473 529 q 615 906 605 780 l 445 906 q 406 774 434 841 q 334 644 377 706 q 238 526 293 580 q 125 434 184 472 l 19 505 q 120 584 73 538 q 204 683 168 630 q 265 793 241 736 q 298 906 290 850 l 70 906 l 70 1019 l 772 1019 "},"횻":{"x_min":30.5625,"x_max":1220.828125,"ha":1250,"o":"m 543 194 l 708 194 l 708 133 q 744 32 708 77 q 834 -47 780 -12 q 945 -106 884 -81 q 1068 -145 1006 -130 l 1000 -241 q 893 -208 948 -229 q 786 -158 837 -187 q 692 -95 734 -129 q 629 -26 650 -62 q 568 -92 608 -59 q 477 -151 527 -125 q 366 -203 423 -180 q 258 -238 309 -226 l 183 -145 q 316 -101 250 -129 q 436 -31 383 -73 q 512 42 481 0 q 543 133 543 84 l 543 194 m 372 493 l 452 493 q 339 581 381 526 q 297 701 297 637 q 327 796 297 751 q 395 862 356 841 l 176 862 l 176 973 l 552 973 l 552 1112 l 705 1112 l 705 973 l 1076 973 l 1076 862 l 858 862 q 929 797 898 840 q 959 701 959 755 q 922 586 959 640 q 819 498 884 531 l 894 498 l 894 362 l 1220 362 l 1220 255 l 30 255 l 30 362 l 372 362 l 372 493 m 513 470 l 513 362 l 754 362 l 754 472 q 693 459 725 463 q 627 455 661 455 q 568 459 597 455 q 513 470 538 462 m 627 858 q 503 815 552 858 q 454 713 454 772 q 503 610 454 651 q 627 569 552 569 q 753 610 702 569 q 804 713 804 651 q 753 815 804 772 q 627 858 702 858 "},"풋":{"x_min":29.171875,"x_max":1220.828125,"ha":1250,"o":"m 888 920 l 886 675 l 1058 675 l 1058 559 l 198 559 l 198 675 l 369 675 l 365 920 l 212 920 l 212 1036 l 1040 1036 l 1040 920 l 888 920 m 756 920 l 498 920 l 502 675 l 754 675 l 756 920 m 547 150 l 705 150 l 705 105 q 736 19 705 58 q 818 -50 768 -19 q 934 -108 868 -84 q 1068 -147 1001 -131 l 1001 -241 q 891 -211 948 -230 q 781 -165 834 -191 q 690 -112 731 -141 q 629 -50 650 -83 q 567 -109 608 -81 q 475 -162 526 -137 q 363 -207 420 -187 q 256 -238 306 -227 l 184 -145 q 316 -106 250 -130 q 437 -47 383 -83 q 515 20 483 -18 q 547 105 547 58 l 547 150 m 551 333 l 29 333 l 29 448 l 1220 448 l 1220 333 l 705 333 l 705 215 l 551 215 l 551 333 "},"팀":{"x_min":116.671875,"x_max":1106.953125,"ha":1250,"o":"m 265 912 l 265 761 l 681 761 l 681 651 l 265 651 l 265 488 l 400 490 q 506 490 447 488 q 627 497 565 493 q 754 506 691 501 q 873 519 818 512 l 873 406 q 756 392 825 398 q 618 380 687 386 q 484 373 547 376 q 383 370 420 370 l 116 370 l 116 1023 l 691 1023 l 691 912 l 265 912 m 963 305 l 963 1072 l 1106 1072 l 1106 305 l 963 305 m 526 123 l 526 -97 l 956 -97 l 956 123 l 526 123 m 380 -211 l 380 238 l 1102 238 l 1102 -211 l 380 -211 "},"쑤":{"x_min":33.328125,"x_max":1216.671875,"ha":1250,"o":"m 623 451 q 501 561 556 494 q 413 695 445 627 q 311 562 375 626 q 177 456 248 498 l 93 547 q 272 723 205 615 q 338 952 338 831 l 338 1031 l 491 1031 l 491 956 q 526 770 491 859 q 623 619 561 681 q 720 770 681 681 q 759 958 759 859 l 759 1031 l 913 1031 l 913 954 q 930 837 913 895 q 979 726 947 779 q 1054 625 1009 672 q 1156 544 1100 577 l 1070 458 q 936 559 1000 495 q 836 695 873 622 q 744 561 802 629 q 623 451 686 493 m 551 229 l 33 229 l 33 345 l 1216 345 l 1216 229 l 705 229 l 705 -186 l 551 -186 l 551 229 "},"멈":{"x_min":100,"x_max":1106.953125,"ha":1250,"o":"m 963 775 l 963 1072 l 1106 1072 l 1106 311 l 963 311 l 963 655 l 736 655 l 736 775 l 963 775 m 100 1015 l 666 1015 l 666 422 l 100 422 l 100 1015 m 247 901 l 247 537 l 520 537 l 520 901 l 247 901 m 380 -211 l 380 238 l 1102 238 l 1102 -211 l 380 -211 m 526 123 l 526 -97 l 956 -97 l 956 123 l 526 123 "},"즌":{"x_min":30.5625,"x_max":1220.828125,"ha":1250,"o":"m 30 294 l 30 412 l 1220 412 l 1220 294 l 30 294 m 241 186 l 393 186 l 393 -91 l 1034 -91 l 1034 -208 l 241 -208 l 241 186 m 913 918 q 837 826 879 869 q 748 745 795 783 q 918 674 825 704 q 1108 627 1012 644 l 1045 511 q 841 575 948 533 q 647 672 734 618 q 434 566 547 609 q 208 500 320 523 l 145 598 q 309 643 226 613 q 469 713 393 673 q 610 804 545 754 q 719 915 675 855 l 250 915 l 250 1030 l 913 1030 l 913 918 "},"빈":{"x_min":106.9375,"x_max":1138.890625,"ha":1250,"o":"m 251 686 l 251 473 l 547 473 l 547 686 l 251 686 m 106 1020 l 251 1020 l 251 801 l 547 801 l 547 1020 l 691 1020 l 691 359 l 106 359 l 106 1020 m 963 129 l 963 1072 l 1106 1072 l 1106 129 l 963 129 m 377 198 l 523 198 l 523 -93 l 1138 -93 l 1138 -211 l 377 -211 l 377 198 "},"준":{"x_min":29.171875,"x_max":1220.828125,"ha":1250,"o":"m 237 195 l 388 195 l 388 -90 l 1034 -90 l 1034 -208 l 237 -208 l 237 195 m 577 308 l 29 308 l 29 425 l 1220 425 l 1220 308 l 729 308 l 729 59 l 577 59 l 577 308 m 913 918 q 837 826 879 869 q 748 745 795 783 q 918 674 825 704 q 1108 627 1012 644 l 1045 511 q 841 575 948 533 q 647 672 734 618 q 434 566 547 609 q 208 500 320 523 l 145 598 q 309 643 226 613 q 469 713 393 673 q 610 804 545 754 q 719 915 675 855 l 250 915 l 250 1030 l 913 1030 l 913 918 "},"괏":{"x_min":29.171875,"x_max":1250,"ha":1250,"o":"m 262 458 l 262 727 l 405 727 l 405 462 q 653 474 530 466 q 854 491 776 481 l 854 380 q 745 368 813 373 q 595 356 676 362 q 429 347 515 351 q 272 344 344 344 l 29 343 l 29 458 l 262 458 m 570 243 l 738 243 l 738 155 q 768 54 738 102 q 848 -30 798 6 q 958 -101 898 -72 q 1076 -147 1018 -130 l 997 -240 q 900 -204 950 -227 q 805 -151 851 -180 q 716 -84 756 -120 q 655 -11 676 -48 q 600 -79 636 -44 q 519 -143 563 -113 q 415 -202 469 -176 q 311 -240 361 -227 l 230 -147 q 354 -98 290 -130 q 470 -22 419 -66 q 543 60 515 15 q 570 155 570 105 l 570 243 m 666 559 l 519 559 q 538 644 529 593 q 554 750 548 695 q 562 838 558 795 q 566 913 566 881 l 120 913 l 120 1034 l 716 1034 q 712 930 716 988 q 704 811 708 872 q 687 672 697 740 q 666 559 677 605 m 1063 559 l 1063 194 l 919 194 l 919 1070 l 1063 1070 l 1063 676 l 1250 676 l 1250 559 l 1063 559 "},"깹":{"x_min":22.21875,"x_max":1168.0625,"ha":1250,"o":"m 1031 794 l 1031 1070 l 1168 1070 l 1168 363 l 1031 363 l 1031 668 l 895 668 l 895 363 l 766 363 l 766 1056 l 895 1056 l 895 794 l 1031 794 m 423 293 l 565 293 l 565 150 l 1019 150 l 1019 293 l 1161 293 l 1161 -211 l 423 -211 l 423 293 m 1019 37 l 565 37 l 565 -97 l 1019 -97 l 1019 37 m 668 1016 q 608 663 666 830 q 429 380 550 497 l 326 441 q 472 652 420 529 q 529 900 523 776 l 377 900 q 347 775 369 840 q 291 650 325 711 q 213 533 258 588 q 119 437 169 477 l 22 495 q 102 576 63 530 q 170 676 140 622 q 222 786 201 729 q 251 900 243 843 l 73 900 l 73 1016 l 668 1016 "},"㉻":{"x_min":40.28125,"x_max":1209.71875,"ha":1250,"o":"m 481 451 q 399 419 429 451 q 369 340 369 387 q 399 259 369 291 q 481 226 429 226 q 565 259 536 226 q 595 340 595 291 q 565 419 595 387 q 481 451 536 451 l 481 451 m 625 1027 q 852 979 745 1027 q 1037 847 958 930 q 1163 652 1116 763 q 1209 416 1209 541 q 1163 179 1209 290 q 1037 -15 1116 68 q 852 -146 958 -98 q 625 -194 745 -194 q 397 -146 504 -194 q 211 -15 290 -98 q 86 179 131 68 q 40 416 40 290 q 86 652 40 541 q 211 847 131 763 q 397 979 290 930 q 625 1027 504 1027 l 625 1027 m 625 973 q 418 929 515 973 q 251 809 322 884 q 138 631 179 733 q 97 416 97 530 q 138 200 97 301 q 251 22 179 98 q 418 -96 322 -52 q 625 -140 515 -140 q 829 -96 733 -140 q 997 22 926 -52 q 1111 200 1069 98 q 1152 416 1152 301 q 1111 631 1152 530 q 997 809 1069 733 q 829 929 926 884 q 625 973 733 973 l 625 973 m 481 538 q 636 480 576 538 q 697 340 697 422 q 636 198 697 256 q 481 140 576 140 q 327 198 387 140 q 268 340 268 256 q 327 480 268 422 q 481 538 387 538 l 481 538 m 229 652 l 734 652 l 734 568 l 229 568 l 229 652 m 361 790 l 605 790 l 605 705 l 361 705 l 361 790 m 886 409 l 886 16 l 784 16 l 784 818 l 886 818 l 886 494 l 1000 494 l 1000 409 l 886 409 "},"졀":{"x_min":36.109375,"x_max":1119.453125,"ha":1250,"o":"m 365 120 l 933 120 l 933 226 l 365 226 l 365 334 l 1091 334 l 1091 15 l 522 15 l 522 -100 l 1119 -100 l 1119 -212 l 365 -212 l 365 120 m 963 930 l 963 1072 l 1106 1072 l 1106 394 l 963 394 l 963 613 l 709 613 l 709 725 l 963 725 l 963 820 l 711 820 l 711 930 l 963 930 m 619 904 q 575 787 602 844 q 509 679 547 730 q 638 583 566 626 q 783 513 711 540 l 706 404 q 565 482 637 433 q 434 590 493 531 q 286 465 368 522 q 115 372 204 409 l 36 466 q 307 643 191 529 q 462 901 423 758 l 106 901 l 106 1018 l 619 1018 l 619 904 "},"댓":{"x_min":79.171875,"x_max":1140.28125,"ha":1250,"o":"m 995 759 l 995 1069 l 1136 1069 l 1136 293 l 995 293 l 995 634 l 838 634 l 838 326 l 702 326 l 702 1054 l 838 1054 l 838 759 l 995 759 m 626 537 l 626 426 q 548 411 593 418 q 456 400 504 405 q 365 393 409 395 q 291 391 322 391 l 79 390 l 79 1016 l 555 1016 l 555 894 l 222 894 l 222 509 l 304 509 q 460 516 369 509 q 626 537 551 523 m 636 268 l 797 268 l 797 180 q 830 68 797 122 q 918 -29 863 13 q 1025 -106 966 -75 q 1140 -154 1084 -138 l 1061 -248 q 961 -209 1013 -236 q 859 -147 908 -181 q 777 -75 813 -113 q 719 0 740 -37 q 662 -73 700 -36 q 577 -144 625 -111 q 474 -208 527 -180 q 372 -248 420 -236 l 293 -154 q 418 -98 352 -136 q 536 -11 484 -61 q 609 79 581 30 q 636 180 636 129 l 636 268 "},"겔":{"x_min":33.328125,"x_max":1154.171875,"ha":1250,"o":"m 718 684 l 527 684 l 527 800 l 718 800 l 718 1054 l 852 1054 l 852 404 l 718 404 l 718 684 m 126 361 l 33 441 q 184 544 115 487 q 302 665 254 601 q 374 784 348 723 q 402 897 400 844 l 100 897 l 100 1015 l 558 1015 q 527 815 558 906 q 444 645 497 723 q 304 486 386 558 q 126 361 222 415 m 995 402 l 995 1069 l 1136 1069 l 1136 402 l 995 402 m 386 120 l 970 120 l 970 226 l 386 226 l 386 334 l 1126 334 l 1126 15 l 543 15 l 543 -100 l 1154 -100 l 1154 -212 l 386 -212 l 386 120 "},"웠":{"x_min":27.78125,"x_max":1191.671875,"ha":1250,"o":"m 965 265 l 681 265 l 681 376 l 965 376 l 965 1070 l 1108 1070 l 1108 223 l 965 223 l 965 265 m 695 -243 q 624 -206 656 -226 q 565 -162 591 -186 q 520 -119 540 -141 q 488 -76 501 -97 q 452 -120 473 -98 q 404 -162 430 -143 q 335 -209 372 -187 q 263 -243 298 -230 l 197 -155 q 302 -93 258 -126 q 373 -19 347 -59 q 404 50 394 12 q 415 133 415 87 l 415 175 l 558 175 l 558 136 q 570 45 558 88 q 611 -34 583 2 q 647 -74 626 -55 q 693 -109 668 -93 q 745 -67 722 -90 q 786 -18 769 -44 q 820 54 809 15 q 830 136 830 94 l 830 175 l 975 175 l 975 133 q 987 42 975 84 q 1026 -34 1000 0 q 1092 -100 1051 -70 q 1191 -154 1133 -129 l 1125 -243 q 1048 -207 1083 -229 q 984 -162 1013 -186 q 936 -118 956 -141 q 904 -73 915 -94 q 872 -115 893 -94 q 830 -156 852 -136 q 766 -204 801 -181 q 695 -243 731 -226 m 425 965 q 314 924 358 965 q 270 829 270 883 q 314 731 270 772 q 425 690 358 690 q 534 732 490 690 q 579 829 579 775 q 534 924 579 883 q 425 965 490 965 m 425 573 q 307 593 362 573 q 211 650 252 613 q 145 731 169 684 q 122 829 122 777 q 145 925 122 879 q 211 1005 169 970 q 306 1061 251 1040 q 425 1081 362 1081 q 542 1061 487 1081 q 638 1005 597 1040 q 703 925 679 970 q 727 829 727 879 q 704 731 727 777 q 638 650 680 686 q 543 594 598 615 q 425 573 487 573 m 297 538 q 626 548 468 538 q 898 570 784 558 l 898 459 q 723 442 834 451 q 495 429 612 433 l 495 230 l 347 230 l 347 425 l 316 425 l 27 423 l 27 538 l 297 538 "},"숌":{"x_min":30.5625,"x_max":1220.828125,"ha":1250,"o":"m 390 429 l 390 590 l 530 590 l 530 429 l 729 429 l 729 590 l 870 590 l 870 429 l 1220 429 l 1220 315 l 30 315 l 30 429 l 390 429 m 626 819 q 556 734 600 773 q 462 662 512 694 q 349 599 408 626 q 234 555 290 572 l 158 654 q 287 704 215 669 q 420 790 359 740 q 508 881 472 831 q 544 990 544 931 l 544 1065 l 706 1065 l 706 990 q 744 875 706 927 q 836 779 781 822 q 963 700 894 733 q 1088 654 1031 668 l 1019 555 q 909 596 968 570 q 797 656 851 622 q 700 730 743 690 q 626 819 656 770 m 237 193 l 1012 193 l 1012 -213 l 237 -213 l 237 193 m 383 80 l 383 -100 l 862 -100 l 862 80 l 383 80 "},"냐":{"x_min":144.4375,"x_max":1254.171875,"ha":1250,"o":"m 1063 829 l 1254 829 l 1254 716 l 1063 716 l 1063 484 l 1254 484 l 1254 372 l 1063 372 l 1063 -170 l 920 -170 l 920 1069 l 1063 1069 l 1063 829 m 827 329 l 827 215 q 726 197 781 205 q 613 186 670 190 q 507 177 558 180 q 423 175 456 175 l 144 173 l 144 1013 l 290 1013 l 290 291 l 440 293 q 631 302 538 293 q 827 329 723 312 "},"쥠":{"x_min":27.78125,"x_max":1108.328125,"ha":1250,"o":"m 1108 252 l 965 252 l 965 1070 l 1108 1070 l 1108 252 m 368 -211 l 368 188 l 1105 188 l 1105 -211 l 368 -211 m 513 75 l 513 -97 l 959 -97 l 959 75 l 513 75 m 347 393 l 316 393 l 27 391 l 27 505 l 263 505 q 427 508 338 505 q 604 515 516 511 q 767 525 690 519 q 898 538 844 531 l 898 426 q 723 409 834 418 q 495 397 612 401 l 495 250 l 347 250 l 347 393 m 656 926 q 605 853 634 888 q 543 786 576 818 q 672 736 601 758 q 812 700 743 715 l 758 587 q 602 638 684 604 q 455 715 520 673 q 302 627 384 665 q 137 568 220 590 l 73 659 q 194 702 133 676 q 309 761 255 727 q 411 834 365 794 q 488 920 456 875 l 159 920 l 159 1037 l 656 1037 l 656 926 "},"㉹":{"x_min":40.28125,"x_max":1209.71875,"ha":1250,"o":"m 625 1027 q 852 979 745 1027 q 1037 847 958 930 q 1163 652 1116 763 q 1209 416 1209 541 q 1163 179 1209 290 q 1037 -15 1116 68 q 852 -146 958 -98 q 625 -194 745 -194 q 397 -146 504 -194 q 211 -15 290 -98 q 86 179 131 68 q 40 416 40 290 q 86 652 40 541 q 211 847 131 763 q 397 979 290 930 q 625 1027 504 1027 l 625 1027 m 625 973 q 418 929 515 973 q 251 809 322 884 q 138 631 179 733 q 97 416 97 530 q 138 200 97 301 q 251 22 179 98 q 418 -96 322 -52 q 625 -140 515 -140 q 829 -96 733 -140 q 997 22 926 -52 q 1111 200 1069 98 q 1152 416 1152 301 q 1111 631 1152 530 q 997 809 1069 733 q 829 929 926 884 q 625 973 733 973 l 625 973 m 754 212 q 659 195 716 204 q 562 184 602 186 q 476 181 522 181 q 391 180 430 180 q 322 180 351 180 q 291 180 294 180 l 291 734 l 687 734 l 687 650 l 391 650 l 391 506 l 679 506 l 679 420 l 391 420 l 391 266 l 556 270 q 660 279 601 272 q 754 294 719 287 l 754 212 m 793 816 l 893 816 l 893 491 l 1006 491 l 1006 408 l 893 408 l 893 15 l 793 15 l 793 816 "},"듈":{"x_min":29.171875,"x_max":1219.453125,"ha":1250,"o":"m 397 419 l 29 419 l 29 531 l 1219 531 l 1219 419 l 880 419 l 880 293 l 1012 293 l 1012 -9 l 393 -9 l 393 -102 l 1038 -102 l 1038 -212 l 237 -212 l 237 93 l 858 93 l 858 183 l 237 183 l 237 293 l 397 293 l 397 419 m 543 419 l 543 293 l 734 293 l 734 419 l 543 419 m 234 1041 l 1015 1041 l 1015 930 l 377 930 l 377 752 l 1026 752 l 1026 643 l 234 643 l 234 1041 "},"촘":{"x_min":30.5625,"x_max":1220.828125,"ha":1250,"o":"m 237 168 l 1012 168 l 1012 -213 l 237 -213 l 237 168 m 383 52 l 383 -100 l 862 -100 l 862 52 l 383 52 m 552 383 l 552 534 l 702 534 l 702 383 l 1220 383 l 1220 272 l 30 272 l 30 383 l 552 383 m 902 848 q 832 775 870 811 q 751 709 794 740 q 929 642 833 670 q 1112 600 1025 613 l 1068 483 q 964 507 1019 491 q 854 544 909 523 q 745 590 798 565 q 647 643 691 615 q 429 543 544 584 q 202 483 315 502 l 143 580 q 304 620 223 595 q 459 679 386 645 q 597 755 533 713 q 712 845 662 797 l 236 845 l 236 958 l 554 958 l 554 1111 l 702 1111 l 702 958 l 902 958 l 902 848 "},"전":{"x_min":19.4375,"x_max":1138.890625,"ha":1250,"o":"m 377 198 l 523 198 l 523 -93 l 1138 -93 l 1138 -211 l 377 -211 l 377 198 m 963 779 l 963 1072 l 1106 1072 l 1106 129 l 963 129 l 963 659 l 688 659 l 688 779 l 963 779 m 640 898 q 597 772 625 833 q 533 655 570 711 q 664 550 590 597 q 816 472 738 504 l 738 352 q 588 440 662 386 q 455 555 513 494 q 288 408 380 473 q 98 301 197 343 l 19 394 q 178 481 101 427 q 318 602 255 536 q 422 744 379 669 q 479 897 465 819 l 105 897 l 105 1013 l 640 1013 l 640 898 "},"륀":{"x_min":27.78125,"x_max":1118.0625,"ha":1250,"o":"m 347 329 l 316 329 l 27 327 l 27 441 l 263 441 q 427 444 338 441 q 604 451 516 447 q 767 462 690 456 q 898 475 844 468 l 898 365 q 723 346 834 355 q 495 333 612 337 l 495 195 l 347 195 l 347 329 m 356 138 l 502 138 l 502 -93 l 1118 -93 l 1118 -211 l 356 -211 l 356 138 m 1108 112 l 965 112 l 965 1070 l 1108 1070 l 1108 112 m 747 537 l 134 537 l 134 840 l 569 840 l 569 930 l 133 930 l 133 1038 l 715 1038 l 715 737 l 279 737 l 279 647 l 747 647 l 747 537 "},"픔":{"x_min":29.171875,"x_max":1220.828125,"ha":1250,"o":"m 890 920 l 887 704 l 1058 704 l 1058 587 l 198 587 l 198 704 l 368 704 l 363 920 l 212 920 l 212 1036 l 1040 1036 l 1040 920 l 890 920 m 758 920 l 497 920 l 501 704 l 755 704 l 758 920 m 29 333 l 29 451 l 1220 451 l 1220 333 l 29 333 m 237 193 l 1012 193 l 1012 -213 l 237 -213 l 237 193 m 383 80 l 383 -100 l 862 -100 l 862 80 l 383 80 "},"빳":{"x_min":68.0625,"x_max":1252.78125,"ha":1250,"o":"m 1061 737 l 1252 737 l 1252 615 l 1061 615 l 1061 234 l 918 234 l 918 1072 l 1061 1072 l 1061 737 m 591 268 l 751 268 l 751 190 q 780 72 751 127 q 856 -25 809 18 q 966 -106 905 -73 q 1091 -155 1027 -138 l 1019 -248 q 913 -208 968 -236 q 811 -144 859 -180 q 728 -74 765 -111 q 673 0 691 -37 q 615 -73 652 -36 q 531 -143 579 -111 q 427 -207 481 -179 q 323 -248 373 -236 l 248 -155 q 373 -100 311 -134 q 486 -18 436 -65 q 561 76 531 23 q 591 190 591 129 l 591 268 m 491 1019 l 491 808 l 638 808 l 638 1019 l 776 1019 l 776 376 l 68 376 l 68 1019 l 204 1019 l 204 808 l 355 808 l 355 1019 l 491 1019 m 491 697 l 491 488 l 638 488 l 638 697 l 491 697 m 204 697 l 204 488 l 355 488 l 355 697 l 204 697 "},"㏄":{"x_min":66.671875,"x_max":1183.328125,"ha":1250,"o":"m 616 130 q 536 -47 600 23 q 348 -119 472 -119 q 222 -90 276 -119 q 134 -8 169 -61 q 83 115 100 43 q 66 273 66 187 q 86 431 66 359 q 147 555 106 504 q 242 635 186 606 q 369 663 298 663 q 476 638 430 663 q 552 573 522 612 q 597 486 581 534 q 612 393 612 438 l 504 393 q 497 432 502 406 q 476 484 491 458 q 434 528 461 509 q 365 547 408 547 q 228 477 275 547 q 181 277 181 406 q 222 66 181 144 q 355 -11 262 -11 q 460 31 420 -11 q 505 130 500 75 l 616 130 m 1183 130 q 1105 -47 1166 23 q 920 -118 1044 -118 q 794 -88 848 -118 q 705 -8 740 -59 q 652 115 669 44 q 634 273 634 187 q 654 431 634 359 q 713 555 675 504 q 809 635 752 606 q 936 663 865 663 q 1044 638 998 663 q 1120 573 1090 612 q 1165 486 1150 534 q 1180 393 1180 438 l 1070 393 q 1063 432 1069 406 q 1043 484 1058 458 q 1001 528 1027 509 q 931 547 975 547 q 795 477 843 547 q 748 277 748 406 q 788 66 748 144 q 922 -11 829 -11 q 1027 31 987 -11 q 1072 130 1068 75 l 1183 130 "},"형":{"x_min":48.609375,"x_max":1106.953125,"ha":1250,"o":"m 963 776 l 963 1072 l 1106 1072 l 1106 270 l 963 270 l 963 425 l 770 425 l 770 537 l 963 537 l 963 662 l 772 662 l 772 776 l 963 776 m 415 700 q 300 656 343 700 q 258 558 258 613 q 302 461 258 501 q 416 422 345 422 q 529 461 487 422 q 570 558 570 500 q 527 658 570 616 q 415 700 484 700 m 794 854 l 48 854 l 48 966 l 340 966 l 340 1112 l 486 1112 l 486 966 l 794 966 l 794 854 m 413 811 q 535 790 480 811 q 630 734 590 769 q 693 654 670 700 q 715 556 715 608 q 693 459 715 505 q 631 379 670 413 q 538 325 593 345 q 416 305 483 305 q 296 325 351 305 q 201 380 241 345 q 138 459 161 413 q 116 556 116 505 q 137 652 116 606 q 197 733 158 698 q 290 790 236 769 q 413 811 345 811 m 755 -283 q 631 -261 688 -283 q 529 -202 573 -240 q 461 -112 486 -163 q 436 0 436 -61 q 461 111 436 59 q 529 202 486 163 q 631 262 573 240 q 755 284 688 284 q 879 262 822 284 q 981 202 937 240 q 1050 111 1025 163 q 1075 0 1075 59 q 1050 -112 1075 -61 q 981 -202 1025 -163 q 879 -261 937 -240 q 755 -283 822 -283 m 755 165 q 628 118 680 165 q 576 0 576 70 q 625 -116 576 -70 q 750 -162 675 -162 q 878 -116 825 -162 q 931 0 931 -70 q 881 118 931 70 q 755 165 830 165 "},"찔":{"x_min":30.5625,"x_max":1119.453125,"ha":1250,"o":"m 963 402 l 963 1072 l 1106 1072 l 1106 402 l 963 402 m 365 120 l 933 120 l 933 226 l 365 226 l 365 334 l 1091 334 l 1091 15 l 522 15 l 522 -100 l 1119 -100 l 1119 -212 l 365 -212 l 365 120 m 372 730 q 429 675 397 701 q 498 627 462 648 q 573 758 544 688 q 611 900 602 827 l 437 900 q 412 813 429 855 q 372 730 395 770 m 415 534 q 355 584 383 558 q 305 638 327 611 q 214 550 263 590 q 112 483 165 511 l 30 561 q 206 706 134 616 q 295 900 277 795 l 97 900 l 97 1018 l 751 1018 l 751 901 q 729 801 744 851 q 691 704 715 751 q 784 625 731 662 q 891 563 836 588 l 813 456 q 716 522 763 484 q 631 600 669 559 q 525 476 586 533 q 395 379 465 419 l 305 454 q 362 490 334 470 q 415 534 390 511 "},"뜸":{"x_min":29.171875,"x_max":1220.828125,"ha":1250,"o":"m 205 1041 l 588 1041 l 588 925 l 344 925 l 344 704 q 395 703 362 702 q 463 705 427 704 q 536 709 500 706 q 602 715 573 711 l 602 605 q 516 597 569 601 q 416 593 463 594 l 205 590 l 205 1041 m 645 1041 l 1037 1041 l 1037 925 l 786 925 l 786 701 l 1051 701 l 1051 587 l 645 587 l 645 1041 m 29 333 l 29 451 l 1220 451 l 1220 333 l 29 333 m 383 80 l 383 -100 l 862 -100 l 862 80 l 383 80 m 237 193 l 1012 193 l 1012 -213 l 237 -213 l 237 193 "},"탑":{"x_min":87.5,"x_max":1252.78125,"ha":1250,"o":"m 1063 797 l 1252 797 l 1252 675 l 1063 675 l 1063 370 l 919 370 l 919 1070 l 1063 1070 l 1063 797 m 236 913 l 236 783 l 651 783 l 651 672 l 236 672 l 236 534 l 356 536 q 463 536 404 534 q 586 543 522 538 q 711 552 648 547 q 830 565 775 558 l 830 452 q 713 438 781 444 q 575 426 644 431 q 442 419 505 422 q 341 416 379 416 l 87 416 l 87 1026 l 661 1026 l 661 913 l 236 913 m 334 304 l 480 304 l 480 165 l 913 165 l 913 304 l 1058 304 l 1058 -211 l 334 -211 l 334 304 m 913 51 l 480 51 l 480 -97 l 913 -97 l 913 51 "},"넌":{"x_min":126.390625,"x_max":1138.890625,"ha":1250,"o":"m 963 822 l 963 1072 l 1106 1072 l 1106 129 l 963 129 l 963 704 l 601 704 l 601 822 l 963 822 m 377 198 l 523 198 l 523 -93 l 1138 -93 l 1138 -211 l 377 -211 l 377 198 m 855 519 l 855 406 q 740 388 804 395 q 611 373 676 380 q 485 365 545 368 q 380 362 425 362 l 126 362 l 126 1027 l 272 1027 l 272 479 l 415 479 q 631 491 519 479 q 855 519 743 504 "},"⑾":{"x_min":18.0625,"x_max":1233.328125,"ha":1250,"o":"m 929 31 l 840 31 l 840 609 l 719 609 l 719 675 q 758 682 737 677 q 798 700 779 687 q 834 738 818 713 q 862 804 851 762 l 929 804 l 929 31 m 429 31 l 341 31 l 341 609 l 218 609 l 218 675 q 259 682 237 677 q 300 700 280 687 q 335 738 319 713 q 362 804 351 762 l 429 804 l 429 31 m 1233 418 q 1186 113 1233 259 q 1052 -161 1140 -31 l 1006 -161 q 1054 -78 1025 -131 q 1112 50 1084 -25 q 1162 216 1141 123 q 1183 418 1183 309 q 1162 618 1183 525 q 1112 784 1141 711 q 1054 913 1084 859 q 1006 997 1025 966 l 1052 997 q 1186 720 1140 868 q 1233 418 1233 573 l 1233 418 m 244 -161 l 198 -161 q 63 113 109 -31 q 18 418 18 259 q 63 720 18 573 q 198 997 109 868 l 244 997 q 195 913 225 966 q 137 784 165 859 q 88 618 108 711 q 68 418 68 525 q 88 216 68 309 q 137 50 108 123 q 195 -78 165 -25 q 244 -161 225 -131 l 244 -161 "},"k":{"x_min":108.328125,"x_max":737.5,"ha":772,"o":"m 737 -25 l 561 -25 l 330 319 l 245 225 l 245 -25 l 108 -25 l 108 1025 l 245 1025 l 245 401 l 523 729 l 705 729 l 422 420 l 737 -25 "},"팁":{"x_min":116.671875,"x_max":1106.953125,"ha":1250,"o":"m 265 913 l 265 783 l 681 783 l 681 672 l 265 672 l 265 534 l 400 536 q 506 536 447 534 q 627 543 565 538 q 754 552 691 547 q 873 565 818 558 l 873 452 q 756 438 825 444 q 618 426 687 431 q 484 419 547 422 q 383 416 420 416 l 116 416 l 116 1026 l 691 1026 l 691 913 l 265 913 m 963 369 l 963 1072 l 1106 1072 l 1106 369 l 963 369 m 948 51 l 515 51 l 515 -97 l 948 -97 l 948 51 m 369 304 l 515 304 l 515 165 l 948 165 l 948 304 l 1094 304 l 1094 -211 l 369 -211 l 369 304 "},"류":{"x_min":34.71875,"x_max":1215.28125,"ha":1250,"o":"m 340 169 l 34 169 l 34 281 l 1215 281 l 1215 169 l 911 169 l 911 -184 l 761 -184 l 761 169 l 491 169 l 491 -184 l 340 -184 l 340 169 m 861 781 l 861 911 l 236 911 l 236 1027 l 1013 1027 l 1013 669 l 390 669 l 390 533 l 1041 533 l 1041 413 l 236 413 l 236 781 l 861 781 "},"췹":{"x_min":27.78125,"x_max":1108.328125,"ha":1250,"o":"m 1108 305 l 965 305 l 965 1070 l 1108 1070 l 1108 305 m 358 244 l 505 244 l 505 126 l 950 126 l 950 244 l 1095 244 l 1095 -211 l 358 -211 l 358 244 m 950 12 l 505 12 l 505 -97 l 950 -97 l 950 12 m 347 393 l 316 393 l 27 391 l 27 506 l 263 506 q 427 509 338 506 q 604 516 516 512 q 767 526 690 520 q 898 538 844 531 l 898 427 q 723 410 834 419 q 495 397 612 401 l 495 306 l 347 306 l 347 393 m 688 875 q 630 811 662 841 q 562 752 598 780 q 700 705 625 725 q 841 677 775 686 l 781 573 q 621 615 708 586 q 463 686 534 644 q 297 605 383 638 q 134 556 211 572 l 73 648 q 197 683 134 661 q 318 734 259 705 q 425 798 375 763 q 513 872 476 833 l 145 872 l 145 976 l 372 976 l 372 1112 l 511 1112 l 511 976 l 688 976 l 688 875 "},"⒤":{"x_min":37.5,"x_max":1212.5,"ha":1250,"o":"m 37 416 q 55 606 37 520 q 101 762 73 693 q 161 886 127 833 q 223 979 194 940 l 276 979 q 152 704 186 850 q 119 416 119 559 q 154 127 119 269 q 276 -145 188 -15 l 223 -145 q 161 -56 194 -109 q 101 66 129 -2 q 55 224 73 137 q 37 416 37 311 l 37 416 m 1212 416 q 1193 224 1212 311 q 1147 66 1175 137 q 1086 -56 1119 -2 q 1026 -145 1054 -109 l 973 -145 q 1096 127 1061 -15 q 1131 416 1131 269 q 1097 704 1131 559 q 973 979 1062 850 l 1026 979 q 1088 886 1055 940 q 1148 762 1120 833 q 1193 606 1175 693 q 1212 416 1212 520 l 1212 416 m 675 -16 l 575 -16 l 575 616 l 675 616 l 675 -16 m 675 738 l 575 738 l 575 850 l 675 850 l 675 738 "},"피":{"x_min":91.671875,"x_max":1108.328125,"ha":1250,"o":"m 670 884 l 666 281 q 779 288 725 284 q 880 295 833 291 l 880 179 q 747 168 825 172 q 586 159 669 163 q 423 154 502 156 q 287 152 344 152 l 91 152 l 91 270 l 240 270 l 234 884 l 122 884 l 122 1000 l 786 1000 l 786 884 l 670 884 m 536 884 l 369 884 l 373 270 q 409 271 390 270 q 448 273 429 272 q 490 274 469 273 q 531 276 511 275 l 536 884 m 963 -170 l 963 1070 l 1108 1070 l 1108 -170 l 963 -170 "},"∝":{"x_min":138.890625,"x_max":1126.390625,"ha":1250,"o":"m 1126 198 q 1042 155 1080 168 q 956 143 1004 143 q 852 161 897 143 q 775 206 806 180 q 720 264 741 234 q 686 316 698 294 q 651 264 673 294 q 595 208 629 234 q 519 161 563 180 q 419 143 475 143 q 309 163 361 143 q 220 222 258 184 q 160 309 181 259 q 138 416 138 359 q 160 522 138 472 q 220 609 181 572 q 309 668 258 647 q 419 690 361 690 q 519 670 475 690 q 597 623 563 651 q 652 565 630 595 q 686 515 673 536 q 720 565 698 536 q 776 623 743 595 q 854 670 809 651 q 956 690 900 690 q 1042 677 1002 690 q 1123 634 1081 663 l 1076 565 q 1019 596 1044 588 q 956 604 994 604 q 857 579 898 604 q 790 520 816 554 q 750 458 763 488 q 733 416 737 427 q 750 373 737 404 q 790 311 763 343 q 857 254 816 279 q 956 229 898 229 q 1019 237 993 229 q 1075 266 1045 245 l 1126 198 m 640 416 q 619 458 634 427 q 577 522 604 488 q 510 579 550 554 q 419 604 470 604 q 343 588 379 604 q 281 548 308 573 q 240 489 255 523 q 225 416 225 455 q 240 342 225 376 q 281 283 255 308 q 343 243 308 258 q 419 229 379 229 q 510 253 470 229 q 577 309 550 277 q 619 373 604 343 q 640 416 634 404 l 640 416 "},"댜":{"x_min":134.71875,"x_max":1254.171875,"ha":1250,"o":"m 1063 829 l 1254 829 l 1254 716 l 1063 716 l 1063 484 l 1254 484 l 1254 372 l 1063 372 l 1063 -170 l 920 -170 l 920 1069 l 1063 1069 l 1063 829 m 829 312 l 829 197 q 730 183 788 190 q 609 172 672 176 q 484 163 545 166 q 377 162 423 161 l 134 161 l 134 997 l 679 997 l 679 875 l 277 875 l 277 280 l 420 281 q 620 290 509 281 q 829 312 731 298 "},"ⓡ":{"x_min":40.28125,"x_max":1209.71875,"ha":1250,"o":"m 625 1008 q 852 961 745 1008 q 1037 834 958 913 q 1163 646 1116 754 q 1209 416 1209 538 q 1163 185 1209 293 q 1037 -2 1116 77 q 852 -128 958 -81 q 625 -175 745 -175 q 397 -128 504 -175 q 211 -2 290 -81 q 86 185 131 77 q 40 416 40 293 q 86 646 40 538 q 211 834 131 754 q 397 961 290 913 q 625 1008 504 1008 l 625 1008 m 625 955 q 418 912 515 955 q 251 797 322 869 q 138 625 179 723 q 97 416 97 527 q 138 206 97 304 q 251 34 179 108 q 418 -79 322 -37 q 625 -122 515 -122 q 829 -79 733 -122 q 997 34 926 -37 q 1111 206 1069 108 q 1152 416 1152 304 q 1111 625 1152 527 q 997 797 1069 723 q 829 912 926 869 q 625 955 733 955 l 625 955 m 523 676 l 620 676 l 620 590 q 663 645 640 625 q 723 683 686 666 q 772 693 745 691 q 802 695 800 695 l 802 598 q 756 595 777 598 q 715 581 734 591 q 645 513 669 556 q 620 395 620 469 l 620 112 l 523 112 l 523 676 "},"일":{"x_min":68.0625,"x_max":1119.453125,"ha":1250,"o":"m 395 1051 q 521 1026 462 1051 q 625 959 580 1001 q 695 859 669 916 q 722 738 722 802 q 695 616 722 673 q 625 518 669 559 q 521 450 580 475 q 395 426 462 426 q 268 450 327 426 q 163 518 208 475 q 93 616 119 559 q 68 738 68 673 q 93 859 68 802 q 163 959 119 916 q 268 1026 208 1001 q 395 1051 327 1051 m 395 926 q 266 872 319 926 q 213 738 213 818 q 266 604 213 658 q 395 551 319 551 q 523 604 470 551 q 576 738 576 658 q 523 872 576 818 q 395 926 470 926 m 963 402 l 963 1072 l 1106 1072 l 1106 402 l 963 402 m 365 120 l 933 120 l 933 226 l 365 226 l 365 334 l 1091 334 l 1091 15 l 522 15 l 522 -100 l 1119 -100 l 1119 -212 l 365 -212 l 365 120 "},"≠":{"x_min":181.9375,"x_max":1077.78125,"ha":1250,"o":"m 912 877 l 987 816 l 848 638 l 1077 638 l 1077 550 l 779 550 l 605 325 l 1077 325 l 1077 236 l 534 236 l 322 -37 l 247 22 l 412 236 l 181 236 l 181 325 l 483 325 l 658 550 l 181 550 l 181 638 l 727 638 l 912 877 "},"튀":{"x_min":50,"x_max":1108.328125,"ha":1250,"o":"m 381 202 l 316 202 l 50 201 l 50 315 l 263 315 q 427 318 338 315 q 604 325 516 320 q 767 336 690 330 q 898 348 844 341 l 898 237 q 741 220 840 229 q 534 208 643 212 l 534 -137 l 381 -137 l 381 202 m 308 787 l 725 787 l 725 675 l 308 675 l 308 556 l 763 556 l 763 444 l 169 444 l 169 1020 l 734 1020 l 734 902 l 308 902 l 308 787 m 1108 -170 l 963 -170 l 963 1070 l 1108 1070 l 1108 -170 "},"〈":{"x_min":141.671875,"x_max":573.609375,"ha":625,"o":"m 243 416 l 570 -170 l 494 -219 l 141 416 l 494 1055 l 573 1009 l 243 416 "},"잉":{"x_min":68.0625,"x_max":1106.953125,"ha":1250,"o":"m 395 1037 q 521 1012 462 1037 q 625 944 580 987 q 695 843 669 901 q 722 720 722 786 q 695 597 722 655 q 625 497 669 540 q 521 429 580 454 q 395 405 462 405 q 268 429 327 405 q 163 497 208 454 q 93 597 119 540 q 68 720 68 655 q 93 843 68 786 q 163 944 119 901 q 268 1012 208 987 q 395 1037 327 1037 m 395 912 q 266 856 319 912 q 213 720 213 800 q 266 585 213 640 q 395 530 319 530 q 523 585 470 530 q 576 720 576 640 q 523 856 576 800 q 395 912 470 912 m 963 283 l 963 1072 l 1106 1072 l 1106 283 l 963 283 m 756 -283 q 631 -261 690 -283 q 530 -198 573 -238 q 462 -106 487 -159 q 437 6 437 -54 q 462 120 437 66 q 530 212 487 173 q 631 275 573 252 q 756 298 690 298 q 880 275 822 298 q 981 212 938 252 q 1050 120 1025 173 q 1076 6 1076 66 q 1050 -106 1076 -54 q 981 -198 1025 -159 q 880 -261 938 -238 q 756 -283 822 -283 m 931 6 q 881 128 931 77 q 756 179 830 179 q 629 128 681 179 q 577 6 577 77 q 627 -113 577 -63 q 752 -162 677 -162 q 879 -113 826 -162 q 931 6 931 -63 "},"존":{"x_min":29.171875,"x_max":1220.828125,"ha":1250,"o":"m 241 172 l 393 172 l 393 -91 l 1034 -91 l 1034 -208 l 241 -208 l 241 172 m 554 369 l 554 561 l 704 561 l 704 369 l 1220 369 l 1220 255 l 29 255 l 29 369 l 554 369 m 913 918 q 837 826 879 869 q 750 745 795 783 q 922 674 827 706 q 1108 625 1018 641 l 1045 511 q 843 577 951 533 q 647 673 734 622 q 434 567 547 611 q 208 500 320 523 l 145 598 q 309 643 226 613 q 469 713 393 673 q 610 804 545 754 q 719 915 675 855 l 250 915 l 250 1030 l 913 1030 l 913 918 "},"쇗":{"x_min":20.828125,"x_max":1168.0625,"ha":1250,"o":"m 319 425 l 319 600 l 458 600 l 458 431 q 601 441 534 436 q 716 452 668 447 l 716 343 q 602 329 672 336 q 452 319 533 323 q 290 310 373 313 q 134 306 206 306 l 20 305 l 20 419 l 80 419 q 195 420 134 419 q 319 425 256 422 m 1030 580 l 897 580 l 897 258 l 765 258 l 765 1055 l 897 1055 l 897 700 l 1030 700 l 1030 1069 l 1168 1069 l 1168 215 l 1030 215 l 1030 580 m 133 569 l 55 659 q 156 710 106 677 q 243 790 205 743 q 293 877 273 829 q 313 984 313 926 l 313 1043 l 456 1043 l 456 984 q 474 881 456 929 q 525 794 491 833 q 601 722 556 752 q 700 673 645 693 l 641 577 q 568 608 606 588 q 497 656 530 627 q 433 712 462 681 q 388 779 404 743 q 347 716 373 747 q 290 661 322 686 q 210 603 252 627 q 133 569 168 579 m 633 211 l 794 211 l 794 151 q 824 51 794 98 q 900 -34 854 4 q 1011 -108 950 -77 q 1131 -155 1073 -138 l 1061 -248 q 961 -213 1013 -237 q 863 -159 909 -190 q 777 -95 815 -130 q 716 -22 738 -59 q 659 -90 697 -55 q 576 -154 622 -125 q 472 -211 526 -186 q 368 -248 418 -236 l 294 -155 q 413 -108 351 -138 q 526 -36 476 -77 q 603 50 573 2 q 633 151 633 97 l 633 211 "},"곧":{"x_min":30.5625,"x_max":1220.828125,"ha":1250,"o":"m 477 468 l 477 725 l 622 725 l 622 468 l 1220 468 l 1220 354 l 30 354 l 30 468 l 477 468 m 237 213 l 1011 213 l 1011 97 l 379 97 l 379 -98 l 1022 -98 l 1022 -209 l 237 -209 l 237 213 m 966 554 l 819 554 q 837 631 827 584 q 855 729 847 679 q 865 828 862 780 q 868 909 869 876 l 230 909 l 230 1030 l 1020 1030 q 1018 913 1022 979 q 1005 780 1013 848 q 988 659 998 718 q 966 554 979 600 "},"잘":{"x_min":22.21875,"x_max":1252.78125,"ha":1250,"o":"m 334 120 l 904 120 l 904 226 l 334 226 l 334 334 l 1059 334 l 1059 15 l 491 15 l 491 -100 l 1090 -100 l 1090 -212 l 334 -212 l 334 120 m 1063 808 l 1252 808 l 1252 686 l 1063 686 l 1063 397 l 919 397 l 919 1070 l 1063 1070 l 1063 808 m 648 904 q 600 792 630 845 q 530 691 570 738 q 665 609 593 643 q 813 551 738 575 l 743 434 q 587 506 663 461 q 448 605 511 551 q 280 483 372 536 q 93 395 188 430 l 22 493 q 172 559 98 518 q 309 655 247 601 q 418 770 372 708 q 484 901 463 833 l 108 901 l 108 1018 l 648 1018 l 648 904 "},"좼":{"x_min":20.828125,"x_max":1236.109375,"ha":1250,"o":"m 320 420 l 320 588 l 459 588 l 459 427 q 601 437 534 431 q 716 448 668 443 l 716 338 q 602 325 672 331 q 452 313 533 319 q 290 306 373 309 q 134 302 206 302 l 20 301 l 20 415 l 80 415 q 196 416 134 415 q 320 420 258 418 m 1030 573 l 897 573 l 897 251 l 765 251 l 765 1055 l 897 1055 l 897 693 l 1030 693 l 1030 1069 l 1168 1069 l 1168 251 l 1030 251 l 1030 573 m 736 -241 q 665 -203 698 -225 q 608 -158 633 -181 q 561 -113 580 -136 q 529 -65 541 -90 q 494 -110 513 -88 q 451 -152 475 -131 q 385 -200 420 -177 q 309 -241 350 -223 l 231 -152 q 333 -90 290 -123 q 404 -19 376 -58 q 442 59 429 16 q 455 154 455 102 l 455 191 l 600 191 l 600 156 q 613 59 600 106 q 652 -25 626 12 q 689 -66 669 -47 q 734 -102 709 -86 q 783 -63 761 -84 q 822 -16 805 -41 q 858 64 845 20 q 870 156 870 108 l 870 191 l 1016 191 l 1016 154 q 1028 57 1016 102 q 1068 -25 1040 12 q 1136 -95 1094 -63 q 1236 -152 1177 -127 l 1166 -241 q 1090 -204 1126 -226 q 1026 -158 1055 -183 q 976 -109 997 -133 q 945 -63 955 -84 q 917 -104 933 -84 q 880 -144 901 -125 q 812 -196 850 -172 q 736 -241 775 -220 m 575 912 q 530 840 554 875 q 477 775 506 805 q 588 713 527 741 q 712 663 650 684 l 650 559 q 520 620 587 580 q 401 701 452 659 q 263 607 336 647 q 119 545 191 568 l 50 634 q 161 678 105 651 q 265 741 216 705 q 355 819 315 776 q 423 911 395 862 l 131 911 l 131 1026 l 575 1026 l 575 912 "},"쁠":{"x_min":30.5625,"x_max":1219.453125,"ha":1250,"o":"m 338 816 l 338 697 l 556 697 l 556 816 l 338 816 m 693 816 l 693 697 l 908 697 l 908 816 l 693 816 m 693 1052 l 693 926 l 908 926 l 908 1052 l 1045 1052 l 1045 587 l 202 587 l 202 1052 l 338 1052 l 338 926 l 556 926 l 556 1052 l 693 1052 m 30 380 l 30 491 l 1219 491 l 1219 380 l 30 380 m 237 87 l 855 87 l 855 172 l 237 172 l 237 281 l 1009 281 l 1009 -15 l 393 -15 l 393 -102 l 1036 -102 l 1036 -212 l 237 -212 l 237 87 "},"돔":{"x_min":30.5625,"x_max":1219.453125,"ha":1250,"o":"m 552 593 l 236 593 l 236 1029 l 1016 1029 l 1016 911 l 379 911 l 379 706 l 1029 706 l 1029 593 l 702 593 l 702 437 l 1219 437 l 1219 320 l 30 320 l 30 437 l 552 437 l 552 593 m 237 193 l 1012 193 l 1012 -213 l 237 -213 l 237 193 m 383 80 l 383 -100 l 862 -100 l 862 80 l 383 80 "},"끔":{"x_min":30.5625,"x_max":1220.828125,"ha":1250,"o":"m 237 245 l 1012 245 l 1012 -213 l 237 -213 l 237 245 m 383 131 l 383 -100 l 862 -100 l 862 131 l 383 131 m 563 905 q 552 812 559 863 q 534 708 544 761 q 509 607 523 656 q 480 520 495 558 l 798 520 q 827 608 813 559 q 851 708 841 656 q 868 811 862 761 q 875 905 873 862 l 563 905 m 1020 1026 q 1014 891 1020 961 q 998 755 1008 822 q 972 628 987 688 q 943 520 958 568 l 1220 520 l 1220 405 l 30 405 l 30 520 l 333 520 q 364 608 350 558 q 391 711 379 658 q 409 814 402 763 q 418 905 416 865 l 179 905 l 179 1026 l 1020 1026 "},"캐":{"x_min":41.671875,"x_max":1136.109375,"ha":1250,"o":"m 995 663 l 995 1069 l 1136 1069 l 1136 -170 l 995 -170 l 995 530 l 843 530 l 843 -123 l 706 -123 l 706 1050 l 843 1050 l 843 663 l 995 663 m 351 543 q 268 534 313 536 q 188 534 223 533 l 91 534 l 91 651 l 198 651 q 297 651 240 650 q 400 661 354 652 q 427 770 416 715 q 443 881 438 825 l 106 881 l 106 1000 l 588 1000 q 557 727 588 858 q 468 484 526 597 q 325 276 409 370 q 136 111 241 181 l 41 191 q 219 346 141 255 q 351 543 297 437 "},"톨":{"x_min":29.171875,"x_max":1219.453125,"ha":1250,"o":"m 552 566 l 234 566 l 234 1041 l 1011 1041 l 1011 936 l 388 936 l 388 856 l 1005 856 l 1005 755 l 390 755 l 390 675 l 1037 675 l 1037 566 l 702 566 l 702 463 l 1219 463 l 1219 359 l 29 359 l 29 463 l 552 463 l 552 566 m 237 81 l 856 81 l 856 169 l 237 169 l 237 273 l 1011 273 l 1011 -16 l 393 -16 l 393 -108 l 1037 -108 l 1037 -212 l 237 -212 l 237 81 "},"탕":{"x_min":87.5,"x_max":1252.78125,"ha":1250,"o":"m 1063 765 l 1252 765 l 1252 645 l 1063 645 l 1063 288 l 919 288 l 919 1070 l 1063 1070 l 1063 765 m 236 912 l 236 761 l 651 761 l 651 651 l 236 651 l 236 488 l 356 490 q 463 490 404 488 q 586 497 522 493 q 711 506 648 501 q 830 519 775 512 l 830 406 q 713 392 781 398 q 575 380 644 386 q 442 373 505 376 q 341 370 379 370 l 87 370 l 87 1023 l 661 1023 l 661 912 l 236 912 m 713 -283 q 589 -261 647 -283 q 487 -198 531 -238 q 419 -106 444 -159 q 394 6 394 -54 q 419 120 394 66 q 487 212 444 173 q 589 275 531 252 q 713 298 647 298 q 838 275 780 298 q 940 212 895 252 q 1008 120 983 173 q 1033 6 1033 66 q 1008 -106 1033 -54 q 940 -198 983 -159 q 838 -261 895 -238 q 713 -283 780 -283 m 713 179 q 586 128 638 179 q 534 6 534 77 q 584 -113 534 -63 q 708 -162 633 -162 q 836 -113 783 -162 q 890 6 890 -63 q 839 128 890 77 q 713 179 788 179 "},"쏢":{"x_min":29.171875,"x_max":1219.453125,"ha":1250,"o":"m 627 743 q 679 787 656 763 q 719 838 702 811 q 752 917 741 875 q 763 1005 763 959 l 763 1045 l 913 1045 l 913 1001 q 925 907 913 951 q 965 826 936 863 q 1031 756 990 788 q 1130 697 1072 723 l 1058 609 q 988 642 1023 620 q 925 688 954 663 q 872 740 894 713 q 841 791 850 768 q 754 687 815 736 q 633 612 694 638 l 702 612 l 702 509 l 1219 509 l 1219 395 l 29 395 l 29 509 l 552 509 l 552 612 l 620 612 q 500 692 558 641 q 418 791 443 743 q 331 691 393 741 q 195 609 270 641 l 118 697 q 223 758 180 722 q 294 836 266 794 q 329 915 318 873 q 341 1001 341 956 l 341 1045 l 491 1045 l 491 1005 q 500 920 491 962 q 531 841 509 877 q 570 788 547 812 q 627 743 594 763 m 222 100 l 463 100 l 463 188 l 222 188 l 222 298 l 597 298 l 597 -5 l 355 -5 l 355 -101 l 422 -101 q 516 -98 459 -101 q 626 -88 573 -95 l 626 -198 q 488 -209 563 -205 q 354 -213 413 -213 l 222 -213 l 222 100 m 680 -212 l 680 298 l 1043 298 l 1043 -212 l 680 -212 m 809 195 l 809 -108 l 913 -108 l 913 195 l 809 195 "},"▥":{"x_min":83.328125,"x_max":1165.28125,"ha":1250,"o":"m 83 -125 l 83 958 l 1165 958 l 1165 -125 l 83 -125 m 1111 904 l 919 904 l 919 -70 l 1111 -70 l 1111 904 m 865 904 l 652 904 l 652 -70 l 865 -70 l 865 904 m 595 904 l 383 904 l 383 -70 l 595 -70 l 595 904 m 330 904 l 137 904 l 137 -70 l 330 -70 l 330 904 "},"ⓢ":{"x_min":40.28125,"x_max":1209.71875,"ha":1250,"o":"m 625 1008 q 852 961 745 1008 q 1037 834 958 913 q 1163 646 1116 754 q 1209 416 1209 538 q 1163 185 1209 293 q 1037 -2 1116 77 q 852 -128 958 -81 q 625 -175 745 -175 q 397 -128 504 -175 q 211 -2 290 -81 q 86 185 131 77 q 40 416 40 293 q 86 646 40 538 q 211 834 131 754 q 397 961 290 913 q 625 1008 504 1008 l 625 1008 m 625 955 q 418 912 515 955 q 251 797 322 869 q 138 625 179 723 q 97 416 97 527 q 138 206 97 304 q 251 34 179 108 q 418 -79 322 -37 q 625 -122 515 -122 q 829 -79 733 -122 q 997 34 926 -37 q 1111 206 1069 108 q 1152 416 1152 304 q 1111 625 1152 527 q 997 797 1069 723 q 829 912 926 869 q 625 955 733 955 l 625 955 m 487 308 q 527 232 491 261 q 631 204 562 204 q 716 224 686 204 q 754 280 747 244 q 744 323 758 301 q 701 358 730 345 q 652 373 677 366 q 602 387 627 380 q 556 398 579 393 q 518 412 534 404 q 437 466 468 429 q 411 561 406 504 q 470 668 415 619 q 626 718 526 718 q 721 701 680 718 q 788 658 762 684 q 829 602 816 633 q 841 545 841 572 l 743 545 q 738 570 743 555 q 720 598 734 584 q 683 620 706 611 q 622 630 659 630 q 535 604 559 630 q 511 555 511 579 q 529 505 509 519 q 583 481 550 491 q 621 469 598 475 q 669 456 644 463 q 719 442 694 450 q 766 425 744 434 q 832 373 804 408 q 859 286 861 338 q 789 162 854 211 q 633 113 725 113 q 515 134 562 113 q 440 186 468 155 q 401 250 412 216 q 390 308 390 283 l 487 308 "},"체":{"x_min":1.390625,"x_max":1136.109375,"ha":1250,"o":"m 995 -170 l 995 1069 l 1136 1069 l 1136 -170 l 995 -170 m 729 637 l 729 1050 l 863 1050 l 863 -123 l 729 -123 l 729 519 l 547 519 l 547 637 l 729 637 m 259 891 l 259 1095 l 394 1095 l 394 891 l 529 891 l 529 775 q 493 628 516 700 q 433 488 469 556 q 540 361 481 422 q 669 254 598 301 l 576 150 q 461 256 518 195 q 365 376 405 318 q 241 233 311 300 q 90 113 172 166 l 1 197 q 145 311 79 245 q 259 451 211 376 q 341 609 309 527 q 386 773 373 691 l 76 773 l 76 891 l 259 891 "},"자":{"x_min":25,"x_max":1254.171875,"ha":1250,"o":"m 1063 640 l 1254 640 l 1254 522 l 1063 522 l 1063 -170 l 920 -170 l 920 1069 l 1063 1069 l 1063 640 m 534 541 q 673 395 591 466 q 848 270 755 323 l 751 159 q 596 284 672 211 q 462 433 520 358 q 301 257 391 337 q 112 119 211 177 l 25 208 q 197 332 116 258 q 343 495 279 406 q 447 682 405 584 q 504 877 490 780 l 125 877 l 125 1001 l 656 1001 l 656 887 q 613 709 644 795 q 534 541 581 622 "},"8":{"x_min":51.390625,"x_max":720.828125,"ha":772,"o":"m 519 515 q 670 402 619 476 q 720 244 720 327 q 697 130 720 183 q 631 38 675 77 q 526 -23 588 -1 q 384 -45 463 -45 q 243 -22 305 -45 q 138 40 180 0 q 73 131 95 79 q 51 244 51 184 q 98 400 51 326 q 248 515 145 473 q 125 614 165 552 q 86 750 86 676 q 108 859 86 809 q 170 945 130 909 q 265 1000 211 980 q 384 1020 319 1020 q 503 1000 448 1020 q 600 945 558 980 q 663 859 640 909 q 686 750 686 809 q 644 613 686 675 q 519 515 602 552 m 384 576 q 456 591 426 576 q 506 630 487 606 q 536 686 526 655 q 545 748 545 716 q 535 806 545 776 q 504 861 525 836 q 454 902 484 886 q 384 918 423 918 q 314 901 344 918 q 265 859 284 884 q 236 804 245 834 q 226 748 226 775 q 236 687 226 718 q 268 631 247 656 q 318 591 288 606 q 384 576 347 576 m 384 63 q 518 121 468 63 q 568 262 568 179 q 553 336 568 300 q 515 400 538 372 q 456 445 490 427 q 384 462 423 462 q 312 445 345 462 q 255 401 279 429 q 216 338 230 375 q 202 262 202 301 q 215 186 202 222 q 252 123 229 150 q 309 79 276 95 q 384 63 343 63 "},"펴":{"x_min":81.9375,"x_max":1108.328125,"ha":1250,"o":"m 656 884 l 652 281 q 767 288 711 284 q 870 295 823 291 l 870 179 q 737 168 815 172 q 576 159 659 163 q 413 154 493 156 q 277 152 334 152 l 81 152 l 81 270 l 230 270 l 226 884 l 113 884 l 113 1000 l 768 1000 l 768 884 l 656 884 m 525 884 l 359 884 l 365 270 q 400 271 381 270 q 440 273 419 272 q 479 274 459 273 q 520 276 500 275 l 525 884 m 963 794 l 963 1070 l 1108 1070 l 1108 -170 l 963 -170 l 963 427 l 733 427 l 733 541 l 963 541 l 963 680 l 733 680 l 733 794 l 963 794 "},"씬":{"x_min":16.671875,"x_max":1138.890625,"ha":1250,"o":"m 455 316 q 358 427 405 358 q 290 562 311 495 q 213 429 265 497 q 108 315 161 361 l 16 402 q 124 525 83 461 q 188 661 165 588 q 213 795 206 723 q 219 950 219 866 l 219 1023 l 363 1023 l 363 950 q 366 800 362 872 q 388 663 370 729 q 414 586 398 623 q 454 512 430 548 q 495 587 479 548 q 523 668 512 626 q 544 803 540 731 q 548 950 548 875 l 548 1023 l 691 1023 l 691 950 q 695 804 690 875 q 718 669 700 733 q 775 536 737 598 q 880 425 813 475 l 809 331 q 749 381 779 352 q 694 440 719 409 q 651 504 669 472 q 625 565 633 536 q 597 497 615 533 q 556 429 579 462 q 506 365 533 395 q 455 316 480 336 m 377 184 l 523 184 l 523 -93 l 1138 -93 l 1138 -211 l 377 -211 l 377 184 m 963 129 l 963 1072 l 1106 1072 l 1106 129 l 963 129 "},"쭘":{"x_min":30.5625,"x_max":1220.828125,"ha":1250,"o":"m 551 344 l 30 344 l 30 461 l 1220 461 l 1220 344 l 705 344 l 705 193 l 1012 193 l 1012 -213 l 237 -213 l 237 193 l 551 193 l 551 344 m 383 80 l 383 -100 l 862 -100 l 862 80 l 383 80 m 965 1037 l 965 931 q 940 855 955 893 q 905 781 925 818 q 1011 714 951 745 q 1130 662 1072 683 l 1059 556 q 940 615 997 580 q 838 690 884 650 q 724 581 788 629 q 584 501 659 533 l 518 581 q 547 596 533 588 q 577 612 562 604 q 504 662 541 634 q 434 718 468 690 q 317 631 380 668 q 190 573 254 594 l 125 659 q 313 766 230 695 q 426 929 397 837 l 201 929 l 201 1037 l 965 1037 m 686 694 q 770 804 736 744 q 820 929 805 865 l 577 929 q 547 863 565 895 q 509 802 530 831 q 593 743 547 772 q 686 694 638 715 "},"균":{"x_min":30.5625,"x_max":1220.828125,"ha":1250,"o":"m 808 511 q 829 618 819 561 q 845 729 838 675 q 855 830 852 783 q 856 908 858 877 l 231 908 l 231 1029 l 1009 1029 q 1008 969 1009 1004 q 1004 895 1006 934 q 999 819 1002 858 q 991 748 995 780 q 975 627 984 691 q 952 511 965 563 l 1220 511 l 1220 394 l 912 394 l 912 70 l 769 70 l 769 394 l 620 394 l 620 70 l 479 70 l 479 394 l 30 394 l 30 511 l 808 511 m 237 195 l 388 195 l 388 -90 l 1034 -90 l 1034 -208 l 237 -208 l 237 195 "},"엶":{"x_min":55.5625,"x_max":1106.953125,"ha":1250,"o":"m 963 930 l 963 1072 l 1106 1072 l 1106 394 l 963 394 l 963 547 l 747 547 l 747 659 l 963 659 l 963 816 l 750 816 l 750 930 l 963 930 m 279 116 l 520 116 l 520 219 l 279 219 l 279 327 l 652 327 l 652 9 l 413 9 l 413 -101 l 479 -101 q 574 -98 516 -101 q 683 -88 631 -95 l 683 -198 q 546 -209 620 -205 q 411 -213 472 -213 l 279 -213 l 279 116 m 383 1051 q 509 1026 450 1051 q 613 959 569 1001 q 684 859 658 916 q 709 738 709 802 q 684 616 709 673 q 613 518 658 559 q 509 450 569 475 q 383 426 450 426 q 255 450 315 426 q 151 518 195 475 q 81 616 106 559 q 55 738 55 673 q 81 859 55 802 q 151 959 106 916 q 255 1026 195 1001 q 383 1051 315 1051 m 383 926 q 254 872 306 926 q 201 738 201 818 q 254 604 201 658 q 383 551 306 551 q 511 604 458 551 q 565 738 565 658 q 511 872 565 818 q 383 926 458 926 m 740 -212 l 740 327 l 1101 327 l 1101 -212 l 740 -212 m 868 226 l 868 -108 l 972 -108 l 972 226 l 868 226 "},"쓿":{"x_min":30.5625,"x_max":1220.828125,"ha":1250,"o":"m 626 609 q 503 689 563 637 q 418 791 443 741 q 331 691 393 741 q 195 609 270 641 l 118 697 q 223 758 180 722 q 294 836 266 794 q 329 915 318 873 q 341 1001 341 956 l 341 1045 l 491 1045 l 491 1005 q 500 920 491 962 q 531 841 509 877 q 570 788 547 812 q 627 743 594 763 q 679 787 656 763 q 719 838 702 811 q 752 917 741 875 q 763 1005 763 959 l 763 1045 l 913 1045 l 913 1001 q 925 907 913 951 q 965 826 936 863 q 1031 756 990 788 q 1130 697 1072 723 l 1058 609 q 988 642 1023 620 q 925 688 954 663 q 872 740 894 713 q 841 791 850 768 q 751 684 813 734 q 626 609 688 634 m 30 418 l 30 529 l 1220 529 l 1220 418 l 30 418 m 212 90 l 461 90 l 461 183 l 212 183 l 212 291 l 594 291 l 594 -12 l 348 -12 l 348 -102 l 418 -102 q 512 -100 455 -102 q 622 -90 569 -97 l 622 -198 q 485 -209 559 -205 q 350 -213 411 -213 l 212 -213 l 212 90 m 1041 81 q 1085 23 1068 58 q 1102 -48 1102 -11 q 1040 -195 1102 -137 q 884 -252 977 -252 q 728 -194 790 -252 q 666 -48 666 -136 q 684 24 666 -12 q 726 81 701 61 l 638 81 l 638 190 l 815 190 l 815 331 l 954 331 l 954 190 l 1130 190 l 1130 81 l 1041 81 m 884 70 q 817 37 843 70 q 791 -40 791 4 q 817 -118 791 -87 q 884 -150 843 -150 q 950 -118 922 -150 q 979 -40 979 -87 q 952 36 979 2 q 884 70 925 70 "},"㏖":{"x_min":104.171875,"x_max":1141.671875,"ha":1250,"o":"m 580 281 q 593 438 580 366 q 630 563 605 511 q 692 645 655 615 q 777 675 729 675 q 861 645 825 675 q 923 563 898 615 q 960 438 947 511 q 973 281 973 366 q 960 123 973 195 q 923 -1 947 51 q 861 -83 898 -54 q 777 -112 825 -112 q 692 -83 729 -112 q 630 -1 655 -54 q 593 123 605 51 q 580 281 580 195 l 580 281 m 777 565 q 701 486 729 565 q 673 281 673 406 q 701 77 673 156 q 777 -2 729 -2 q 852 77 823 -2 q 881 281 881 156 q 852 486 881 406 q 777 565 823 565 l 777 565 m 190 626 q 216 652 201 641 q 247 662 231 662 q 297 645 280 662 q 323 606 315 627 q 356 648 336 631 q 408 665 376 665 q 495 604 469 665 q 522 423 522 543 l 522 -84 l 431 -84 l 431 413 q 421 522 431 491 q 398 552 411 552 q 373 519 386 552 q 361 413 361 486 l 361 -84 l 269 -84 l 269 420 q 257 529 269 506 q 230 552 245 552 q 206 523 218 551 q 195 420 195 495 l 195 -84 l 104 -84 l 104 648 l 190 648 l 190 626 m 1141 929 l 1141 -84 l 1037 -84 l 1037 929 l 1141 929 "},"찢":{"x_min":29.171875,"x_max":1150,"ha":1250,"o":"m 963 344 l 963 1072 l 1106 1072 l 1106 344 l 963 344 m 644 161 l 341 161 l 341 276 l 1100 276 l 1100 161 l 795 161 q 830 53 798 102 q 909 -34 862 4 q 1027 -109 962 -79 q 1150 -155 1091 -138 l 1075 -245 q 977 -211 1026 -233 q 883 -159 929 -188 q 790 -90 833 -129 q 722 -9 748 -51 q 654 -86 694 -50 q 569 -151 615 -122 q 466 -206 519 -181 q 363 -245 413 -230 l 283 -155 q 409 -107 343 -138 q 531 -30 476 -76 q 610 54 579 6 q 644 161 641 102 m 368 716 q 428 654 395 683 q 498 602 461 625 q 574 746 545 670 q 611 897 602 822 l 437 897 q 410 805 427 851 q 368 716 393 759 m 419 509 q 356 563 386 534 q 302 622 327 593 q 213 530 261 572 q 113 458 165 488 l 29 534 q 204 693 131 597 q 295 897 277 790 l 97 897 l 97 1015 l 751 1015 l 751 898 q 729 790 744 844 q 691 686 713 737 q 784 600 733 641 q 888 530 834 559 l 806 429 q 715 497 761 458 q 633 579 670 536 q 528 449 587 508 q 400 348 469 390 l 309 423 q 366 463 338 441 q 419 509 394 484 "},"납":{"x_min":116.671875,"x_max":1252.78125,"ha":1250,"o":"m 1063 797 l 1252 797 l 1252 675 l 1063 675 l 1063 370 l 919 370 l 919 1070 l 1063 1070 l 1063 797 m 830 604 l 830 491 q 722 475 788 483 q 586 461 656 466 q 446 452 515 455 q 330 448 377 448 l 116 448 l 116 1029 l 263 1029 l 263 566 l 391 568 q 500 570 443 568 q 616 577 558 573 q 728 589 673 583 q 830 604 783 595 m 334 304 l 480 304 l 480 165 l 913 165 l 913 304 l 1058 304 l 1058 -211 l 334 -211 l 334 304 m 913 51 l 480 51 l 480 -97 l 913 -97 l 913 51 "},"침":{"x_min":30.5625,"x_max":1106.953125,"ha":1250,"o":"m 963 305 l 963 1072 l 1106 1072 l 1106 305 l 963 305 m 380 -211 l 380 238 l 1102 238 l 1102 -211 l 380 -211 m 526 123 l 526 -97 l 956 -97 l 956 123 l 526 123 m 326 936 l 326 1111 l 472 1111 l 472 936 l 647 936 l 647 844 q 605 731 631 786 q 544 629 579 677 q 665 533 595 576 q 811 465 734 490 l 740 351 q 594 424 669 375 q 461 533 519 473 q 300 404 390 461 q 115 312 211 348 l 30 405 q 178 474 105 431 q 312 569 251 516 q 420 686 375 623 q 487 818 465 748 l 105 818 l 105 936 l 326 936 "},"휠":{"x_min":27.78125,"x_max":1125,"ha":1250,"o":"m 347 388 l 316 388 l 27 387 l 27 501 l 263 501 q 427 504 338 501 q 604 511 516 506 q 767 522 690 516 q 898 534 844 527 l 898 423 q 723 406 834 415 q 495 393 612 397 l 495 297 l 347 297 l 347 388 m 355 73 l 940 73 l 940 137 l 355 137 l 355 247 l 1097 247 l 1097 -31 l 513 -31 l 513 -100 l 1125 -100 l 1125 -212 l 355 -212 l 355 73 m 1108 305 l 965 305 l 965 1070 l 1108 1070 l 1108 305 m 433 879 q 322 843 365 879 q 279 761 279 808 q 322 677 279 709 q 433 645 366 645 q 545 678 501 645 q 590 761 590 711 q 546 843 590 806 q 433 879 502 879 m 361 994 l 361 1112 l 509 1112 l 509 994 l 802 994 l 802 883 l 650 883 q 709 828 683 866 q 734 752 734 790 q 713 670 734 709 q 654 602 693 631 q 561 554 616 572 q 436 537 505 537 q 314 554 369 537 q 219 601 259 570 q 158 669 180 630 q 136 752 136 708 q 160 828 136 791 q 216 883 184 865 l 56 883 l 56 994 l 361 994 "},"버":{"x_min":125,"x_max":1108.328125,"ha":1250,"o":"m 963 666 l 963 1070 l 1108 1070 l 1108 -170 l 963 -170 l 963 544 l 754 544 l 754 666 l 963 666 m 125 147 l 125 1016 l 268 1016 l 268 701 l 548 701 l 548 1016 l 691 1016 l 691 147 l 125 147 m 268 586 l 268 266 l 548 266 l 548 586 l 268 586 "},"땀":{"x_min":72.21875,"x_max":1252.78125,"ha":1250,"o":"m 1063 776 l 1252 776 l 1252 655 l 1063 655 l 1063 311 l 919 311 l 919 1070 l 1063 1070 l 1063 776 m 452 1015 l 784 1015 l 784 898 l 590 898 l 590 518 q 722 524 651 518 q 852 541 793 530 l 852 426 q 787 415 825 420 q 708 406 750 411 q 624 400 666 402 q 547 398 581 398 l 452 398 l 452 1015 m 72 404 l 72 1015 l 388 1015 l 388 898 l 206 898 l 206 522 q 308 525 252 522 q 406 540 363 529 l 406 426 q 281 411 356 418 q 147 404 206 404 l 72 404 m 337 -211 l 337 240 l 1059 240 l 1059 -211 l 337 -211 m 483 125 l 483 -97 l 915 -97 l 915 125 l 483 125 "},"쀼":{"x_min":33.328125,"x_max":1213.890625,"ha":1250,"o":"m 343 194 l 33 194 l 33 306 l 1213 306 l 1213 194 l 908 194 l 908 -186 l 758 -186 l 758 194 l 494 194 l 494 -186 l 343 -186 l 343 194 m 693 850 l 900 850 l 900 1036 l 1038 1036 l 1038 436 l 209 436 l 209 1036 l 345 1036 l 345 850 l 556 850 l 556 1036 l 693 1036 l 693 850 m 693 738 l 693 548 l 900 548 l 900 738 l 693 738 m 345 738 l 345 548 l 556 548 l 556 738 l 345 738 "},"확":{"x_min":23.609375,"x_max":1254.171875,"ha":1250,"o":"m 1063 576 l 1063 250 l 919 250 l 919 1070 l 1063 1070 l 1063 701 l 1254 701 l 1254 576 l 1063 576 m 415 852 q 306 813 351 852 q 261 716 261 773 q 306 618 261 655 q 415 580 352 580 q 524 618 477 580 q 570 716 570 655 q 525 813 570 773 q 415 852 479 852 m 300 70 l 300 184 l 1061 184 l 1061 -225 l 916 -225 l 916 70 l 300 70 m 341 962 l 341 1112 l 490 1112 l 490 962 l 779 962 l 779 850 l 638 850 q 691 789 668 827 q 715 709 715 751 q 654 563 715 629 q 494 476 593 497 l 494 394 q 694 405 598 398 q 854 420 790 412 l 854 309 q 740 296 809 302 q 591 286 670 290 q 427 277 511 280 q 272 275 344 275 l 23 273 l 23 387 l 219 387 q 278 387 248 387 q 341 388 308 387 l 341 475 q 181 562 245 495 q 118 709 118 629 q 140 791 118 752 q 191 850 162 830 l 43 850 l 43 962 l 341 962 "},"쏙":{"x_min":30.5625,"x_max":1220.828125,"ha":1250,"o":"m 626 568 q 563 603 594 581 q 502 651 531 625 q 452 704 475 677 q 418 756 430 731 q 331 653 393 706 q 195 568 270 600 l 118 654 q 228 722 183 683 q 300 809 273 762 q 331 888 320 847 q 341 975 341 930 l 341 1038 l 491 1038 l 491 980 q 500 891 491 934 q 529 811 508 848 q 568 753 544 780 q 626 704 593 726 q 685 756 659 726 q 727 819 711 786 q 754 896 745 855 q 763 980 763 937 l 763 1038 l 913 1038 l 913 975 q 923 883 913 927 q 956 801 933 838 q 1025 721 981 758 q 1130 654 1068 684 l 1058 568 q 988 601 1023 579 q 925 650 954 623 q 872 704 894 676 q 841 756 850 733 q 751 645 813 698 q 626 568 688 593 m 552 437 l 552 552 l 702 552 l 702 437 l 1220 437 l 1220 320 l 30 320 l 30 437 l 552 437 m 225 69 l 225 184 l 1013 184 l 1013 -234 l 868 -234 l 868 69 l 225 69 "},"풔":{"x_min":48.609375,"x_max":1108.328125,"ha":1250,"o":"m 663 895 l 659 620 l 793 620 l 793 505 l 119 505 l 119 620 l 256 620 l 254 895 l 144 895 l 144 1011 l 763 1011 l 763 895 l 663 895 m 534 895 l 380 895 l 383 620 l 530 620 l 534 895 m 963 66 l 693 66 l 693 180 l 963 180 l 963 1070 l 1108 1070 l 1108 -170 l 963 -170 l 963 66 m 375 275 q 345 273 359 273 q 316 273 330 273 l 48 272 l 48 387 l 263 387 q 427 390 338 387 q 604 397 516 393 q 767 407 690 401 q 898 420 844 413 l 898 308 q 738 292 840 300 q 529 279 637 284 l 529 -125 l 375 -125 l 375 275 "},"⒠":{"x_min":37.5,"x_max":1212.5,"ha":1250,"o":"m 37 416 q 55 606 37 520 q 101 762 73 693 q 161 886 127 833 q 223 979 194 940 l 276 979 q 152 704 186 850 q 119 416 119 559 q 154 127 119 269 q 276 -145 188 -15 l 223 -145 q 161 -56 194 -109 q 101 66 129 -2 q 55 224 73 137 q 37 416 37 311 l 37 416 m 1212 416 q 1193 224 1212 311 q 1147 66 1175 137 q 1086 -56 1119 -2 q 1026 -145 1054 -109 l 973 -145 q 1096 127 1061 -15 q 1131 416 1131 269 q 1097 704 1131 559 q 973 979 1062 850 l 1026 979 q 1088 886 1055 940 q 1148 762 1120 833 q 1193 606 1175 693 q 1212 416 1212 520 l 1212 416 m 623 754 q 729 730 679 754 q 818 661 779 706 q 877 543 855 613 q 897 379 898 473 l 456 379 q 472 297 458 336 q 508 231 486 259 q 561 186 531 202 q 623 170 590 170 q 722 202 690 170 q 765 265 755 233 l 877 265 q 849 197 868 231 q 800 137 830 163 q 727 93 770 109 q 626 76 684 76 q 514 102 565 76 q 427 175 463 129 q 370 282 390 220 q 350 415 350 344 q 368 546 350 484 q 423 654 387 608 q 510 727 459 700 q 623 754 561 754 l 623 754 m 459 468 l 787 468 q 740 602 783 544 q 623 659 697 659 q 510 606 554 659 q 459 468 466 554 l 459 468 "},"겡":{"x_min":33.328125,"x_max":1136.109375,"ha":1250,"o":"m 718 658 l 527 658 l 527 775 l 718 775 l 718 1054 l 852 1054 l 852 358 l 718 358 l 718 658 m 129 304 l 33 384 q 184 488 112 426 q 309 623 255 550 q 375 747 350 677 q 402 891 401 818 l 100 891 l 100 1009 l 558 1009 q 538 821 558 913 q 475 645 518 729 q 338 463 423 550 q 129 304 254 377 m 995 316 l 995 1069 l 1136 1069 l 1136 316 l 995 316 m 770 -283 q 646 -261 704 -283 q 544 -198 588 -238 q 476 -106 501 -159 q 451 6 451 -54 q 476 120 451 66 q 544 212 501 173 q 646 275 588 252 q 770 298 704 298 q 895 275 837 298 q 997 212 954 252 q 1065 120 1040 173 q 1091 6 1091 66 q 1065 -106 1091 -54 q 997 -198 1040 -159 q 895 -261 954 -238 q 770 -283 837 -283 m 770 179 q 644 128 695 179 q 593 6 593 77 q 642 -113 593 -63 q 766 -162 691 -162 q 893 -113 840 -162 q 947 6 947 -63 q 895 128 947 77 q 770 179 844 179 "},"럼":{"x_min":102.78125,"x_max":1106.953125,"ha":1250,"o":"m 963 777 l 963 1072 l 1106 1072 l 1106 301 l 963 301 l 963 659 l 727 659 l 727 777 l 963 777 m 863 512 l 863 401 q 747 385 818 393 q 600 372 677 377 q 442 363 522 366 q 297 361 362 361 l 102 361 l 102 751 l 495 751 l 495 911 l 102 911 l 102 1023 l 644 1023 l 644 644 l 251 644 l 251 476 l 388 476 q 495 479 434 476 q 619 486 555 481 q 746 497 683 491 q 863 512 809 504 m 380 -211 l 380 238 l 1102 238 l 1102 -211 l 380 -211 m 526 123 l 526 -97 l 956 -97 l 956 123 l 526 123 "},"뚤":{"x_min":29.171875,"x_max":1219.453125,"ha":1250,"o":"m 551 419 l 29 419 l 29 530 l 1219 530 l 1219 419 l 705 419 l 705 293 l 1012 293 l 1012 -9 l 393 -9 l 393 -102 l 1038 -102 l 1038 -212 l 237 -212 l 237 93 l 858 93 l 858 183 l 237 183 l 237 293 l 551 293 l 551 419 m 205 1044 l 590 1044 l 590 927 l 344 927 l 344 741 q 395 740 362 740 q 463 743 427 741 q 536 747 500 744 q 602 754 573 750 l 602 644 q 520 636 569 640 q 425 631 472 633 l 205 630 l 205 1044 m 645 1044 l 1037 1044 l 1037 927 l 786 927 l 786 738 l 1051 738 l 1051 627 l 645 627 l 645 1044 "},"덮":{"x_min":113.890625,"x_max":1116.671875,"ha":1250,"o":"m 963 776 l 963 1072 l 1106 1072 l 1106 316 l 963 316 l 963 663 l 615 663 l 615 776 l 963 776 m 856 526 l 856 413 q 753 398 816 405 q 622 387 690 391 q 490 379 554 381 q 384 377 426 377 l 113 377 l 113 1013 l 679 1013 l 679 893 l 258 893 l 258 494 l 408 494 q 510 496 454 494 q 626 502 566 498 q 745 512 686 506 q 856 526 804 518 m 959 140 l 958 -97 l 1116 -97 l 1116 -211 l 315 -211 l 315 -97 l 473 -97 l 469 140 l 330 140 l 330 256 l 1098 256 l 1098 140 l 959 140 m 827 140 l 604 140 l 606 -97 l 826 -97 l 827 140 "},"휴":{"x_min":34.71875,"x_max":1215.28125,"ha":1250,"o":"m 340 127 l 34 127 l 34 240 l 1215 240 l 1215 127 l 911 127 l 911 -186 l 761 -186 l 761 127 l 491 127 l 491 -186 l 340 -186 l 340 127 m 1065 852 l 181 852 l 181 963 l 550 963 l 550 1112 l 706 1112 l 706 963 l 1065 963 l 1065 852 m 625 701 q 481 659 537 701 q 426 551 426 616 q 484 447 426 487 q 625 408 541 408 q 765 448 709 408 q 822 554 822 488 q 765 659 822 616 q 625 701 709 701 m 623 812 q 752 793 690 812 q 859 741 813 775 q 935 658 906 706 q 963 550 963 609 q 936 443 963 491 q 861 362 908 395 q 752 309 813 327 q 625 291 691 291 q 495 309 556 291 q 387 362 434 327 q 314 443 341 395 q 287 550 287 491 q 314 658 287 609 q 387 741 341 706 q 494 793 433 775 q 623 812 555 812 "},"쌉":{"x_min":2.78125,"x_max":1252.78125,"ha":1250,"o":"m 440 411 q 342 507 388 448 q 275 625 295 566 q 198 509 250 569 q 94 411 147 448 l 2 500 q 114 611 73 554 q 176 733 155 669 q 198 848 193 787 q 204 980 204 909 l 204 1031 l 348 1031 l 348 980 q 350 852 347 913 q 370 734 354 791 q 397 663 380 697 q 440 597 415 629 q 479 662 463 629 q 506 731 495 695 q 528 852 523 790 q 533 980 533 913 l 533 1031 l 676 1031 l 676 980 q 679 849 675 909 q 701 734 684 788 q 759 622 719 676 q 866 523 798 569 l 794 427 q 681 522 733 463 q 609 630 630 580 q 582 573 601 604 q 541 512 563 543 q 491 455 518 481 q 440 411 465 429 m 1063 797 l 1252 797 l 1252 675 l 1063 675 l 1063 370 l 919 370 l 919 1070 l 1063 1070 l 1063 797 m 334 304 l 480 304 l 480 165 l 913 165 l 913 304 l 1058 304 l 1058 -211 l 334 -211 l 334 304 m 913 51 l 480 51 l 480 -97 l 913 -97 l 913 51 "},"좋":{"x_min":30.5625,"x_max":1220.828125,"ha":1250,"o":"m 552 493 l 552 631 l 702 631 l 702 493 l 1220 493 l 1220 381 l 30 381 l 30 493 l 552 493 m 905 927 q 838 857 875 890 q 761 795 802 825 q 925 740 836 763 q 1102 706 1015 718 l 1047 591 q 841 644 948 609 q 650 726 734 679 q 430 635 545 672 q 202 581 315 598 l 141 679 q 302 711 220 688 q 459 766 384 734 q 600 838 536 798 q 711 925 665 879 l 241 925 l 241 1037 l 905 1037 l 905 927 m 861 90 q 922 27 898 66 q 947 -52 947 -11 q 922 -142 947 -101 q 856 -213 898 -183 q 757 -261 815 -244 q 631 -277 700 -277 q 508 -261 565 -277 q 409 -213 451 -244 q 343 -143 366 -184 q 319 -52 319 -101 q 343 27 319 -12 q 402 90 366 66 l 194 90 l 194 202 l 554 202 l 554 333 l 702 333 l 702 202 l 1065 202 l 1065 90 l 861 90 m 633 84 q 517 49 565 84 q 469 -40 469 13 q 517 -133 469 -97 q 633 -169 565 -169 q 750 -134 701 -169 q 798 -40 798 -98 q 750 50 798 16 q 633 84 702 84 "},"링":{"x_min":111.109375,"x_max":1106.953125,"ha":1250,"o":"m 876 522 l 876 411 q 759 395 829 402 q 611 381 690 387 q 454 373 533 376 q 309 370 375 370 l 111 370 l 111 752 l 513 752 l 513 911 l 111 911 l 111 1023 l 663 1023 l 663 645 l 259 645 l 259 487 l 400 487 q 506 490 447 487 q 631 497 566 493 q 759 509 695 502 q 876 522 822 515 m 963 283 l 963 1072 l 1106 1072 l 1106 283 l 963 283 m 756 -283 q 631 -261 690 -283 q 530 -198 573 -238 q 462 -106 487 -159 q 437 6 437 -54 q 462 120 437 66 q 530 212 487 173 q 631 275 573 252 q 756 298 690 298 q 880 275 822 298 q 981 212 938 252 q 1050 120 1025 173 q 1076 6 1076 66 q 1050 -106 1076 -54 q 981 -198 1025 -159 q 880 -261 938 -238 q 756 -283 822 -283 m 931 6 q 881 128 931 77 q 756 179 830 179 q 629 128 681 179 q 577 6 577 77 q 627 -113 577 -63 q 752 -162 677 -162 q 879 -113 826 -162 q 931 6 931 -63 "},"빨":{"x_min":68.0625,"x_max":1252.78125,"ha":1250,"o":"m 1063 808 l 1252 808 l 1252 686 l 1063 686 l 1063 397 l 919 397 l 919 1070 l 1063 1070 l 1063 808 m 491 1026 l 491 844 l 638 844 l 638 1026 l 776 1026 l 776 443 l 68 443 l 68 1026 l 204 1026 l 204 844 l 355 844 l 355 1026 l 491 1026 m 491 731 l 491 556 l 638 556 l 638 731 l 491 731 m 204 731 l 204 556 l 355 556 l 355 731 l 204 731 m 334 120 l 904 120 l 904 226 l 334 226 l 334 334 l 1059 334 l 1059 15 l 491 15 l 491 -100 l 1090 -100 l 1090 -212 l 334 -212 l 334 120 "},"대":{"x_min":98.609375,"x_max":1136.109375,"ha":1250,"o":"m 995 676 l 995 1069 l 1136 1069 l 1136 -172 l 995 -172 l 995 547 l 831 547 l 831 -125 l 694 -125 l 694 1050 l 831 1050 l 831 676 l 995 676 m 623 326 l 623 205 q 462 179 556 188 q 280 170 368 169 l 98 169 l 98 1000 l 559 1000 l 559 876 l 241 876 l 241 294 l 300 294 q 461 301 372 293 q 623 326 551 309 "},"³":{"x_min":30.1875,"x_max":319.4375,"ha":625,"o":"m 91 806 q 110 753 90 777 q 176 729 130 729 q 235 752 213 729 q 256 805 256 775 q 240 843 256 827 q 204 863 225 858 q 188 865 195 865 q 173 868 180 866 q 157 868 165 868 q 143 868 150 868 l 143 919 q 156 918 148 919 q 173 919 165 918 q 188 920 180 919 q 204 925 197 922 q 234 947 225 933 q 244 981 244 961 q 225 1018 244 1002 q 173 1034 206 1034 q 114 1013 131 1034 q 100 966 97 991 l 40 966 q 79 1055 37 1025 q 175 1086 120 1086 q 268 1056 229 1086 q 306 981 306 1027 q 290 927 306 948 q 261 897 273 905 q 302 860 286 883 q 319 802 319 837 q 279 713 319 750 q 176 676 240 676 q 69 713 112 676 q 30 806 26 750 l 91 806 "},"퓨":{"x_min":36.109375,"x_max":1216.671875,"ha":1250,"o":"m 893 897 l 887 593 l 1065 593 l 1065 476 l 191 476 l 191 593 l 366 593 l 363 897 l 206 897 l 206 1012 l 1047 1012 l 1047 897 l 893 897 m 759 897 l 497 897 l 500 593 l 755 593 l 759 897 m 343 208 l 36 208 l 36 325 l 1216 325 l 1216 208 l 908 208 l 908 -184 l 758 -184 l 758 208 l 494 208 l 494 -184 l 343 -184 l 343 208 "},"컁":{"x_min":43.0625,"x_max":1255.5625,"ha":1250,"o":"m 419 622 q 324 613 373 616 q 245 611 275 611 l 105 611 l 105 726 l 265 726 q 377 729 311 726 q 498 740 443 731 q 525 812 515 775 q 538 890 536 850 l 119 890 l 119 1006 l 700 1006 q 662 775 701 886 q 551 573 623 665 q 370 404 476 477 q 138 284 265 330 l 43 380 q 228 468 131 411 q 400 601 325 525 q 409 611 404 605 q 419 622 415 616 m 1063 887 l 1252 887 l 1252 775 l 1063 775 l 1063 629 l 1255 629 l 1255 516 l 1063 516 l 1063 288 l 919 288 l 919 1070 l 1063 1070 l 1063 887 m 713 -283 q 589 -261 647 -283 q 487 -198 531 -238 q 419 -106 444 -159 q 394 6 394 -54 q 419 120 394 66 q 487 212 444 173 q 589 275 531 252 q 713 298 647 298 q 838 275 780 298 q 940 212 895 252 q 1008 120 983 173 q 1033 6 1033 66 q 1008 -106 1033 -54 q 940 -198 983 -159 q 838 -261 895 -238 q 713 -283 780 -283 m 713 179 q 586 128 638 179 q 534 6 534 77 q 584 -113 534 -63 q 708 -162 633 -162 q 836 -113 783 -162 q 890 6 890 -63 q 839 128 890 77 q 713 179 788 179 "},"었":{"x_min":58.328125,"x_max":1218.0625,"ha":1250,"o":"m 963 777 l 963 1072 l 1106 1072 l 1106 311 l 963 311 l 963 658 l 770 658 l 770 777 l 963 777 m 386 1037 q 512 1012 452 1037 q 616 944 572 987 q 687 843 661 901 q 713 720 713 786 q 687 597 713 655 q 616 497 661 540 q 512 429 572 454 q 386 405 452 405 q 258 429 318 405 q 154 497 198 454 q 84 597 109 540 q 58 720 58 655 q 84 843 58 786 q 154 944 109 901 q 258 1012 198 987 q 386 1037 318 1037 m 386 912 q 256 856 309 912 q 204 720 204 800 q 256 585 204 640 q 386 530 309 530 q 514 585 461 530 q 568 720 568 640 q 553 795 568 759 q 513 855 538 830 q 456 897 488 881 q 386 912 423 912 m 716 -240 q 643 -193 677 -219 q 581 -141 609 -168 q 538 -93 556 -118 q 508 -45 520 -69 q 477 -95 495 -70 q 434 -141 459 -119 q 371 -193 406 -168 q 294 -240 336 -218 l 215 -152 q 316 -81 273 -120 q 388 2 359 -43 q 423 90 412 43 q 434 193 434 138 l 434 262 l 579 262 l 579 197 q 592 91 579 143 q 630 -1 605 40 q 668 -51 647 -27 q 716 -95 690 -75 q 768 -46 745 -73 q 808 11 791 -19 q 840 100 830 52 q 851 197 851 147 l 851 262 l 995 262 l 995 193 q 1006 86 995 136 q 1047 -5 1018 36 q 1115 -85 1072 -48 q 1218 -151 1158 -122 l 1141 -240 q 1065 -196 1100 -219 q 1002 -147 1031 -173 q 956 -95 976 -122 q 923 -44 936 -69 q 894 -90 912 -66 q 852 -138 876 -115 q 789 -193 825 -166 q 716 -240 754 -219 "},"♬":{"x_min":126.390625,"x_max":1045.828125,"ha":1250,"o":"m 1045 997 l 1045 236 q 1025 120 1045 165 q 959 43 1005 76 q 884 0 926 13 q 797 -15 841 -15 q 714 6 743 -15 q 686 65 686 27 q 722 158 686 109 q 811 230 758 206 q 881 252 847 247 q 976 258 916 258 l 976 654 l 491 540 l 491 125 q 467 -4 491 45 q 390 -88 443 -54 q 314 -127 352 -115 q 236 -140 276 -140 q 154 -117 183 -140 q 126 -52 126 -94 q 147 15 126 -18 q 205 75 169 50 q 290 117 243 101 q 393 133 338 133 l 420 133 l 420 859 l 1045 997 m 976 765 l 976 872 l 491 762 l 491 655 l 976 765 "},"톡":{"x_min":29.171875,"x_max":1220.828125,"ha":1250,"o":"m 552 509 l 234 509 l 234 1037 l 1011 1037 l 1011 927 l 388 927 l 388 826 l 1005 826 l 1005 722 l 390 722 l 390 619 l 1037 619 l 1037 509 l 702 509 l 702 384 l 1220 384 l 1220 273 l 29 273 l 29 384 l 552 384 l 552 509 m 225 47 l 225 165 l 1013 165 l 1013 -234 l 868 -234 l 868 47 l 225 47 "},"뼜":{"x_min":79.171875,"x_max":1218.0625,"ha":1250,"o":"m 788 902 l 963 902 l 963 1072 l 1106 1072 l 1106 312 l 963 312 l 963 527 l 788 527 l 788 368 l 79 368 l 79 1019 l 216 1019 l 216 804 l 368 804 l 368 1019 l 502 1019 l 502 804 l 650 804 l 650 1019 l 788 1019 l 788 902 m 788 790 l 788 643 l 963 643 l 963 790 l 788 790 m 502 693 l 502 479 l 650 479 l 650 693 l 502 693 m 216 693 l 216 479 l 368 479 l 368 693 l 216 693 m 716 -240 q 643 -193 677 -219 q 581 -141 609 -168 q 538 -93 556 -118 q 508 -45 520 -69 q 477 -95 495 -70 q 434 -141 459 -119 q 371 -193 406 -168 q 294 -240 336 -218 l 215 -152 q 316 -81 273 -120 q 388 2 359 -43 q 423 90 412 43 q 434 193 434 138 l 434 262 l 579 262 l 579 197 q 592 91 579 143 q 630 -1 605 40 q 668 -51 647 -27 q 716 -95 690 -75 q 768 -46 745 -73 q 808 11 791 -19 q 840 100 830 52 q 851 197 851 147 l 851 262 l 995 262 l 995 193 q 1006 86 995 136 q 1047 -5 1018 36 q 1115 -85 1072 -48 q 1218 -151 1158 -122 l 1141 -240 q 1065 -196 1100 -219 q 1002 -147 1031 -173 q 956 -95 976 -122 q 923 -44 936 -69 q 894 -90 912 -66 q 852 -138 876 -115 q 789 -193 825 -166 q 716 -240 754 -219 "},"너":{"x_min":156.9375,"x_max":1108.328125,"ha":1250,"o":"m 963 737 l 963 1070 l 1108 1070 l 1108 -170 l 963 -170 l 963 619 l 570 619 l 570 737 l 963 737 m 876 330 l 876 218 q 772 200 830 208 q 651 186 713 191 q 528 177 588 180 q 420 175 468 175 l 156 175 l 156 1013 l 304 1013 l 304 293 l 451 293 q 668 303 559 293 q 876 330 776 313 "},"깆":{"x_min":59.71875,"x_max":1150,"ha":1250,"o":"m 644 161 l 341 161 l 341 276 l 1100 276 l 1100 161 l 795 161 q 830 53 798 102 q 909 -34 862 4 q 1027 -109 962 -79 q 1150 -155 1091 -138 l 1075 -245 q 977 -211 1026 -233 q 883 -159 929 -188 q 790 -90 833 -129 q 722 -9 748 -51 q 654 -86 694 -50 q 569 -151 615 -122 q 466 -206 519 -181 q 363 -245 413 -230 l 283 -155 q 409 -107 343 -138 q 531 -30 476 -76 q 610 54 579 6 q 644 161 641 102 m 150 338 l 59 434 q 224 506 136 459 q 384 618 312 554 q 492 743 450 675 q 538 891 534 812 l 129 891 l 129 1008 l 704 1008 q 663 781 704 883 q 552 597 623 679 q 377 450 479 513 q 150 338 275 387 m 963 344 l 963 1072 l 1106 1072 l 1106 344 l 963 344 "},"겼":{"x_min":51.390625,"x_max":1218.0625,"ha":1250,"o":"m 963 886 l 963 1072 l 1106 1072 l 1106 322 l 963 322 l 963 498 l 723 498 l 723 608 l 963 608 l 963 775 l 741 775 l 741 886 l 963 886 m 141 338 l 51 434 q 214 506 126 459 q 375 618 302 554 q 483 743 441 675 q 529 891 525 812 l 120 891 l 120 1008 l 695 1008 q 655 781 695 883 q 544 597 615 679 q 367 450 469 513 q 141 338 265 387 m 716 -240 q 643 -193 677 -219 q 581 -141 609 -168 q 538 -93 556 -118 q 508 -45 520 -69 q 477 -95 495 -70 q 434 -141 459 -119 q 371 -193 406 -168 q 294 -240 336 -218 l 215 -152 q 316 -81 273 -120 q 388 2 359 -43 q 423 90 412 43 q 434 193 434 138 l 434 262 l 579 262 l 579 197 q 592 91 579 143 q 630 -1 605 40 q 668 -51 647 -27 q 716 -95 690 -75 q 768 -46 745 -73 q 808 11 791 -19 q 840 100 830 52 q 851 197 851 147 l 851 262 l 995 262 l 995 193 q 1006 86 995 136 q 1047 -5 1018 36 q 1115 -85 1072 -48 q 1218 -151 1158 -122 l 1141 -240 q 1065 -196 1100 -219 q 1002 -147 1031 -173 q 956 -95 976 -122 q 923 -44 936 -69 q 894 -90 912 -66 q 852 -138 876 -115 q 789 -193 825 -166 q 716 -240 754 -219 "},"낫":{"x_min":116.671875,"x_max":1252.78125,"ha":1250,"o":"m 1061 737 l 1252 737 l 1252 615 l 1061 615 l 1061 234 l 918 234 l 918 1072 l 1061 1072 l 1061 737 m 591 268 l 751 268 l 751 190 q 780 72 751 127 q 856 -25 809 18 q 966 -106 905 -73 q 1091 -155 1027 -138 l 1019 -248 q 913 -208 968 -236 q 811 -144 859 -180 q 728 -74 765 -111 q 673 0 691 -37 q 615 -73 652 -36 q 531 -143 579 -111 q 427 -207 481 -179 q 323 -248 373 -236 l 248 -155 q 373 -100 311 -134 q 486 -18 436 -65 q 561 76 531 23 q 591 190 591 129 l 591 268 m 830 565 l 830 452 q 722 436 788 444 q 586 422 656 427 q 446 413 515 416 q 330 409 377 409 l 116 409 l 116 1029 l 263 1029 l 263 527 l 391 529 q 500 531 443 529 q 616 540 558 534 q 728 551 673 544 q 830 565 783 558 "},"컬":{"x_min":70.828125,"x_max":1119.453125,"ha":1250,"o":"m 430 668 q 336 659 384 662 q 258 656 287 656 l 118 656 l 118 769 l 277 769 q 395 772 325 769 q 522 784 465 775 q 545 842 536 812 q 555 904 554 872 l 137 904 l 137 1020 l 722 1020 q 675 795 719 895 q 559 615 631 694 q 381 473 484 533 q 158 373 279 413 l 70 465 q 234 534 145 491 q 397 637 322 577 q 413 652 405 644 q 430 668 422 659 m 963 781 l 963 1072 l 1106 1072 l 1106 406 l 963 406 l 963 662 l 695 662 l 695 781 l 963 781 m 365 120 l 933 120 l 933 226 l 365 226 l 365 334 l 1091 334 l 1091 15 l 522 15 l 522 -100 l 1119 -100 l 1119 -212 l 365 -212 l 365 120 "},"윗":{"x_min":27.78125,"x_max":1108.328125,"ha":1250,"o":"m 347 372 l 316 372 l 27 370 l 27 483 l 263 483 q 427 486 338 483 q 604 494 516 488 q 767 504 690 498 q 898 518 844 511 l 898 405 q 723 388 834 397 q 495 376 612 380 l 495 197 l 347 197 l 347 372 m 605 254 l 766 254 l 766 163 q 797 59 766 109 q 877 -30 829 9 q 988 -107 927 -76 q 1108 -154 1050 -138 l 1029 -245 q 929 -208 981 -233 q 830 -150 877 -183 q 746 -81 784 -118 q 688 -8 708 -44 q 635 -76 670 -41 q 555 -141 600 -111 q 449 -204 505 -176 q 343 -245 393 -231 l 263 -154 q 386 -103 322 -137 q 502 -22 450 -69 q 577 64 548 16 q 605 163 605 112 l 605 254 m 1108 175 l 965 175 l 965 1070 l 1108 1070 l 1108 175 m 741 812 q 716 706 741 755 q 650 620 691 656 q 550 562 606 583 q 429 541 493 541 q 309 562 365 541 q 211 620 252 583 q 145 706 169 656 q 120 812 120 755 q 145 916 120 868 q 211 1001 169 965 q 309 1059 252 1037 q 429 1080 365 1080 q 550 1059 493 1080 q 650 1001 606 1037 q 716 916 691 965 q 741 812 741 868 m 597 812 q 548 918 597 875 q 429 962 500 962 q 313 918 361 962 q 265 812 265 875 q 313 704 265 748 q 429 661 361 661 q 548 704 500 661 q 597 812 597 748 "},"」":{"x_min":51.390625,"x_max":468.0625,"ha":625,"o":"m 468 -250 l 51 -250 l 51 -180 l 398 -180 l 398 361 l 468 361 l 468 -250 "},"컵":{"x_min":70.828125,"x_max":1106.953125,"ha":1250,"o":"m 426 656 q 334 648 381 651 q 258 645 287 645 l 118 645 l 118 759 l 277 759 q 393 762 323 759 q 518 775 462 765 q 544 836 534 804 q 555 901 554 868 l 137 901 l 137 1018 l 722 1018 q 681 803 719 901 q 577 629 644 705 q 391 470 500 537 q 158 359 283 402 l 70 451 q 238 524 148 476 q 405 637 329 572 q 409 641 406 638 q 415 647 412 644 q 420 651 418 648 q 426 656 423 654 m 963 768 l 963 1072 l 1106 1072 l 1106 373 l 963 373 l 963 648 l 694 648 l 694 768 l 963 768 m 369 304 l 515 304 l 515 165 l 948 165 l 948 304 l 1094 304 l 1094 -211 l 369 -211 l 369 304 m 948 51 l 515 51 l 515 -97 l 948 -97 l 948 51 "},"톳":{"x_min":29.171875,"x_max":1220.828125,"ha":1250,"o":"m 552 501 l 234 501 l 234 1037 l 1011 1037 l 1011 927 l 388 927 l 388 822 l 1005 822 l 1005 718 l 390 718 l 390 611 l 1037 611 l 1037 501 l 702 501 l 702 384 l 1220 384 l 1220 273 l 29 273 l 29 384 l 552 384 l 552 501 m 543 208 l 708 208 l 708 133 q 744 32 708 77 q 834 -47 780 -12 q 945 -106 884 -81 q 1068 -145 1006 -130 l 1000 -241 q 893 -208 948 -229 q 786 -158 837 -187 q 692 -95 734 -129 q 629 -26 650 -62 q 568 -92 608 -59 q 477 -151 527 -125 q 366 -203 423 -180 q 258 -238 309 -226 l 183 -145 q 316 -101 250 -129 q 436 -31 383 -73 q 512 42 481 0 q 543 133 543 84 l 543 208 "},"볘":{"x_min":81.9375,"x_max":1136.109375,"ha":1250,"o":"m 572 834 l 738 834 l 738 1050 l 873 1050 l 873 -123 l 738 -123 l 738 395 l 572 395 l 572 155 l 81 155 l 81 1011 l 223 1011 l 223 704 l 429 704 l 429 1011 l 572 1011 l 572 834 m 572 718 l 572 512 l 738 512 l 738 718 l 572 718 m 223 590 l 223 273 l 429 273 l 429 590 l 223 590 m 995 -170 l 995 1069 l 1136 1069 l 1136 -170 l 995 -170 "},"츱":{"x_min":29.171875,"x_max":1219.453125,"ha":1250,"o":"m 29 337 l 29 448 l 1219 448 l 1219 337 l 29 337 m 237 256 l 383 256 l 383 129 l 868 129 l 868 256 l 1013 256 l 1013 -212 l 237 -212 l 237 256 m 868 16 l 383 16 l 383 -98 l 868 -98 l 868 16 m 909 850 q 837 784 876 815 q 756 727 798 754 q 931 676 836 698 q 1116 641 1026 654 l 1069 531 q 965 551 1020 538 q 852 580 909 563 q 740 618 795 597 q 636 662 684 638 q 415 577 530 612 q 190 525 301 543 l 131 625 q 289 655 208 634 q 447 705 370 676 q 590 770 523 734 q 708 847 658 805 l 236 847 l 236 959 l 552 959 l 552 1112 l 704 1112 l 704 959 l 909 959 l 909 850 "},"껸":{"x_min":40.28125,"x_max":1138.890625,"ha":1250,"o":"m 377 184 l 523 184 l 523 -93 l 1138 -93 l 1138 -211 l 377 -211 l 377 184 m 779 900 l 963 900 l 963 1072 l 1106 1072 l 1106 129 l 963 129 l 963 483 l 751 483 l 751 604 l 963 604 l 963 780 l 759 780 q 659 509 727 636 q 488 294 590 383 l 375 356 q 477 472 431 408 q 556 606 523 536 q 607 752 588 677 q 629 900 626 826 l 459 900 q 423 756 451 830 q 354 612 395 681 q 259 479 312 541 q 150 375 206 418 l 40 441 q 136 532 90 480 q 218 645 181 584 q 279 770 255 705 q 309 900 302 834 l 84 900 l 84 1015 l 786 1015 q 784 956 786 986 q 779 900 783 927 "},"ª":{"x_min":263.890625,"x_max":986.109375,"ha":1250,"o":"m 986 8 l 986 -88 l 263 -88 l 263 8 l 986 8 m 804 158 q 790 194 795 175 q 781 236 784 213 q 683 166 740 197 q 562 133 626 136 q 395 173 455 125 q 320 291 336 222 q 315 371 311 330 q 340 448 320 412 q 390 515 358 486 q 469 559 423 544 q 525 574 497 568 q 583 584 554 580 q 639 593 611 588 q 697 604 668 597 q 752 625 726 609 q 779 673 779 641 q 739 775 779 730 q 616 819 700 819 q 493 776 541 819 q 445 645 444 733 l 344 645 q 363 760 343 709 q 422 847 384 811 q 509 902 459 883 q 616 922 559 922 q 804 853 729 922 q 880 663 880 784 l 880 290 q 888 219 880 256 q 904 158 895 181 l 804 158 m 527 472 q 439 419 463 455 q 416 341 415 383 q 455 256 418 284 q 568 236 493 227 q 637 256 600 238 q 705 298 675 273 q 758 354 737 323 q 779 413 779 384 l 779 526 q 718 503 750 511 q 654 491 686 495 q 590 482 622 486 q 527 472 558 479 l 527 472 "},"촌":{"x_min":30.5625,"x_max":1222.21875,"ha":1250,"o":"m 238 155 l 390 155 l 390 -91 l 1033 -91 l 1033 -208 l 238 -208 l 238 155 m 554 341 l 554 508 l 702 508 l 702 341 l 1222 341 l 1222 233 l 30 233 l 30 341 l 554 341 m 552 944 l 552 1112 l 704 1112 l 704 944 l 902 944 l 902 834 q 831 754 870 793 q 747 681 793 715 q 927 607 829 640 q 1112 558 1025 575 l 1059 443 q 954 470 1009 452 q 844 509 900 487 q 738 558 790 531 q 644 613 686 584 q 427 506 541 551 q 206 441 313 462 l 143 538 q 302 584 219 555 q 461 650 384 612 q 602 733 537 687 q 712 831 668 779 l 236 831 l 236 944 l 552 944 "},"맘":{"x_min":84.71875,"x_max":1252.78125,"ha":1250,"o":"m 1063 776 l 1252 776 l 1252 655 l 1063 655 l 1063 311 l 919 311 l 919 1070 l 1063 1070 l 1063 776 m 84 1015 l 661 1015 l 661 422 l 84 422 l 84 1015 m 231 901 l 231 537 l 515 537 l 515 901 l 231 901 m 337 -211 l 337 240 l 1059 240 l 1059 -211 l 337 -211 m 483 125 l 483 -97 l 915 -97 l 915 125 l 483 125 "},"쎌":{"x_min":-4.171875,"x_max":1186.109375,"ha":1250,"o":"m 373 409 q 282 527 316 458 q 238 650 248 597 q 213 588 230 622 q 175 522 195 555 q 129 458 154 488 q 83 405 105 427 l -4 479 q 95 616 59 544 q 148 763 131 688 q 167 879 162 820 q 172 998 172 938 l 172 1037 l 302 1037 l 302 1000 q 305 872 302 934 q 320 752 308 811 q 341 676 329 713 q 375 604 354 638 q 406 677 394 638 q 426 754 418 715 q 441 876 438 813 q 444 1000 444 938 l 444 1037 l 575 1037 l 575 998 q 577 875 572 937 q 598 754 581 813 q 649 622 615 686 q 738 509 683 559 l 663 426 q 571 536 609 475 q 515 650 533 598 q 495 592 509 625 q 463 526 481 559 q 421 461 444 493 q 373 409 398 430 m 790 847 l 790 1056 l 919 1056 l 919 386 l 790 386 l 790 726 l 650 726 l 650 847 l 790 847 m 1031 386 l 1031 1070 l 1168 1070 l 1168 386 l 1031 386 m 431 115 l 1001 115 l 1001 216 l 431 216 l 431 325 l 1158 325 l 1158 8 l 590 8 l 590 -100 l 1186 -100 l 1186 -212 l 431 -212 l 431 115 "},"줏":{"x_min":29.171875,"x_max":1220.828125,"ha":1250,"o":"m 544 173 l 706 173 l 706 120 q 740 25 706 66 q 826 -45 773 -15 q 941 -104 877 -80 q 1069 -144 1005 -127 l 1002 -241 q 895 -209 951 -229 q 787 -163 838 -190 q 693 -108 736 -138 q 629 -40 650 -77 q 568 -104 608 -75 q 477 -158 527 -133 q 365 -205 423 -184 q 256 -238 308 -226 l 181 -144 q 313 -102 247 -127 q 433 -41 380 -77 q 512 29 480 -11 q 544 120 544 69 l 544 173 m 551 361 l 29 361 l 29 475 l 1220 475 l 1220 361 l 705 361 l 705 225 l 551 225 l 551 361 m 906 918 q 836 834 876 873 q 750 759 795 794 q 921 698 827 725 q 1106 655 1015 672 l 1044 543 q 838 600 950 561 q 640 688 727 640 q 427 592 540 631 q 206 536 313 552 l 147 638 q 307 674 226 648 q 465 736 388 700 q 604 819 540 773 q 712 918 668 865 l 243 918 l 243 1033 l 906 1033 l 906 918 "},"셥":{"x_min":34.71875,"x_max":1106.953125,"ha":1250,"o":"m 963 956 l 963 1072 l 1106 1072 l 1106 362 l 963 362 l 963 602 l 726 602 l 726 712 l 963 712 l 963 847 l 727 847 l 727 956 l 963 956 m 794 500 l 709 406 q 625 451 666 423 q 545 513 583 479 q 477 586 506 547 q 430 665 447 626 q 382 587 413 627 q 311 509 351 547 q 216 433 266 468 q 120 375 166 398 l 34 465 q 171 559 111 509 q 273 669 231 609 q 331 790 311 723 q 352 940 352 858 l 352 1043 l 508 1043 l 508 930 q 527 790 508 855 q 581 670 545 725 q 670 573 618 616 q 794 500 723 530 m 369 304 l 515 304 l 515 165 l 948 165 l 948 304 l 1094 304 l 1094 -211 l 369 -211 l 369 304 m 948 51 l 515 51 l 515 -97 l 948 -97 l 948 51 "},"뎬":{"x_min":79.171875,"x_max":1150,"ha":1250,"o":"m 725 851 l 725 1054 l 859 1054 l 859 197 l 725 197 l 725 526 l 500 526 l 500 644 l 725 644 l 725 734 l 497 734 l 497 851 l 725 851 m 623 475 l 623 362 q 545 347 590 354 q 454 337 501 341 q 363 331 406 333 q 288 329 319 329 l 79 327 l 79 1016 l 552 1016 l 552 894 l 222 894 l 222 444 l 301 444 q 457 451 366 444 q 623 475 548 458 m 995 165 l 995 1069 l 1136 1069 l 1136 165 l 995 165 m 390 184 l 534 184 l 534 -93 l 1150 -93 l 1150 -211 l 390 -211 l 390 184 "},"는":{"x_min":30.5625,"x_max":1220.828125,"ha":1250,"o":"m 238 1055 l 387 1055 l 387 711 l 1027 711 l 1027 597 l 238 597 l 238 1055 m 30 294 l 30 412 l 1220 412 l 1220 294 l 30 294 m 241 186 l 393 186 l 393 -91 l 1034 -91 l 1034 -208 l 241 -208 l 241 186 "},"팻":{"x_min":25,"x_max":1140.28125,"ha":1250,"o":"m 531 900 l 529 498 q 562 501 545 500 q 594 502 579 502 q 623 505 609 504 q 650 508 637 506 l 650 393 q 552 384 608 387 q 436 377 495 380 q 317 375 375 376 q 213 375 259 375 l 25 375 l 25 488 l 145 488 l 141 900 l 54 900 l 54 1015 l 608 1015 l 608 900 l 531 900 m 401 900 l 268 900 l 272 488 q 333 490 301 488 q 398 493 365 491 l 401 900 m 636 268 l 797 268 l 797 180 q 830 68 797 122 q 918 -29 863 13 q 1025 -106 966 -75 q 1140 -154 1084 -138 l 1061 -248 q 961 -209 1013 -236 q 859 -147 908 -181 q 777 -75 813 -113 q 719 0 740 -37 q 662 -73 700 -36 q 577 -144 625 -111 q 474 -208 527 -180 q 372 -248 420 -236 l 293 -154 q 418 -98 352 -136 q 536 -11 484 -61 q 609 79 581 30 q 636 180 636 129 l 636 268 m 995 759 l 995 1069 l 1136 1069 l 1136 293 l 995 293 l 995 634 l 854 634 l 854 326 l 719 326 l 719 1054 l 854 1054 l 854 759 l 995 759 "},"랸":{"x_min":87.5,"x_max":1255.5625,"ha":1250,"o":"m 1061 887 l 1252 887 l 1252 775 l 1061 775 l 1061 581 l 1255 581 l 1255 469 l 1061 469 l 1061 129 l 918 129 l 918 1072 l 1061 1072 l 1061 887 m 830 468 l 830 358 q 713 340 783 348 q 566 327 644 333 q 409 319 488 322 q 265 316 330 316 l 87 316 l 87 730 l 484 730 l 484 905 l 87 905 l 87 1019 l 633 1019 l 633 622 l 236 622 l 236 433 l 354 433 q 461 436 401 433 q 586 443 522 438 q 713 454 650 448 q 830 468 776 461 m 336 184 l 481 184 l 481 -93 l 1081 -93 l 1081 -211 l 336 -211 l 336 184 "},"쓰":{"x_min":38.890625,"x_max":1211.109375,"ha":1250,"o":"m 38 -31 l 38 88 l 1211 88 l 1211 -31 l 38 -31 m 626 351 q 504 468 562 397 q 418 609 447 538 q 378 536 402 575 q 323 462 354 498 q 259 393 294 426 q 191 340 225 361 l 94 420 q 198 513 152 459 q 276 631 244 568 q 323 765 306 695 q 340 906 340 836 l 340 1015 l 490 1015 l 490 911 q 525 693 490 802 q 627 515 561 583 q 683 595 658 548 q 725 694 708 641 q 752 801 743 745 q 761 911 761 856 l 761 1015 l 911 1015 l 911 906 q 972 638 911 768 q 1151 426 1034 508 l 1061 341 q 924 463 986 387 q 833 609 862 538 q 746 464 804 534 q 626 351 688 394 "},"1":{"x_min":134.71875,"x_max":497.21875,"ha":758,"o":"m 497 -22 l 356 -22 l 356 848 l 194 725 l 134 818 l 369 995 l 497 995 l 497 -22 "},"뚱":{"x_min":29.171875,"x_max":1220.828125,"ha":1250,"o":"m 551 376 l 29 376 l 29 486 l 1220 486 l 1220 376 l 705 376 l 705 262 q 806 226 759 251 q 886 165 852 201 q 938 86 919 130 q 958 -6 958 41 q 932 -114 958 -63 q 862 -202 906 -165 q 759 -261 818 -240 q 631 -283 700 -283 q 504 -261 563 -283 q 401 -202 445 -240 q 331 -114 356 -165 q 306 -6 306 -63 q 325 84 306 40 q 376 163 343 127 q 453 223 408 198 q 551 259 498 248 l 551 376 m 811 -6 q 759 108 811 61 q 631 155 708 155 q 503 108 556 155 q 450 -6 450 61 q 501 -121 450 -75 q 627 -168 552 -168 q 756 -121 702 -168 q 811 -6 811 -75 m 205 1041 l 588 1041 l 588 925 l 344 925 l 344 704 q 395 703 362 702 q 463 705 427 704 q 536 709 500 706 q 602 715 573 711 l 602 605 q 516 597 569 601 q 416 593 463 594 l 205 590 l 205 1041 m 645 1041 l 1037 1041 l 1037 925 l 786 925 l 786 701 l 1051 701 l 1051 587 l 645 587 l 645 1041 "},"웁":{"x_min":29.171875,"x_max":1220.828125,"ha":1250,"o":"m 551 370 l 29 370 l 29 480 l 1220 480 l 1220 370 l 705 370 l 705 220 l 551 220 l 551 370 m 625 1120 q 751 1097 691 1120 q 855 1034 811 1075 q 926 942 900 995 q 952 829 952 888 q 926 715 952 768 q 855 622 900 662 q 751 560 811 583 q 625 537 691 537 q 497 560 556 537 q 393 622 437 583 q 322 715 348 662 q 297 829 297 768 q 322 942 297 888 q 393 1034 348 995 q 497 1097 437 1075 q 625 1120 556 1120 m 625 661 q 697 674 663 661 q 758 709 731 687 q 800 763 784 733 q 815 829 815 794 q 759 947 815 898 q 625 997 702 997 q 490 947 545 997 q 434 829 434 898 q 449 763 434 794 q 490 709 463 733 q 550 674 516 687 q 625 661 584 661 m 237 275 l 383 275 l 383 140 l 868 140 l 868 275 l 1013 275 l 1013 -211 l 237 -211 l 237 275 m 868 27 l 383 27 l 383 -97 l 868 -97 l 868 27 "},"낍":{"x_min":34.71875,"x_max":1106.953125,"ha":1250,"o":"m 963 369 l 963 1072 l 1106 1072 l 1106 369 l 963 369 m 948 51 l 515 51 l 515 -97 l 948 -97 l 948 51 m 369 304 l 515 304 l 515 165 l 948 165 l 948 304 l 1094 304 l 1094 -211 l 369 -211 l 369 304 m 787 1019 q 763 814 787 911 q 700 637 740 718 q 604 489 658 555 q 488 375 550 423 l 380 444 q 554 654 488 529 q 630 906 620 780 l 461 906 q 421 774 450 841 q 350 644 393 706 q 254 526 308 580 q 140 434 200 472 l 34 505 q 136 584 88 538 q 219 683 183 630 q 281 793 256 736 q 313 906 305 850 l 86 906 l 86 1019 l 787 1019 "},"호":{"x_min":34.71875,"x_max":1213.890625,"ha":1250,"o":"m 697 206 l 697 61 l 1213 61 l 1213 -58 l 34 -58 l 34 61 l 547 61 l 547 206 q 442 240 490 216 q 358 298 394 263 q 302 381 322 334 q 281 483 281 427 q 309 600 281 548 q 383 690 336 652 q 490 746 429 726 q 622 766 552 766 q 753 746 690 766 q 863 690 816 726 q 940 601 912 654 q 969 483 969 548 q 947 379 969 426 q 888 297 926 331 q 802 238 852 261 q 697 206 752 215 m 1094 823 l 154 823 l 154 943 l 550 943 l 550 1112 l 706 1112 l 706 943 l 1094 943 l 1094 823 m 623 650 q 483 604 543 650 q 423 484 423 559 q 484 364 423 406 q 625 322 545 322 q 764 363 704 322 q 825 484 825 404 q 765 606 825 563 q 623 650 705 650 "},"뻑":{"x_min":79.171875,"x_max":1106.953125,"ha":1250,"o":"m 788 775 l 963 775 l 963 1072 l 1106 1072 l 1106 311 l 963 311 l 963 655 l 788 655 l 788 368 l 79 368 l 79 1019 l 216 1019 l 216 804 l 368 804 l 368 1019 l 502 1019 l 502 804 l 650 804 l 650 1019 l 788 1019 l 788 775 m 502 693 l 502 479 l 650 479 l 650 693 l 502 693 m 216 693 l 216 479 l 368 479 l 368 693 l 216 693 m 352 122 l 352 237 l 1100 237 l 1100 -225 l 954 -225 l 954 122 l 352 122 "},"통":{"x_min":29.171875,"x_max":1220.828125,"ha":1250,"o":"m 552 509 l 234 509 l 234 1037 l 1011 1037 l 1011 927 l 388 927 l 388 826 l 1005 826 l 1005 722 l 390 722 l 390 619 l 1037 619 l 1037 509 l 702 509 l 702 402 l 1220 402 l 1220 291 l 29 291 l 29 402 l 552 402 l 552 509 m 958 -18 q 932 -121 958 -73 q 862 -205 906 -169 q 759 -262 818 -241 q 631 -283 700 -283 q 504 -262 563 -283 q 401 -205 445 -241 q 331 -121 356 -169 q 306 -18 306 -73 q 331 84 306 36 q 401 169 356 133 q 504 226 445 205 q 631 247 563 247 q 759 226 700 247 q 862 169 818 205 q 932 84 906 133 q 958 -18 958 36 m 811 -18 q 759 92 811 47 q 631 137 708 137 q 503 92 556 137 q 450 -18 450 47 q 501 -129 450 -84 q 627 -173 552 -173 q 756 -129 702 -173 q 811 -18 811 -84 "},"꺾":{"x_min":36.109375,"x_max":1106.953125,"ha":1250,"o":"m 738 138 l 738 248 l 1101 248 l 1101 -225 l 958 -225 l 958 138 l 738 138 m 277 138 l 277 248 l 675 248 l 675 -225 l 531 -225 l 531 138 l 277 138 m 758 777 l 963 777 l 963 1072 l 1106 1072 l 1106 311 l 963 311 l 963 658 l 751 658 l 751 748 q 649 508 715 619 q 487 315 583 397 l 372 377 q 477 489 430 427 q 555 619 523 551 q 606 759 587 687 q 630 900 625 830 l 459 900 q 420 761 448 831 q 350 623 391 690 q 255 497 308 556 q 145 395 202 438 l 36 459 q 136 551 88 500 q 219 659 183 602 q 279 777 255 716 q 309 900 302 838 l 84 900 l 84 1015 l 786 1015 q 778 894 786 954 q 758 777 770 834 "},"묀":{"x_min":29.171875,"x_max":1118.0625,"ha":1250,"o":"m 355 568 l 140 568 l 140 1033 l 733 1033 l 733 568 l 505 568 l 505 409 q 724 420 618 413 q 898 436 830 427 l 898 325 q 784 312 854 318 q 634 301 715 306 q 472 293 555 297 q 316 290 388 290 l 29 288 l 29 404 l 355 404 l 355 568 m 273 922 l 273 680 l 600 680 l 600 922 l 273 922 m 1108 119 l 965 119 l 965 1070 l 1108 1070 l 1108 119 m 356 166 l 502 166 l 502 -93 l 1118 -93 l 1118 -211 l 356 -211 l 356 166 "},"렌":{"x_min":68.0625,"x_max":1150,"ha":1250,"o":"m 726 631 l 575 631 l 575 748 l 726 748 l 726 1054 l 861 1054 l 861 197 l 726 197 l 726 631 m 638 466 l 638 356 q 547 341 602 348 q 433 329 493 334 q 315 322 373 325 q 216 319 258 319 l 69 319 l 69 730 l 381 730 l 381 912 l 68 912 l 68 1026 l 527 1026 l 527 622 l 213 622 l 213 436 l 300 436 q 377 438 333 436 q 469 444 422 440 q 561 454 516 448 q 638 466 605 459 m 995 165 l 995 1069 l 1136 1069 l 1136 165 l 995 165 m 390 184 l 534 184 l 534 -93 l 1150 -93 l 1150 -211 l 390 -211 l 390 184 "},"뿐":{"x_min":29.171875,"x_max":1220.828125,"ha":1250,"o":"m 577 254 l 29 254 l 29 370 l 1220 370 l 1220 254 l 729 254 l 729 43 l 577 43 l 577 254 m 238 155 l 390 155 l 390 -90 l 1034 -90 l 1034 -208 l 238 -208 l 238 155 m 693 1044 l 693 877 l 908 877 l 908 1044 l 1045 1044 l 1045 498 l 202 498 l 202 1044 l 338 1044 l 338 877 l 556 877 l 556 1044 l 693 1044 m 693 768 l 693 609 l 908 609 l 908 768 l 693 768 m 338 768 l 338 609 l 556 609 l 556 768 l 338 768 "},"덩":{"x_min":113.890625,"x_max":1106.953125,"ha":1250,"o":"m 963 776 l 963 1072 l 1106 1072 l 1106 286 l 963 286 l 963 663 l 615 663 l 615 776 l 963 776 m 856 526 l 856 413 q 753 398 816 405 q 622 387 690 391 q 490 379 554 381 q 384 377 426 377 l 113 377 l 113 1013 l 679 1013 l 679 893 l 258 893 l 258 494 l 408 494 q 510 496 454 494 q 626 502 566 498 q 745 512 686 506 q 856 526 804 518 m 756 -283 q 631 -261 690 -283 q 530 -198 573 -238 q 462 -106 487 -159 q 437 6 437 -54 q 462 120 437 66 q 530 212 487 173 q 631 275 573 252 q 756 298 690 298 q 880 275 822 298 q 981 212 938 252 q 1050 120 1025 173 q 1076 6 1076 66 q 1050 -106 1076 -54 q 981 -198 1025 -159 q 880 -261 938 -238 q 756 -283 822 -283 m 931 6 q 881 128 931 77 q 756 179 830 179 q 629 128 681 179 q 577 6 577 77 q 627 -113 577 -63 q 752 -162 677 -162 q 879 -113 826 -162 q 931 6 931 -63 "},"폣":{"x_min":25,"x_max":1140.28125,"ha":1250,"o":"m 531 900 l 529 498 q 562 501 545 500 q 594 502 579 502 q 623 505 609 504 q 650 508 637 506 l 650 393 q 552 384 608 387 q 436 377 495 380 q 317 375 375 376 q 213 375 259 375 l 25 375 l 25 488 l 145 488 l 141 900 l 54 900 l 54 1015 l 608 1015 l 608 900 l 531 900 m 401 900 l 268 900 l 272 488 q 333 490 301 488 q 398 493 365 491 l 401 900 m 636 268 l 797 268 l 797 180 q 830 68 797 122 q 918 -29 863 13 q 1025 -106 966 -75 q 1140 -154 1084 -138 l 1061 -248 q 961 -209 1013 -236 q 859 -147 908 -181 q 777 -75 813 -113 q 719 0 740 -37 q 662 -73 700 -36 q 577 -144 625 -111 q 474 -208 527 -180 q 372 -248 420 -236 l 293 -154 q 418 -98 352 -136 q 536 -11 484 -61 q 609 79 581 30 q 636 180 636 129 l 636 268 m 995 268 l 995 1069 l 1136 1069 l 1136 268 l 995 268 m 745 870 l 745 1054 l 880 1054 l 880 316 l 745 316 l 745 547 l 598 547 l 598 661 l 745 661 l 745 758 l 598 758 l 598 870 l 745 870 "},"뻤":{"x_min":79.171875,"x_max":1218.0625,"ha":1250,"o":"m 788 775 l 963 775 l 963 1072 l 1106 1072 l 1106 311 l 963 311 l 963 655 l 788 655 l 788 368 l 79 368 l 79 1019 l 216 1019 l 216 804 l 368 804 l 368 1019 l 502 1019 l 502 804 l 650 804 l 650 1019 l 788 1019 l 788 775 m 502 693 l 502 479 l 650 479 l 650 693 l 502 693 m 216 693 l 216 479 l 368 479 l 368 693 l 216 693 m 716 -240 q 643 -193 677 -219 q 581 -141 609 -168 q 538 -93 556 -118 q 508 -45 520 -69 q 477 -95 495 -70 q 434 -141 459 -119 q 371 -193 406 -168 q 294 -240 336 -218 l 215 -152 q 316 -81 273 -120 q 388 2 359 -43 q 423 90 412 43 q 434 193 434 138 l 434 262 l 579 262 l 579 197 q 592 91 579 143 q 630 -1 605 40 q 668 -51 647 -27 q 716 -95 690 -75 q 768 -46 745 -73 q 808 11 791 -19 q 840 100 830 52 q 851 197 851 147 l 851 262 l 995 262 l 995 193 q 1006 86 995 136 q 1047 -5 1018 36 q 1115 -85 1072 -48 q 1218 -151 1158 -122 l 1141 -240 q 1065 -196 1100 -219 q 1002 -147 1031 -173 q 956 -95 976 -122 q 923 -44 936 -69 q 894 -90 912 -66 q 852 -138 876 -115 q 789 -193 825 -166 q 716 -240 754 -219 "},"져":{"x_min":23.609375,"x_max":1108.328125,"ha":1250,"o":"m 963 713 l 723 713 l 723 836 l 963 836 l 963 1070 l 1108 1070 l 1108 -170 l 963 -170 l 963 451 l 723 451 l 723 573 l 963 573 l 963 713 m 523 537 q 661 392 580 462 q 834 270 743 322 l 737 159 q 584 282 658 209 q 452 429 509 355 q 295 255 381 334 q 111 119 208 176 l 23 208 q 191 331 112 256 q 333 494 270 405 q 436 681 395 583 q 488 877 476 780 l 123 877 l 123 1001 l 641 1001 l 641 887 q 600 708 630 795 q 523 537 569 620 "},"맣":{"x_min":84.71875,"x_max":1252.78125,"ha":1250,"o":"m 1063 797 l 1252 797 l 1252 675 l 1063 675 l 1063 370 l 919 370 l 919 1070 l 1063 1070 l 1063 797 m 84 1020 l 661 1020 l 661 459 l 84 459 l 84 1020 m 231 908 l 231 575 l 515 575 l 515 908 l 231 908 m 898 131 q 965 60 940 105 q 991 -30 991 15 q 968 -127 991 -83 q 902 -202 944 -170 q 804 -252 861 -234 q 684 -269 748 -269 q 563 -252 619 -269 q 466 -202 506 -234 q 402 -127 425 -170 q 379 -30 379 -83 q 403 60 379 15 q 469 131 427 105 l 265 131 l 265 243 l 612 243 l 612 397 l 758 397 l 758 243 l 1094 243 l 1094 131 l 898 131 m 684 118 q 571 79 618 118 q 525 -20 525 41 q 572 -122 525 -86 q 684 -159 620 -159 q 796 -123 747 -159 q 845 -20 845 -87 q 797 79 845 41 q 684 118 750 118 "},"욕":{"x_min":30.5625,"x_max":1220.828125,"ha":1250,"o":"m 459 565 q 340 670 384 602 q 295 819 295 737 q 321 933 295 879 q 391 1026 347 987 q 495 1090 436 1066 q 625 1113 555 1113 q 752 1090 693 1113 q 856 1026 812 1066 q 927 933 901 987 q 954 819 954 879 q 909 670 954 737 q 788 565 863 602 l 886 565 l 886 413 l 1220 413 l 1220 298 l 30 298 l 30 413 l 380 413 l 380 565 l 459 565 m 522 540 l 522 413 l 745 413 l 745 545 q 686 529 716 534 q 625 525 656 525 q 571 528 597 525 q 522 540 545 531 m 625 641 q 759 693 702 641 q 815 819 815 744 q 800 888 815 855 q 758 944 784 920 q 697 982 731 968 q 625 997 663 997 q 550 982 584 997 q 490 944 516 968 q 449 888 463 920 q 434 819 434 855 q 490 693 434 744 q 625 641 545 641 m 225 68 l 225 183 l 1012 183 l 1012 -234 l 866 -234 l 866 68 l 225 68 "},"크":{"x_min":37.5,"x_max":1211.109375,"ha":1250,"o":"m 37 -16 l 37 104 l 780 104 q 807 273 794 183 q 831 459 820 363 q 667 450 748 454 q 515 448 586 447 l 244 448 l 244 566 l 526 566 q 679 568 595 566 q 843 576 762 570 q 854 733 850 655 q 858 880 858 811 l 251 880 l 251 1001 l 1011 1001 q 1004 768 1011 888 q 986 531 997 648 q 959 304 975 413 q 927 104 944 195 l 1211 104 l 1211 -16 l 37 -16 "},"썸":{"x_min":18.0625,"x_max":1106.953125,"ha":1250,"o":"m 456 361 q 359 463 406 400 q 291 587 312 526 q 214 464 266 529 q 109 359 162 400 l 18 450 q 127 563 86 504 q 191 690 169 622 q 214 813 208 748 q 220 954 220 877 l 220 1023 l 365 1023 l 365 954 q 367 823 363 886 q 386 702 370 761 q 413 622 395 661 q 456 548 430 584 q 498 622 481 584 q 526 702 515 661 q 545 823 541 761 q 550 954 550 886 l 550 1023 l 693 1023 l 693 954 q 696 814 691 879 q 719 693 701 750 q 777 574 738 629 q 883 470 816 519 l 811 376 q 750 421 779 394 q 697 477 720 448 q 653 536 672 506 q 626 590 634 565 q 598 528 616 561 q 558 465 580 495 q 508 406 534 433 q 456 361 481 379 m 963 838 l 963 1072 l 1106 1072 l 1106 311 l 963 311 l 963 718 l 769 718 l 769 838 l 963 838 m 380 -211 l 380 238 l 1102 238 l 1102 -211 l 380 -211 m 526 123 l 526 -97 l 956 -97 l 956 123 l 526 123 "},"렙":{"x_min":68.0625,"x_max":1136.109375,"ha":1250,"o":"m 725 673 l 576 673 l 576 791 l 725 791 l 725 1054 l 859 1054 l 859 372 l 725 372 l 725 673 m 995 370 l 995 1069 l 1136 1069 l 1136 370 l 995 370 m 638 554 l 638 441 q 547 428 602 434 q 433 416 493 422 q 315 409 373 412 q 216 406 258 406 l 69 406 l 69 776 l 381 776 l 381 915 l 68 915 l 68 1029 l 527 1029 l 527 668 l 213 668 l 213 523 l 300 523 q 377 525 333 523 q 469 531 422 527 q 561 541 516 536 q 638 554 605 547 m 404 304 l 550 304 l 550 165 l 981 165 l 981 304 l 1127 304 l 1127 -211 l 404 -211 l 404 304 m 981 51 l 550 51 l 550 -97 l 981 -97 l 981 51 "},"덖":{"x_min":113.890625,"x_max":1106.953125,"ha":1250,"o":"m 963 776 l 963 1072 l 1106 1072 l 1106 316 l 963 316 l 963 663 l 615 663 l 615 776 l 963 776 m 856 526 l 856 413 q 753 398 816 405 q 622 387 690 391 q 490 379 554 381 q 384 377 426 377 l 113 377 l 113 1013 l 679 1013 l 679 893 l 258 893 l 258 494 l 408 494 q 510 496 454 494 q 626 502 566 498 q 745 512 686 506 q 856 526 804 518 m 738 138 l 738 248 l 1101 248 l 1101 -225 l 958 -225 l 958 138 l 738 138 m 277 138 l 277 248 l 675 248 l 675 -225 l 531 -225 l 531 138 l 277 138 "},"녑":{"x_min":127.78125,"x_max":1106.953125,"ha":1250,"o":"m 963 970 l 963 1072 l 1106 1072 l 1106 375 l 963 375 l 963 650 l 618 650 l 618 762 l 963 762 l 963 856 l 615 856 l 615 970 l 963 970 m 856 588 l 856 476 q 741 458 805 466 q 612 444 677 450 q 486 434 547 437 q 381 431 426 431 l 127 431 l 127 1030 l 273 1030 l 273 551 l 416 551 q 632 562 520 551 q 856 588 744 573 m 369 304 l 515 304 l 515 165 l 948 165 l 948 304 l 1094 304 l 1094 -211 l 369 -211 l 369 304 m 948 51 l 515 51 l 515 -97 l 948 -97 l 948 51 "},"펄":{"x_min":56.9375,"x_max":1119.453125,"ha":1250,"o":"m 634 911 l 630 559 q 754 565 694 562 q 865 573 815 569 l 865 456 q 731 445 809 450 q 570 437 654 441 q 408 432 487 434 q 272 430 329 430 l 56 430 l 56 548 l 201 548 l 198 911 l 83 911 l 83 1026 l 747 1026 l 747 911 l 634 911 m 501 911 l 331 911 l 334 548 q 411 550 370 548 q 497 552 452 551 l 501 911 m 365 120 l 933 120 l 933 226 l 365 226 l 365 334 l 1091 334 l 1091 15 l 522 15 l 522 -100 l 1119 -100 l 1119 -212 l 365 -212 l 365 120 m 963 809 l 963 1072 l 1106 1072 l 1106 406 l 963 406 l 963 690 l 729 690 l 729 809 l 963 809 "},"틈":{"x_min":29.171875,"x_max":1220.828125,"ha":1250,"o":"m 234 1037 l 1011 1037 l 1011 927 l 388 927 l 388 826 l 1005 826 l 1005 722 l 390 722 l 390 619 l 1037 619 l 1037 509 l 234 509 l 234 1037 m 29 281 l 29 393 l 1220 393 l 1220 281 l 29 281 m 383 52 l 383 -100 l 862 -100 l 862 52 l 383 52 m 237 168 l 1012 168 l 1012 -213 l 237 -213 l 237 168 "},"촬":{"x_min":25,"x_max":1254.171875,"ha":1250,"o":"m 312 80 l 897 80 l 897 151 l 312 151 l 312 262 l 1052 262 l 1052 -25 l 469 -25 l 469 -100 l 1080 -100 l 1080 -212 l 312 -212 l 312 80 m 340 445 l 340 576 l 490 576 l 490 451 q 692 462 595 455 q 854 477 788 469 l 854 368 q 740 355 809 361 q 591 344 670 350 q 427 335 511 338 q 272 331 344 331 l 25 330 l 25 444 l 219 444 q 277 444 247 444 q 340 445 308 444 m 1063 565 l 1063 320 l 919 320 l 919 1070 l 1063 1070 l 1063 690 l 1254 690 l 1254 565 l 1063 565 m 652 863 q 597 799 627 830 q 533 740 566 768 q 661 691 591 711 q 797 659 730 672 l 744 551 q 584 595 670 563 q 431 670 498 627 q 268 590 352 623 q 104 543 183 556 l 37 634 q 165 666 101 644 q 288 719 230 688 q 397 785 348 748 q 481 862 447 822 l 113 862 l 113 972 l 343 972 l 343 1112 l 481 1112 l 481 972 l 652 972 l 652 863 "},"⑭":{"x_min":19.4375,"x_max":1230.5625,"ha":1250,"o":"m 1230 418 q 1182 181 1230 291 q 1052 -11 1134 70 q 860 -140 970 -93 q 625 -187 750 -187 q 388 -140 498 -187 q 195 -11 277 -93 q 66 181 113 70 q 19 418 19 291 q 67 654 19 544 q 197 847 115 765 q 389 976 279 929 q 625 1023 500 1023 q 859 976 748 1023 q 1051 847 969 929 q 1181 654 1133 765 q 1230 418 1230 544 l 1230 418 m 1184 418 q 1139 636 1184 534 q 1019 813 1094 738 q 840 934 943 890 q 625 977 738 977 q 407 934 509 977 q 230 813 305 890 q 109 636 154 738 q 65 418 65 534 q 109 200 65 301 q 229 22 152 98 q 406 -97 305 -54 q 625 -141 508 -141 q 842 -97 740 -141 q 1020 22 944 -54 q 1140 200 1095 98 q 1184 418 1184 301 l 1184 418 m 994 240 l 919 240 l 919 73 l 840 73 l 840 240 l 577 240 l 577 306 l 847 762 l 919 762 l 919 306 l 994 306 l 994 240 m 840 306 l 840 622 l 652 306 l 840 306 m 420 73 l 340 73 l 340 590 l 229 590 l 229 647 q 269 654 250 650 q 305 669 288 658 q 336 703 322 681 q 361 762 350 725 l 420 762 l 420 73 "},"∇":{"x_min":13.890625,"x_max":1234.71875,"ha":1250,"o":"m 13 937 l 1234 937 l 625 -119 l 13 937 m 625 23 l 1111 869 l 137 869 l 625 23 "},"박":{"x_min":84.71875,"x_max":1252.78125,"ha":1250,"o":"m 1063 776 l 1252 776 l 1252 655 l 1063 655 l 1063 297 l 919 297 l 919 1070 l 1063 1070 l 1063 776 m 84 1026 l 229 1026 l 229 815 l 523 815 l 523 1026 l 668 1026 l 668 387 l 84 387 l 84 1026 m 229 701 l 229 502 l 523 502 l 523 701 l 229 701 m 316 108 l 316 223 l 1063 223 l 1063 -225 l 918 -225 l 918 108 l 316 108 "},"걷":{"x_min":51.390625,"x_max":1122.21875,"ha":1250,"o":"m 963 763 l 963 1072 l 1106 1072 l 1106 311 l 963 311 l 963 645 l 711 645 l 711 763 l 963 763 m 141 338 l 51 434 q 214 506 126 459 q 375 618 302 554 q 483 743 441 675 q 529 891 525 812 l 120 891 l 120 1008 l 695 1008 q 655 781 695 883 q 544 597 615 679 q 367 450 469 513 q 141 338 265 387 m 376 247 l 1101 247 l 1101 127 l 518 127 l 518 -97 l 1122 -97 l 1122 -209 l 376 -209 l 376 247 "},"셌":{"x_min":15.28125,"x_max":1211.109375,"ha":1250,"o":"m 720 706 l 537 706 l 537 823 l 720 823 l 720 1054 l 855 1054 l 855 301 l 720 301 l 720 706 m 106 362 l 15 445 q 134 550 83 495 q 216 669 184 604 q 256 788 243 725 q 270 927 270 852 l 270 1026 l 418 1026 l 418 927 q 429 797 418 856 q 468 686 441 737 q 538 579 494 627 q 645 487 583 531 l 570 394 q 502 445 537 415 q 438 509 468 475 q 384 575 408 541 q 348 643 361 609 q 311 567 336 605 q 255 494 286 529 q 179 418 219 452 q 106 362 140 383 m 995 300 l 995 1069 l 1136 1069 l 1136 300 l 995 300 m 709 -240 q 638 -193 670 -219 q 577 -143 605 -168 q 534 -95 552 -119 q 502 -45 515 -70 q 469 -95 488 -70 q 425 -144 450 -120 q 363 -195 397 -170 q 288 -240 329 -219 l 208 -152 q 309 -83 266 -120 q 380 0 352 -45 q 417 88 405 40 q 429 193 429 137 l 429 248 l 573 248 l 573 197 q 587 91 573 143 q 626 -2 601 40 q 662 -52 641 -29 q 708 -94 683 -75 q 758 -47 736 -73 q 797 6 780 -22 q 833 97 820 48 q 845 197 845 145 l 845 248 l 990 248 l 990 193 q 1002 84 990 134 q 1043 -8 1013 33 q 1110 -86 1068 -51 q 1211 -151 1152 -122 l 1134 -240 q 1059 -196 1093 -219 q 997 -147 1025 -173 q 949 -95 969 -122 q 918 -44 929 -69 q 887 -91 905 -66 q 845 -140 869 -116 q 781 -193 816 -168 q 709 -240 747 -219 "},"숭":{"x_min":29.171875,"x_max":1220.828125,"ha":1250,"o":"m 551 381 l 29 381 l 29 493 l 1220 493 l 1220 381 l 705 381 l 705 262 q 806 226 759 251 q 886 165 852 201 q 938 86 919 130 q 958 -6 958 41 q 932 -114 958 -63 q 862 -202 906 -165 q 759 -261 818 -240 q 631 -283 700 -283 q 504 -261 563 -283 q 401 -202 445 -240 q 331 -114 356 -165 q 306 -6 306 -63 q 325 84 306 40 q 376 163 343 127 q 453 223 408 198 q 551 259 498 248 l 551 381 m 811 -6 q 759 108 811 61 q 631 155 708 155 q 503 108 556 155 q 450 -6 450 61 q 501 -121 450 -75 q 627 -168 552 -168 q 756 -121 702 -168 q 811 -6 811 -75 m 626 819 q 556 734 600 773 q 462 662 512 694 q 349 599 408 626 q 234 555 290 572 l 158 654 q 287 704 215 669 q 420 790 359 740 q 508 881 472 831 q 544 990 544 931 l 544 1065 l 706 1065 l 706 990 q 744 875 706 927 q 836 779 781 822 q 963 700 894 733 q 1088 654 1031 668 l 1019 555 q 909 596 968 570 q 797 656 851 622 q 700 730 743 690 q 626 819 656 770 "},"떻":{"x_min":87.5,"x_max":1134.71875,"ha":1250,"o":"m 963 798 l 963 1072 l 1106 1072 l 1106 354 l 963 354 l 963 677 l 743 677 l 743 798 l 963 798 m 468 1022 l 800 1022 l 800 905 l 604 905 l 604 562 q 745 568 666 562 q 883 586 823 575 l 883 470 q 818 460 855 465 q 738 451 780 455 q 654 445 697 447 q 576 443 612 443 l 468 443 l 468 1022 m 87 448 l 87 1022 l 401 1022 l 401 905 l 222 905 l 222 566 q 322 570 268 566 q 420 584 376 573 l 420 470 q 297 455 370 462 q 162 448 223 448 l 87 448 m 938 131 q 1006 60 980 105 q 1031 -30 1031 15 q 1008 -127 1031 -83 q 943 -202 984 -170 q 845 -252 901 -234 q 725 -269 788 -269 q 603 -252 659 -269 q 506 -202 547 -234 q 442 -127 465 -170 q 419 -30 419 -83 q 443 60 419 15 q 509 131 468 105 l 305 131 l 305 243 l 652 243 l 652 386 l 798 386 l 798 243 l 1134 243 l 1134 131 l 938 131 m 725 118 q 611 79 658 118 q 565 -20 565 41 q 613 -122 565 -86 q 725 -159 661 -159 q 836 -123 787 -159 q 886 -20 886 -87 q 838 79 886 41 q 725 118 790 118 "},"멨":{"x_min":75,"x_max":1211.109375,"ha":1250,"o":"m 569 648 l 569 416 l 75 416 l 75 1016 l 569 1016 l 569 765 l 718 765 l 718 1054 l 852 1054 l 852 301 l 718 301 l 718 648 l 569 648 m 430 534 l 430 900 l 213 900 l 213 534 l 430 534 m 995 300 l 995 1069 l 1136 1069 l 1136 300 l 995 300 m 709 -240 q 638 -193 670 -219 q 577 -143 605 -168 q 534 -95 552 -119 q 502 -45 515 -70 q 469 -95 488 -70 q 425 -144 450 -120 q 363 -195 397 -170 q 288 -240 329 -219 l 208 -152 q 309 -83 266 -120 q 380 0 352 -45 q 417 88 405 40 q 429 193 429 137 l 429 248 l 573 248 l 573 197 q 587 91 573 143 q 626 -2 601 40 q 662 -52 641 -29 q 708 -94 683 -75 q 758 -47 736 -73 q 797 6 780 -22 q 833 97 820 48 q 845 197 845 145 l 845 248 l 990 248 l 990 193 q 1002 84 990 134 q 1043 -8 1013 33 q 1110 -86 1068 -51 q 1211 -151 1152 -122 l 1134 -240 q 1059 -196 1093 -219 q 997 -147 1025 -173 q 949 -95 969 -122 q 918 -44 929 -69 q 887 -91 905 -66 q 845 -140 869 -116 q 781 -193 816 -168 q 709 -240 747 -219 "},"⒲":{"x_min":37.5,"x_max":1212.5,"ha":1250,"o":"m 37 416 q 55 606 37 520 q 101 762 73 693 q 161 886 127 833 q 223 979 194 940 l 276 979 q 152 704 186 850 q 119 416 119 559 q 154 127 119 269 q 276 -145 188 -15 l 223 -145 q 161 -56 194 -109 q 101 66 129 -2 q 55 224 73 137 q 37 416 37 311 l 37 416 m 1212 416 q 1193 224 1212 311 q 1147 66 1175 137 q 1086 -56 1119 -2 q 1026 -145 1054 -109 l 973 -145 q 1096 127 1061 -15 q 1131 416 1131 269 q 1097 704 1131 559 q 973 979 1062 850 l 1026 979 q 1088 886 1055 940 q 1148 762 1120 833 q 1193 606 1175 693 q 1212 416 1212 520 l 1212 416 m 627 556 l 518 95 l 406 95 l 247 729 l 347 729 l 462 243 l 572 729 l 681 729 l 793 243 l 906 729 l 1006 729 l 847 95 l 737 95 l 627 556 "},"햐":{"x_min":36.109375,"x_max":1254.171875,"ha":1250,"o":"m 1063 772 l 1254 772 l 1254 659 l 1063 659 l 1063 426 l 1254 426 l 1254 315 l 1063 315 l 1063 -170 l 920 -170 l 920 1069 l 1063 1069 l 1063 772 m 340 894 l 340 1095 l 486 1095 l 486 894 l 795 894 l 795 776 l 36 776 l 36 894 l 340 894 m 415 581 q 288 525 334 581 q 241 388 241 469 q 289 252 241 306 q 416 198 337 197 q 540 252 495 198 q 587 388 586 305 q 540 527 586 472 q 415 581 494 581 m 413 698 q 540 675 481 698 q 640 609 598 651 q 706 511 683 568 q 731 387 730 454 q 706 263 730 320 q 641 165 683 206 q 542 100 600 123 q 416 77 484 76 q 288 100 347 76 q 188 165 230 123 q 123 263 147 206 q 100 387 100 320 q 122 511 100 454 q 187 609 145 568 q 286 675 229 651 q 413 698 344 698 "},"앍":{"x_min":44.4375,"x_max":1252.78125,"ha":1250,"o":"m 1063 808 l 1252 808 l 1252 686 l 1063 686 l 1063 397 l 919 397 l 919 1070 l 1063 1070 l 1063 808 m 370 1051 q 497 1026 437 1051 q 601 959 556 1001 q 672 859 645 916 q 698 738 698 802 q 672 616 698 673 q 601 518 645 559 q 497 450 556 475 q 370 426 437 426 q 243 450 302 426 q 140 518 184 475 q 70 616 95 559 q 44 738 44 673 q 70 859 44 802 q 140 959 95 916 q 243 1026 184 1001 q 370 1051 302 1051 m 370 926 q 243 872 295 926 q 190 738 190 818 q 243 604 190 658 q 370 551 295 551 q 499 604 445 551 q 552 738 552 658 q 499 872 552 818 q 370 926 445 926 m 720 225 l 720 333 l 1061 333 l 1061 -225 l 926 -225 l 926 225 l 720 225 m 266 119 l 520 119 l 520 226 l 266 226 l 266 334 l 658 334 l 658 12 l 408 12 l 408 -100 l 484 -100 q 600 -95 533 -100 q 727 -81 668 -90 l 727 -191 q 568 -206 656 -201 q 405 -212 479 -212 l 266 -212 l 266 119 "},"¤":{"x_min":109.71875,"x_max":1138.890625,"ha":1250,"o":"m 625 794 q 477 764 545 794 q 356 683 408 734 q 276 563 305 631 q 247 416 247 494 q 276 268 247 337 q 356 148 305 200 q 477 68 408 97 q 625 38 545 38 q 771 68 702 38 q 891 148 840 97 q 973 268 943 200 q 1004 416 1004 337 q 973 563 1004 494 q 891 683 943 631 q 771 764 840 734 q 625 794 702 794 l 625 794 m 165 -97 l 109 -41 l 272 122 q 194 256 222 180 q 166 416 166 331 q 195 576 166 500 q 273 712 223 652 l 109 879 l 165 934 l 330 768 q 464 847 388 818 q 625 876 540 876 q 784 847 708 876 q 919 769 859 819 l 1083 934 l 1138 879 q 1112 853 1136 876 q 1059 801 1088 830 q 1005 747 1031 773 q 972 715 979 722 q 1054 578 1025 655 q 1083 416 1083 501 q 1054 256 1083 331 q 976 122 1026 180 l 1138 -41 l 1083 -97 l 920 65 q 785 -14 861 13 q 625 -43 709 -43 q 463 -13 540 -43 q 327 66 386 15 l 165 -97 "},"p":{"x_min":108.328125,"x_max":787.5,"ha":849,"o":"m 483 745 q 618 713 561 745 q 713 627 676 680 q 769 504 751 573 q 787 362 787 436 q 770 213 787 287 q 716 83 752 140 q 622 -9 679 26 q 484 -44 565 -44 q 344 -16 401 -44 q 245 65 287 11 l 245 -283 l 108 -283 l 108 729 l 238 729 l 238 627 q 332 709 273 673 q 483 745 391 745 m 448 70 q 537 98 501 70 q 597 169 573 126 q 629 261 619 212 q 640 355 640 311 q 630 450 640 401 q 598 540 620 500 q 539 606 576 580 q 450 633 502 633 q 363 608 401 633 q 300 543 325 583 q 260 452 273 502 q 247 351 247 401 q 257 256 247 305 q 293 165 268 206 q 354 97 316 123 q 448 70 393 70 "},"죕":{"x_min":29.171875,"x_max":1108.328125,"ha":1250,"o":"m 366 286 l 512 286 l 512 151 l 956 151 l 956 286 l 1102 286 l 1102 -211 l 366 -211 l 366 286 m 956 38 l 512 38 l 512 -97 l 956 -97 l 956 38 m 1108 348 l 965 348 l 965 1070 l 1108 1070 l 1108 348 m 369 476 l 369 626 l 520 626 l 520 483 q 706 492 604 484 q 898 511 809 500 l 898 400 q 788 386 854 393 q 645 375 723 380 q 484 366 569 369 q 316 365 400 363 l 29 363 l 29 476 l 369 476 m 662 930 q 611 862 640 894 q 550 801 583 830 q 677 743 608 768 q 815 705 747 719 l 763 594 q 604 650 688 612 q 456 730 520 687 q 293 642 380 679 q 120 588 206 605 l 62 680 q 306 769 188 705 q 493 927 423 833 l 148 927 l 148 1040 l 662 1040 l 662 930 "},"콜":{"x_min":30.5625,"x_max":1220.828125,"ha":1250,"o":"m 848 702 q 756 695 805 698 q 659 690 706 693 q 570 688 612 688 q 501 687 529 687 l 230 687 l 230 802 l 526 802 q 688 805 602 802 q 861 816 773 808 q 864 872 863 845 q 863 919 865 898 l 229 919 l 229 1040 l 1019 1040 q 1016 920 1020 984 q 1006 791 1012 855 q 988 667 998 727 q 963 558 977 606 l 818 558 q 833 621 825 583 q 848 702 841 659 m 480 497 l 480 634 l 634 634 l 634 497 l 1220 497 l 1220 383 l 30 383 l 30 497 l 480 497 m 237 87 l 855 87 l 855 172 l 237 172 l 237 281 l 1009 281 l 1009 -15 l 393 -15 l 393 -102 l 1036 -102 l 1036 -212 l 237 -212 l 237 87 "},"쨌":{"x_min":-2.78125,"x_max":1213.890625,"ha":1250,"o":"m 713 -241 q 642 -197 676 -220 q 580 -148 608 -173 q 536 -101 555 -125 q 505 -52 518 -77 q 474 -100 493 -77 q 430 -144 455 -123 q 367 -195 402 -172 q 290 -241 331 -219 l 209 -156 q 315 -83 272 -123 q 388 2 359 -43 q 420 86 409 40 q 431 184 431 131 l 431 248 l 576 248 l 576 187 q 589 84 576 134 q 627 -6 602 34 q 665 -56 644 -33 q 711 -98 686 -79 q 763 -52 740 -77 q 802 2 786 -26 q 836 90 825 43 q 848 187 848 137 l 848 248 l 993 248 l 993 184 q 1005 76 993 126 q 1047 -15 1018 26 q 1114 -91 1072 -56 q 1213 -155 1156 -126 l 1140 -241 q 1062 -197 1098 -220 q 998 -148 1026 -175 q 952 -100 972 -125 q 920 -51 931 -76 q 891 -96 909 -73 q 851 -141 873 -119 q 786 -195 822 -170 q 713 -241 751 -220 m 1031 772 l 1031 1070 l 1168 1070 l 1168 308 l 1031 308 l 1031 647 l 909 647 l 909 308 l 780 308 l 780 1056 l 909 1056 l 909 772 l 1031 772 m 644 1016 l 644 902 q 625 783 640 844 q 588 662 611 722 q 663 561 618 612 q 763 476 709 511 l 679 384 q 598 456 636 413 q 533 544 561 500 q 442 409 494 473 q 327 297 390 345 l 233 365 q 288 413 262 387 q 340 469 315 440 q 288 522 312 494 q 243 581 263 551 q 170 492 209 533 q 87 419 130 451 l -2 487 q 161 671 98 562 q 236 901 225 780 l 52 901 l 52 1016 l 644 1016 m 405 563 q 478 727 451 641 q 512 901 505 813 l 362 901 q 343 793 358 847 q 304 687 327 738 q 349 622 323 655 q 405 563 375 590 "},"⑵":{"x_min":18.0625,"x_max":1233.328125,"ha":1250,"o":"m 862 18 l 388 18 q 406 125 393 80 q 443 205 420 169 q 493 270 463 240 q 558 334 522 301 q 626 389 588 363 q 695 444 663 415 q 750 511 727 473 q 772 604 772 550 q 765 659 772 630 q 744 711 758 687 q 706 748 729 733 q 650 763 683 763 q 569 738 598 763 q 526 677 540 712 q 506 608 511 643 q 502 555 502 573 l 408 555 q 425 661 411 609 q 469 752 440 712 q 540 815 497 791 q 647 840 584 840 q 715 829 677 840 q 786 794 752 819 q 840 721 818 768 q 862 602 862 675 q 853 521 862 556 q 825 454 844 486 q 771 390 804 422 q 690 325 738 359 q 595 247 630 280 q 541 187 561 213 q 515 138 523 161 q 502 94 508 116 l 862 94 l 862 18 m 1233 418 q 1186 113 1233 259 q 1052 -161 1140 -31 l 1006 -161 q 1054 -78 1025 -131 q 1112 50 1084 -25 q 1162 216 1141 123 q 1183 418 1183 309 q 1162 618 1183 525 q 1112 784 1141 711 q 1054 913 1084 859 q 1006 997 1025 966 l 1052 997 q 1186 720 1140 868 q 1233 418 1233 573 l 1233 418 m 244 -161 l 198 -161 q 63 113 109 -31 q 18 418 18 259 q 63 720 18 573 q 198 997 109 868 l 244 997 q 195 913 225 966 q 137 784 165 859 q 88 618 108 711 q 68 418 68 525 q 88 216 68 309 q 137 50 108 123 q 195 -78 165 -25 q 244 -161 225 -131 l 244 -161 "},"햇":{"x_min":12.5,"x_max":1140.28125,"ha":1250,"o":"m 995 759 l 995 1069 l 1136 1069 l 1136 293 l 995 293 l 995 634 l 854 634 l 854 326 l 719 326 l 719 1054 l 854 1054 l 854 759 l 995 759 m 636 268 l 797 268 l 797 180 q 830 68 797 122 q 918 -29 863 13 q 1025 -106 966 -75 q 1140 -154 1084 -138 l 1061 -248 q 961 -209 1013 -236 q 859 -147 908 -181 q 777 -75 813 -113 q 719 0 740 -37 q 662 -73 700 -36 q 577 -144 625 -111 q 474 -208 527 -180 q 372 -248 420 -236 l 293 -154 q 418 -98 352 -136 q 536 -11 484 -61 q 609 79 581 30 q 636 180 636 129 l 636 268 m 636 833 l 12 833 l 12 948 l 258 948 l 258 1111 l 391 1111 l 391 948 l 636 948 l 636 833 m 327 672 q 220 631 263 672 q 177 533 177 591 q 221 434 177 472 q 329 395 265 395 q 434 435 391 395 q 477 534 477 475 q 434 632 477 593 q 327 672 390 672 m 327 781 q 438 763 387 781 q 527 711 490 744 q 586 631 565 677 q 608 533 608 586 q 586 432 608 479 q 527 351 565 386 q 439 297 490 316 q 329 277 388 277 q 218 296 269 277 q 129 350 166 315 q 68 431 90 384 q 47 533 47 477 q 68 633 47 587 q 127 711 90 679 q 216 763 165 744 q 327 781 268 781 "},"뺑":{"x_min":56.9375,"x_max":1168.0625,"ha":1250,"o":"m 1031 794 l 1031 1070 l 1168 1070 l 1168 309 l 1031 309 l 1031 668 l 909 668 l 909 344 l 780 344 l 780 1056 l 909 1056 l 909 794 l 1031 794 m 427 1023 l 427 813 l 545 813 l 545 1023 l 676 1023 l 676 372 l 56 372 l 56 1023 l 184 1023 l 184 813 l 308 813 l 308 1023 l 427 1023 m 427 702 l 427 483 l 545 483 l 545 702 l 427 702 m 184 702 l 184 483 l 308 483 l 308 702 l 184 702 m 773 -283 q 649 -261 706 -283 q 547 -198 591 -238 q 479 -106 504 -159 q 454 6 454 -54 q 479 120 454 66 q 547 212 504 173 q 649 275 591 252 q 773 298 706 298 q 898 275 840 298 q 1000 212 956 252 q 1068 120 1043 173 q 1094 6 1094 66 q 1068 -106 1094 -54 q 1000 -198 1043 -159 q 898 -261 956 -238 q 773 -283 840 -283 m 773 179 q 647 128 698 179 q 595 6 595 77 q 645 -113 595 -63 q 769 -162 694 -162 q 896 -113 843 -162 q 950 6 950 -63 q 899 128 950 77 q 773 179 848 179 "},"찾":{"x_min":16.671875,"x_max":1252.78125,"ha":1250,"o":"m 620 147 l 318 147 l 318 262 l 1075 262 l 1075 147 l 772 147 q 811 47 780 94 q 894 -38 843 0 q 1007 -109 945 -80 q 1126 -155 1069 -138 l 1051 -245 q 950 -209 1001 -233 q 852 -155 898 -186 q 763 -87 804 -125 q 698 -9 723 -50 q 634 -83 673 -48 q 551 -147 595 -118 q 445 -204 500 -180 q 340 -245 390 -229 l 259 -155 q 386 -106 319 -138 q 508 -29 452 -75 q 583 52 555 8 q 620 147 611 97 m 1063 787 l 1252 787 l 1252 665 l 1063 665 l 1063 333 l 919 333 l 919 1070 l 1063 1070 l 1063 787 m 312 950 l 312 1111 l 458 1111 l 458 950 l 633 950 l 633 858 q 591 745 618 800 q 530 643 565 691 q 651 547 581 590 q 797 479 720 504 l 726 365 q 580 438 655 388 q 448 547 505 487 q 286 418 376 475 q 101 326 197 362 l 16 419 q 164 488 91 445 q 298 583 237 530 q 406 700 361 637 q 473 831 451 762 l 91 831 l 91 950 l 312 950 "},"졍":{"x_min":41.671875,"x_max":1106.953125,"ha":1250,"o":"m 756 -283 q 631 -261 690 -283 q 530 -198 573 -238 q 462 -106 487 -159 q 437 6 437 -54 q 462 120 437 66 q 530 212 487 173 q 631 275 573 252 q 756 298 690 298 q 880 275 822 298 q 981 212 938 252 q 1050 120 1025 173 q 1076 6 1076 66 q 1050 -106 1076 -54 q 981 -198 1025 -159 q 880 -261 938 -238 q 756 -283 822 -283 m 931 6 q 881 128 931 77 q 756 179 830 179 q 629 128 681 179 q 577 6 577 77 q 627 -113 577 -63 q 752 -162 677 -162 q 879 -113 826 -162 q 931 6 931 -63 m 963 906 l 963 1072 l 1106 1072 l 1106 284 l 963 284 l 963 579 l 711 579 l 711 690 l 963 690 l 963 795 l 715 795 l 715 906 l 963 906 m 627 898 q 586 766 615 831 q 516 640 558 701 q 650 542 573 588 q 801 463 726 495 l 723 348 q 573 434 648 380 q 441 547 498 487 q 293 413 375 473 q 123 313 212 354 l 41 406 q 188 491 118 440 q 318 606 259 543 q 414 744 375 670 q 469 897 454 818 l 113 897 l 113 1013 l 627 1013 l 627 898 "},"루":{"x_min":31.9375,"x_max":1219.453125,"ha":1250,"o":"m 551 166 l 31 166 l 31 279 l 1219 279 l 1219 166 l 705 166 l 705 -188 l 551 -188 l 551 166 m 861 780 l 861 911 l 236 911 l 236 1027 l 1013 1027 l 1013 668 l 390 668 l 390 533 l 1041 533 l 1041 413 l 236 413 l 236 780 l 861 780 "},"y":{"x_min":31.9375,"x_max":744.453125,"ha":772,"o":"m 744 729 l 461 11 q 418 -94 440 -41 q 363 -188 395 -147 q 288 -257 333 -231 q 179 -283 243 -283 q 113 -276 151 -283 q 56 -261 76 -269 l 65 -150 q 109 -167 87 -162 q 159 -172 130 -172 q 220 -157 194 -172 q 266 -118 247 -143 q 299 -61 286 -93 q 320 4 312 -29 l 293 77 l 31 729 l 183 729 l 394 152 l 605 729 l 744 729 "},"듣":{"x_min":29.171875,"x_max":1220.828125,"ha":1250,"o":"m 236 1029 l 1016 1029 l 1016 911 l 379 911 l 379 706 l 1029 706 l 1029 593 l 236 593 l 236 1029 m 29 333 l 29 451 l 1220 451 l 1220 333 l 29 333 m 237 194 l 1011 194 l 1011 80 l 379 80 l 379 -98 l 1022 -98 l 1022 -209 l 237 -209 l 237 194 "},"곌":{"x_min":33.328125,"x_max":1154.171875,"ha":1250,"o":"m 551 925 l 720 925 l 720 1054 l 855 1054 l 855 404 l 720 404 l 720 552 l 502 552 l 502 668 l 720 668 l 720 809 l 526 809 q 490 724 511 765 q 444 645 469 683 q 304 486 386 558 q 126 361 222 415 l 33 441 q 184 544 115 487 q 302 665 254 601 q 374 784 348 723 q 402 897 400 844 l 100 897 l 100 1015 l 558 1015 q 556 968 558 991 q 551 925 555 945 m 995 402 l 995 1069 l 1136 1069 l 1136 402 l 995 402 m 386 120 l 970 120 l 970 226 l 386 226 l 386 334 l 1126 334 l 1126 15 l 543 15 l 543 -100 l 1154 -100 l 1154 -212 l 386 -212 l 386 120 "},"껑":{"x_min":33.328125,"x_max":1106.953125,"ha":1250,"o":"m 963 780 l 963 1072 l 1106 1072 l 1106 287 l 963 287 l 963 661 l 745 661 l 745 738 q 643 504 709 613 q 484 315 577 395 l 369 377 q 474 489 427 427 q 552 619 520 551 q 603 759 584 687 q 627 900 622 830 l 456 900 q 417 761 445 831 q 347 623 388 690 q 252 497 305 556 q 143 395 200 438 l 33 459 q 133 551 86 500 q 216 659 180 602 q 276 777 252 716 q 306 900 300 838 l 81 900 l 81 1015 l 783 1015 q 776 895 783 954 q 756 780 769 836 l 963 780 m 756 -283 q 631 -261 690 -283 q 530 -198 573 -238 q 462 -106 487 -159 q 437 6 437 -54 q 462 120 437 66 q 530 212 487 173 q 631 275 573 252 q 756 298 690 298 q 880 275 822 298 q 981 212 938 252 q 1050 120 1025 173 q 1076 6 1076 66 q 1050 -106 1076 -54 q 981 -198 1025 -159 q 880 -261 938 -238 q 756 -283 822 -283 m 931 6 q 881 128 931 77 q 756 179 830 179 q 629 128 681 179 q 577 6 577 77 q 627 -113 577 -63 q 752 -162 677 -162 q 879 -113 826 -162 q 931 6 931 -63 "},"∵":{"x_min":152.78125,"x_max":1095.828125,"ha":1250,"o":"m 997 829 q 1066 800 1037 829 q 1095 731 1095 772 q 1066 661 1095 690 q 997 633 1037 633 q 927 661 956 633 q 898 731 898 690 q 927 800 898 772 q 997 829 956 829 l 997 829 m 633 213 q 703 185 675 213 q 731 116 731 156 q 703 46 731 75 q 633 18 675 18 q 563 46 593 18 q 534 116 534 75 q 563 185 534 156 q 633 213 593 213 l 633 213 m 251 829 q 320 800 291 829 q 350 731 350 772 q 320 661 350 690 q 251 633 291 633 q 181 661 209 633 q 152 731 152 690 q 181 800 152 772 q 251 829 209 829 l 251 829 "},"지":{"x_min":40.28125,"x_max":1108.328125,"ha":1250,"o":"m 963 -170 l 963 1070 l 1108 1070 l 1108 -170 l 963 -170 m 550 541 q 688 395 606 466 q 863 270 770 323 l 766 159 q 611 284 687 211 q 477 433 536 358 q 316 257 406 337 q 127 119 226 177 l 40 208 q 213 332 131 258 q 358 495 294 406 q 463 682 420 584 q 519 877 505 780 l 140 877 l 140 1001 l 672 1001 l 672 887 q 628 708 659 795 q 550 541 597 620 "},"쿡":{"x_min":30.5625,"x_max":1220.828125,"ha":1250,"o":"m 848 662 q 756 655 805 658 q 661 650 708 652 q 571 647 613 648 q 501 647 529 647 l 230 647 l 230 762 l 526 762 q 687 765 602 762 q 859 776 772 768 q 864 855 863 819 q 863 915 865 891 l 229 915 l 229 1036 l 1019 1036 q 1016 906 1020 981 q 1006 751 1012 830 q 989 608 1000 679 q 966 484 979 537 l 1220 484 l 1220 370 l 705 370 l 705 208 l 1011 208 l 1011 -234 l 865 -234 l 865 93 l 223 93 l 223 208 l 551 208 l 551 370 l 30 370 l 30 484 l 820 484 q 836 561 829 513 q 848 662 843 609 "},"됐":{"x_min":20.828125,"x_max":1222.21875,"ha":1250,"o":"m 330 593 l 137 593 l 137 1027 l 631 1027 l 631 915 l 280 915 l 280 704 l 644 704 l 644 593 l 470 593 l 470 444 q 610 454 545 448 q 722 465 675 459 l 722 355 q 608 342 677 348 q 458 330 538 336 q 295 322 379 326 q 140 319 212 319 l 20 318 l 20 431 l 86 431 q 203 433 140 431 q 330 437 266 434 l 330 593 m 722 -241 q 651 -200 684 -223 q 593 -152 618 -177 q 546 -107 565 -130 q 515 -61 527 -84 q 481 -108 501 -86 q 437 -151 462 -130 q 372 -198 408 -176 q 295 -241 336 -220 l 219 -152 q 320 -88 277 -123 q 393 -13 363 -54 q 429 65 416 22 q 441 163 441 109 l 441 209 l 584 209 l 584 166 q 597 68 584 115 q 636 -18 611 20 q 673 -63 652 -43 q 719 -101 694 -84 q 769 -60 747 -83 q 808 -12 791 -37 q 845 70 833 25 q 856 166 856 116 l 856 209 l 1001 209 l 1001 163 q 1013 68 1001 112 q 1050 -12 1025 25 q 1118 -89 1075 -54 q 1222 -152 1161 -125 l 1151 -241 q 1076 -202 1112 -225 q 1011 -155 1040 -180 q 962 -109 983 -133 q 929 -59 941 -84 q 899 -106 918 -83 q 855 -150 880 -129 q 793 -200 827 -176 q 722 -241 759 -223 m 1030 569 l 898 569 l 898 250 l 766 250 l 766 1055 l 898 1055 l 898 687 l 1030 687 l 1030 1069 l 1168 1069 l 1168 250 l 1030 250 l 1030 569 "},"⑻":{"x_min":18.0625,"x_max":1233.328125,"ha":1250,"o":"m 731 450 q 765 431 744 443 q 809 398 787 420 q 846 336 830 375 q 862 234 862 297 q 800 63 862 130 q 626 -4 737 -4 q 449 64 509 -4 q 388 234 388 133 q 404 330 388 291 q 441 394 420 369 q 485 430 463 418 q 519 450 506 443 q 491 462 509 452 q 456 493 473 472 q 426 545 438 512 q 413 627 413 577 q 467 776 413 712 q 626 840 520 840 q 783 777 729 840 q 837 627 837 715 q 813 524 837 577 q 731 450 790 470 l 731 450 m 626 763 q 562 747 586 763 q 526 709 538 731 q 510 662 513 687 q 506 620 506 637 q 539 513 506 548 q 626 477 572 477 q 688 493 665 477 q 723 531 712 509 q 739 579 736 555 q 743 620 743 604 q 713 725 743 687 q 626 763 683 763 l 626 763 m 626 413 q 523 368 563 413 q 483 238 483 322 q 490 178 483 208 q 513 125 497 148 q 557 86 530 101 q 626 72 584 72 q 692 86 665 72 q 736 125 719 101 q 760 178 752 148 q 768 238 768 208 q 730 363 768 313 q 626 413 693 413 l 626 413 m 1233 418 q 1186 113 1233 259 q 1052 -161 1140 -31 l 1006 -161 q 1054 -78 1025 -131 q 1112 50 1084 -25 q 1162 216 1141 123 q 1183 418 1183 309 q 1162 618 1183 525 q 1112 784 1141 711 q 1054 913 1084 859 q 1006 997 1025 966 l 1052 997 q 1186 720 1140 868 q 1233 418 1233 573 l 1233 418 m 244 -161 l 198 -161 q 63 113 109 -31 q 18 418 18 259 q 63 720 18 573 q 198 997 109 868 l 244 997 q 195 913 225 966 q 137 784 165 859 q 88 618 108 711 q 68 418 68 525 q 88 216 68 309 q 137 50 108 123 q 195 -78 165 -25 q 244 -161 225 -131 l 244 -161 "},"랄":{"x_min":87.5,"x_max":1252.78125,"ha":1250,"o":"m 1063 808 l 1252 808 l 1252 686 l 1063 686 l 1063 397 l 919 397 l 919 1070 l 1063 1070 l 1063 808 m 830 586 l 830 475 q 713 459 783 466 q 566 445 644 451 q 409 437 488 440 q 265 434 330 434 l 87 434 l 87 790 l 484 790 l 484 915 l 87 915 l 87 1029 l 633 1029 l 633 680 l 236 680 l 236 552 l 354 552 q 461 554 401 552 q 586 562 522 556 q 713 572 650 566 q 830 586 776 579 m 334 120 l 904 120 l 904 226 l 334 226 l 334 334 l 1059 334 l 1059 15 l 491 15 l 491 -100 l 1090 -100 l 1090 -212 l 334 -212 l 334 120 "},"뵈":{"x_min":48.609375,"x_max":1108.328125,"ha":1250,"o":"m 384 377 l 173 377 l 173 1016 l 315 1016 l 315 815 l 601 815 l 601 1016 l 744 1016 l 744 377 l 538 377 l 538 158 q 739 169 643 162 q 898 184 836 176 l 898 72 q 784 59 854 65 q 634 50 715 54 q 472 41 555 44 q 316 38 388 38 l 48 36 l 48 151 l 263 151 q 322 151 291 151 q 384 152 352 151 l 384 377 m 315 698 l 315 497 l 601 497 l 601 698 l 315 698 m 966 -172 l 966 1069 l 1108 1069 l 1108 -172 l 966 -172 "},"왓":{"x_min":25,"x_max":1254.171875,"ha":1250,"o":"m 1063 581 l 1063 209 l 919 209 l 919 1070 l 1063 1070 l 1063 706 l 1254 706 l 1254 581 l 1063 581 m 340 544 q 170 637 237 565 q 102 804 102 709 q 127 907 102 859 q 194 991 151 955 q 293 1048 236 1027 q 415 1069 350 1069 q 536 1048 479 1069 q 636 991 593 1027 q 702 907 677 955 q 727 804 727 859 q 659 638 727 709 q 490 545 591 566 l 490 445 q 692 456 595 450 q 854 472 788 463 l 854 362 q 740 349 809 355 q 591 337 670 343 q 427 329 511 331 q 272 326 344 326 l 25 325 l 25 438 l 219 438 q 277 438 247 438 q 340 440 308 438 l 340 544 m 587 804 q 536 913 587 868 q 415 959 486 959 q 293 913 344 959 q 243 804 243 868 q 293 693 243 737 q 415 648 344 648 q 536 693 486 648 q 587 804 587 737 m 583 245 l 744 245 l 744 179 q 774 70 744 122 q 851 -23 804 18 q 962 -104 901 -70 q 1081 -154 1023 -137 l 1011 -248 q 915 -211 966 -236 q 819 -154 865 -187 q 727 -81 768 -120 q 666 -4 687 -43 q 604 -80 645 -41 q 513 -152 563 -119 q 413 -210 465 -184 q 316 -248 362 -236 l 241 -154 q 365 -100 300 -136 q 481 -15 430 -65 q 555 75 527 26 q 583 179 583 125 l 583 245 "},"어":{"x_min":77.78125,"x_max":1108.328125,"ha":1250,"o":"m 752 690 l 963 690 l 963 1070 l 1108 1070 l 1108 -170 l 963 -170 l 963 568 l 758 568 q 723 423 751 488 q 651 312 695 358 q 547 239 606 265 q 419 215 487 213 q 283 243 345 213 q 175 325 220 272 q 103 449 129 376 q 77 609 77 522 q 103 765 77 694 q 175 890 129 837 q 283 972 220 943 q 419 1002 345 1002 q 542 979 486 1002 q 641 915 598 955 q 713 815 684 873 q 752 690 741 758 m 419 876 q 341 855 377 876 q 279 798 305 834 q 237 714 252 763 q 223 609 222 665 q 279 413 222 484 q 419 343 336 343 q 558 417 502 343 q 615 609 613 491 q 558 802 613 729 q 419 876 502 876 "},"ⅷ":{"x_min":30.5625,"x_max":1186.109375,"ha":1250,"o":"m 1186 847 l 1087 847 l 1087 952 l 1186 952 l 1186 847 m 997 847 l 897 847 l 897 952 l 997 952 l 997 847 m 808 847 l 708 847 l 708 952 l 808 952 l 808 847 m 1183 -86 l 1090 -86 l 1090 675 l 1183 675 l 1183 -86 m 994 -86 l 900 -86 l 900 675 l 994 675 l 994 -86 m 806 -86 l 711 -86 l 711 675 l 806 675 l 806 -86 m 651 675 l 395 -86 l 281 -86 l 30 675 l 131 675 l 340 31 l 547 675 l 651 675 "},"흐":{"x_min":36.109375,"x_max":1211.109375,"ha":1250,"o":"m 36 -47 l 36 73 l 1211 73 l 1211 -47 l 36 -47 m 1094 823 l 154 823 l 154 943 l 550 943 l 550 1112 l 706 1112 l 706 943 l 1094 943 l 1094 823 m 623 650 q 483 604 543 650 q 423 484 423 559 q 484 364 423 406 q 625 322 545 322 q 764 363 704 322 q 825 484 825 404 q 765 606 825 563 q 623 650 705 650 m 622 766 q 753 746 690 766 q 863 690 816 726 q 940 601 912 654 q 969 483 969 548 q 940 365 969 418 q 865 276 912 313 q 755 220 818 240 q 625 201 693 200 q 493 220 555 200 q 384 276 430 240 q 309 365 337 313 q 281 483 281 418 q 309 600 281 548 q 383 690 336 652 q 490 746 429 726 q 622 766 552 766 "},"늙":{"x_min":30.5625,"x_max":1219.453125,"ha":1250,"o":"m 238 1068 l 388 1068 l 388 770 l 1019 770 l 1019 661 l 238 661 l 238 1068 m 30 423 l 30 534 l 1219 534 l 1219 423 l 30 423 m 216 100 l 476 100 l 476 187 l 216 187 l 216 297 l 609 297 l 609 -5 l 352 -5 l 352 -101 l 434 -101 q 551 -96 483 -101 q 679 -84 619 -91 l 679 -193 q 518 -208 606 -202 q 355 -213 430 -213 l 216 -213 l 216 100 m 679 181 l 679 297 l 1030 297 l 1030 -226 l 895 -226 l 895 181 l 679 181 "},"진":{"x_min":33.328125,"x_max":1138.890625,"ha":1250,"o":"m 963 129 l 963 1072 l 1106 1072 l 1106 129 l 963 129 m 377 198 l 523 198 l 523 -93 l 1138 -93 l 1138 -211 l 377 -211 l 377 198 m 654 898 q 611 772 638 833 q 547 655 584 711 q 678 550 604 597 q 830 472 752 504 l 752 352 q 602 439 676 386 q 469 555 527 493 q 302 408 394 473 q 112 301 211 343 l 33 394 q 192 481 115 427 q 331 602 269 536 q 436 744 393 669 q 493 897 479 819 l 119 897 l 119 1013 l 654 1013 l 654 898 "},"조":{"x_min":33.328125,"x_max":1213.890625,"ha":1250,"o":"m 547 79 l 547 398 l 697 398 l 697 79 l 1213 79 l 1213 -41 l 33 -41 l 33 79 l 547 79 m 901 890 q 826 770 869 827 q 731 661 783 712 q 917 555 815 604 q 1118 477 1019 506 l 1041 361 q 938 399 993 376 q 831 450 884 422 q 729 511 779 479 q 638 577 679 543 q 427 443 540 500 q 197 358 313 387 l 129 461 q 308 528 219 486 q 475 626 397 570 q 616 747 554 681 q 718 886 679 813 l 251 886 l 251 1008 l 901 1008 l 901 890 "},"㎼":{"x_min":40.28125,"x_max":1206.953125,"ha":1250,"o":"m 1006 193 l 1106 929 l 1206 929 l 1062 -84 l 952 -84 l 855 669 l 755 -84 l 647 -84 l 501 929 l 604 929 l 702 190 l 795 929 l 911 929 l 1006 193 m 337 -15 q 294 -62 320 -43 q 227 -81 268 -81 q 187 -71 204 -81 q 158 -41 170 -61 l 134 -204 l 40 -204 l 150 648 l 245 648 l 194 195 q 199 81 183 118 q 251 44 215 44 q 294 65 276 44 q 325 119 312 87 q 345 188 337 151 q 358 256 354 225 l 409 648 l 508 648 l 433 70 q 436 37 430 52 q 445 18 441 22 q 456 11 450 13 q 469 9 462 9 q 484 9 476 8 q 500 11 493 9 l 479 -81 q 441 -81 459 -81 q 409 -80 423 -81 q 383 -75 394 -79 q 366 -62 372 -70 q 347 -38 354 -50 q 337 -15 341 -27 l 337 -15 "},"녹":{"x_min":29.171875,"x_max":1220.828125,"ha":1250,"o":"m 556 638 l 238 638 l 238 1058 l 390 1058 l 390 754 l 1022 754 l 1022 638 l 698 638 l 698 470 l 1220 470 l 1220 355 l 29 355 l 29 470 l 556 470 l 556 638 m 223 93 l 223 208 l 1011 208 l 1011 -234 l 865 -234 l 865 93 l 223 93 "},"여":{"x_min":77.78125,"x_max":1108.328125,"ha":1250,"o":"m 963 733 l 779 733 l 779 855 l 963 855 l 963 1070 l 1108 1070 l 1108 -170 l 963 -170 l 963 362 l 779 362 l 779 484 l 963 484 l 963 733 m 419 1002 q 557 972 494 1002 q 665 890 620 943 q 734 765 709 837 q 759 609 759 694 q 734 449 759 522 q 662 325 708 376 q 555 243 618 272 q 419 215 493 213 q 283 243 345 213 q 175 325 220 272 q 103 449 129 376 q 77 609 77 522 q 103 765 77 694 q 175 890 129 837 q 283 972 220 943 q 419 1002 345 1002 m 419 876 q 341 855 377 876 q 279 798 305 834 q 237 714 252 763 q 223 609 222 665 q 279 413 222 484 q 419 343 336 343 q 558 417 502 343 q 615 609 613 491 q 558 802 613 729 q 419 876 502 876 "},"w":{"x_min":25,"x_max":1184.71875,"ha":1207,"o":"m 1184 729 l 951 -25 l 788 -25 l 605 612 l 423 -25 l 261 -25 l 25 729 l 175 729 l 344 95 l 525 729 l 693 729 l 873 100 l 1050 729 l 1184 729 "},"은":{"x_min":29.171875,"x_max":1220.828125,"ha":1250,"o":"m 954 805 q 927 686 954 741 q 856 590 901 631 q 752 526 812 550 q 625 502 693 502 q 495 526 555 502 q 391 590 436 550 q 321 686 347 631 q 295 805 295 741 q 321 922 295 868 q 391 1018 347 977 q 495 1082 436 1058 q 625 1106 555 1106 q 752 1082 693 1106 q 856 1018 812 1058 q 927 922 901 977 q 954 805 954 868 m 625 619 q 697 634 663 619 q 758 673 731 648 q 800 732 784 698 q 815 805 815 766 q 800 876 815 843 q 758 934 784 909 q 697 974 731 959 q 625 988 663 988 q 550 974 584 988 q 490 934 516 959 q 449 876 463 909 q 434 805 434 843 q 449 732 434 766 q 490 673 463 698 q 550 634 516 648 q 625 619 584 619 m 29 277 l 29 394 l 1220 394 l 1220 277 l 29 277 m 241 186 l 393 186 l 393 -91 l 1034 -91 l 1034 -208 l 241 -208 l 241 186 "},"갠":{"x_min":33.328125,"x_max":1150,"ha":1250,"o":"m 995 745 l 995 1069 l 1136 1069 l 1136 165 l 995 165 l 995 619 l 838 619 l 838 197 l 702 197 l 702 1054 l 838 1054 l 838 745 l 995 745 m 129 304 l 33 384 q 184 488 112 426 q 309 623 255 550 q 375 747 350 677 q 402 891 401 818 l 100 891 l 100 1009 l 558 1009 q 538 821 558 913 q 475 645 518 729 q 338 463 423 550 q 129 304 254 377 m 390 198 l 534 198 l 534 -93 l 1150 -93 l 1150 -211 l 390 -211 l 390 198 "},"⊥":{"x_min":151.390625,"x_max":1098.609375,"ha":1250,"o":"m 575 50 l 575 836 l 675 836 l 675 50 l 1098 50 l 1098 -26 l 151 -26 l 151 50 l 575 50 "},"맴":{"x_min":75,"x_max":1136.109375,"ha":1250,"o":"m 991 761 l 991 1069 l 1136 1069 l 1136 298 l 991 298 l 991 636 l 836 636 l 836 298 l 701 298 l 701 1055 l 836 1055 l 836 761 l 991 761 m 569 416 l 75 416 l 75 1016 l 569 1016 l 569 416 m 430 534 l 430 900 l 213 900 l 213 534 l 430 534 m 386 238 l 1123 238 l 1123 -211 l 386 -211 l 386 238 m 531 123 l 531 -97 l 977 -97 l 977 123 l 531 123 "},"붉":{"x_min":30.5625,"x_max":1219.453125,"ha":1250,"o":"m 551 387 l 30 387 l 30 500 l 1219 500 l 1219 387 l 705 387 l 705 279 l 1030 279 l 1030 -226 l 895 -226 l 895 163 l 679 163 l 679 240 l 609 240 l 609 -15 l 351 -15 l 351 -101 l 434 -101 q 551 -96 483 -101 q 679 -84 619 -91 l 679 -193 q 518 -208 606 -202 q 355 -213 430 -213 l 216 -213 l 216 90 l 477 90 l 477 169 l 216 169 l 216 279 l 551 279 l 551 387 m 234 1051 l 379 1051 l 379 941 l 870 941 l 870 1051 l 1015 1051 l 1015 602 l 234 602 l 234 1051 m 379 826 l 379 718 l 870 718 l 870 826 l 379 826 "},"숱":{"x_min":29.171875,"x_max":1219.453125,"ha":1250,"o":"m 551 419 l 29 419 l 29 530 l 1219 530 l 1219 419 l 705 419 l 705 297 l 1016 297 l 1016 188 l 391 188 l 391 95 l 1011 95 l 1011 -6 l 393 -6 l 393 -102 l 1043 -102 l 1043 -212 l 237 -212 l 237 297 l 551 297 l 551 419 m 627 843 q 556 763 598 800 q 463 697 513 726 q 351 638 409 663 q 236 595 293 612 l 159 691 q 290 739 219 708 q 419 816 361 770 q 508 906 472 855 q 544 1018 544 958 l 544 1072 l 706 1072 l 706 1018 q 743 906 706 958 q 833 813 779 854 q 959 738 890 768 q 1088 693 1027 708 l 1018 595 q 911 635 968 611 q 801 691 854 659 q 702 759 747 720 q 627 843 658 797 "},"멩":{"x_min":75,"x_max":1136.109375,"ha":1250,"o":"m 569 658 l 569 405 l 75 405 l 75 1015 l 569 1015 l 569 775 l 718 775 l 718 1054 l 852 1054 l 852 358 l 718 358 l 718 658 l 569 658 m 430 523 l 430 898 l 213 898 l 213 523 l 430 523 m 995 316 l 995 1069 l 1136 1069 l 1136 316 l 995 316 m 770 -283 q 646 -261 704 -283 q 544 -198 588 -238 q 476 -106 501 -159 q 451 6 451 -54 q 476 120 451 66 q 544 212 501 173 q 646 275 588 252 q 770 298 704 298 q 895 275 837 298 q 997 212 954 252 q 1065 120 1040 173 q 1091 6 1091 66 q 1065 -106 1091 -54 q 997 -198 1040 -159 q 895 -261 954 -238 q 770 -283 837 -283 m 770 179 q 644 128 695 179 q 593 6 593 77 q 642 -113 593 -63 q 766 -162 691 -162 q 893 -113 840 -162 q 947 6 947 -63 q 895 128 947 77 q 770 179 844 179 "},"㈉":{"x_min":37.5,"x_max":1212.5,"ha":1250,"o":"m 566 479 l 337 479 l 337 576 l 912 576 l 912 479 l 683 479 q 716 361 691 418 q 783 268 741 305 q 880 196 834 220 q 963 163 926 172 l 880 95 q 809 115 847 100 q 726 176 772 131 q 659 252 680 218 q 625 319 637 286 q 590 251 612 286 q 523 176 568 216 q 438 118 477 134 q 369 95 400 101 l 286 163 q 368 195 322 172 q 466 268 413 219 q 533 361 508 305 q 566 479 558 418 l 566 479 m 438 743 l 811 743 l 811 645 l 438 645 l 438 743 m 1212 416 q 1193 224 1212 311 q 1147 66 1175 137 q 1086 -56 1119 -2 q 1026 -145 1054 -109 l 973 -145 q 1096 127 1061 -15 q 1131 416 1131 269 q 1097 704 1131 559 q 973 979 1062 850 l 1026 979 q 1088 886 1055 940 q 1148 762 1120 833 q 1193 606 1175 693 q 1212 416 1212 520 l 1212 416 m 37 416 q 55 606 37 520 q 101 762 73 693 q 161 886 127 833 q 223 979 194 940 l 276 979 q 152 704 186 850 q 119 416 119 559 q 154 127 119 269 q 276 -145 188 -15 l 223 -145 q 161 -56 194 -109 q 101 66 129 -2 q 55 224 73 137 q 37 416 37 311 l 37 416 "},"↙":{"x_min":23.609375,"x_max":1226.390625,"ha":1250,"o":"m 338 65 l 463 25 l 23 -187 l 234 252 l 275 129 l 1162 1016 l 1226 952 l 338 65 "},"훌":{"x_min":30.5625,"x_max":1219.453125,"ha":1250,"o":"m 551 377 l 30 377 l 30 481 l 1219 481 l 1219 377 l 705 377 l 705 273 l 1011 273 l 1011 -16 l 393 -16 l 393 -108 l 1037 -108 l 1037 -212 l 237 -212 l 237 81 l 856 81 l 856 169 l 237 169 l 237 273 l 551 273 l 551 377 m 627 866 q 504 831 555 866 q 452 744 452 795 q 504 656 452 691 q 627 622 555 622 q 752 657 698 622 q 805 744 805 693 q 752 831 805 795 q 627 866 698 866 m 550 979 l 550 1112 l 706 1112 l 706 979 l 1077 979 l 1077 866 l 870 866 q 934 812 908 848 q 959 737 959 776 q 934 652 959 691 q 866 584 909 613 q 761 538 822 555 q 629 522 701 522 q 499 538 559 522 q 394 583 438 554 q 322 650 348 611 q 297 736 297 690 q 322 811 297 773 q 383 866 347 848 l 175 866 l 175 979 l 550 979 "},"몫":{"x_min":30.5625,"x_max":1220.828125,"ha":1250,"o":"m 552 593 l 236 593 l 236 1034 l 1013 1034 l 1013 593 l 702 593 l 702 450 l 1220 450 l 1220 331 l 30 331 l 30 450 l 552 450 l 552 593 m 381 920 l 381 706 l 863 706 l 863 920 l 381 920 m 158 112 l 158 227 l 568 227 l 568 -225 l 426 -225 l 426 112 l 158 112 m 688 -237 l 606 -159 q 700 -87 659 -126 q 766 -2 740 -48 q 797 78 786 34 q 808 173 808 122 l 808 234 l 951 234 l 951 173 q 961 75 951 119 q 993 -6 972 30 q 1057 -88 1018 -50 q 1154 -159 1097 -126 l 1075 -237 q 950 -144 1000 -200 q 880 -43 901 -88 q 808 -144 858 -88 q 688 -237 758 -200 "},"덟":{"x_min":113.890625,"x_max":1106.953125,"ha":1250,"o":"m 963 800 l 963 1072 l 1106 1072 l 1106 391 l 963 391 l 963 686 l 615 686 l 615 800 l 963 800 m 270 116 l 509 116 l 509 226 l 270 226 l 270 334 l 644 334 l 644 9 l 404 9 l 404 -101 l 470 -101 q 565 -98 508 -101 q 675 -88 622 -95 l 675 -198 q 537 -209 612 -205 q 402 -213 462 -213 l 270 -213 l 270 116 m 858 579 l 858 466 q 754 452 818 458 q 623 440 691 445 q 491 434 555 436 q 386 431 427 431 l 113 430 l 113 1016 l 679 1016 l 679 897 l 256 897 l 256 548 l 409 550 q 511 551 455 550 q 627 556 568 552 q 746 565 687 559 q 858 579 805 570 m 733 334 l 851 334 l 851 170 l 981 170 l 981 334 l 1102 334 l 1102 -213 l 733 -213 l 733 334 m 851 59 l 851 -100 l 981 -100 l 981 59 l 851 59 "},"썩":{"x_min":18.0625,"x_max":1106.953125,"ha":1250,"o":"m 456 361 q 359 463 406 400 q 291 587 312 526 q 214 464 266 529 q 109 359 162 400 l 18 450 q 127 563 86 504 q 191 690 169 622 q 214 813 208 748 q 220 954 220 877 l 220 1023 l 365 1023 l 365 954 q 367 823 363 886 q 386 702 370 761 q 413 622 395 661 q 456 548 430 584 q 498 622 481 584 q 526 702 515 661 q 545 823 541 761 q 550 954 550 886 l 550 1023 l 693 1023 l 693 954 q 696 814 691 879 q 719 693 701 750 q 777 574 738 629 q 883 470 816 519 l 811 376 q 750 421 779 394 q 697 477 720 448 q 653 536 672 506 q 626 590 634 565 q 598 528 616 561 q 558 465 580 495 q 508 406 534 433 q 456 361 481 379 m 963 838 l 963 1072 l 1106 1072 l 1106 311 l 963 311 l 963 718 l 769 718 l 769 838 l 963 838 m 352 122 l 352 237 l 1100 237 l 1100 -225 l 954 -225 l 954 122 l 352 122 "},"끓":{"x_min":30.5625,"x_max":1220.828125,"ha":1250,"o":"m 218 115 l 452 115 l 452 230 l 218 230 l 218 337 l 586 337 l 586 11 l 354 11 l 354 -102 l 416 -102 q 511 -100 454 -102 q 620 -90 568 -97 l 620 -198 q 487 -209 558 -205 q 355 -213 416 -213 l 218 -213 l 218 115 m 1036 126 q 1077 64 1061 101 q 1094 -19 1094 27 q 1032 -179 1094 -118 q 879 -241 970 -241 q 793 -225 833 -241 q 725 -179 754 -208 q 679 -108 695 -148 q 663 -19 663 -68 q 679 63 663 25 q 720 126 695 101 l 633 126 l 633 238 l 808 238 l 808 380 l 947 380 l 947 238 l 1119 238 l 1119 126 l 1036 126 m 879 123 q 814 86 840 123 q 788 -2 788 50 q 815 -96 788 -61 q 879 -131 841 -131 q 943 -95 916 -131 q 970 -2 970 -59 q 943 88 970 54 q 879 123 916 123 m 563 905 q 540 731 559 826 q 498 566 522 637 l 815 566 q 837 643 826 600 q 856 731 848 686 q 870 822 865 777 q 876 905 875 868 l 563 905 m 1020 1026 q 1017 907 1022 969 q 1004 786 1012 845 q 983 668 995 725 q 958 566 970 612 l 1220 566 l 1220 454 l 30 454 l 30 566 l 352 566 q 377 643 365 600 q 398 733 388 687 q 412 823 406 779 q 419 905 418 868 l 179 905 l 179 1026 l 1020 1026 "},"◎":{"x_min":69.4375,"x_max":1180.5625,"ha":1250,"o":"m 625 86 q 495 111 555 86 q 390 181 434 137 q 320 286 345 226 q 294 416 294 347 q 320 545 294 484 q 390 650 345 605 q 495 720 434 694 q 625 747 555 747 q 752 720 693 747 q 858 650 812 694 q 929 545 902 605 q 955 416 955 484 q 929 286 955 347 q 858 181 902 226 q 752 111 812 137 q 625 86 693 86 l 625 86 m 625 677 q 522 656 570 677 q 440 601 475 636 q 384 518 404 565 q 363 416 363 470 q 384 314 363 362 q 440 231 404 266 q 522 175 475 195 q 625 155 570 155 q 726 175 679 155 q 808 231 773 195 q 863 314 843 266 q 884 416 884 362 q 863 518 884 470 q 808 601 843 565 q 726 656 773 636 q 625 677 679 677 l 625 677 m 625 -137 q 408 -94 509 -137 q 231 25 306 -51 q 112 201 155 100 q 69 418 69 302 q 112 633 69 531 q 231 809 155 734 q 408 929 306 886 q 625 973 509 973 q 840 929 738 973 q 1016 811 941 886 q 1136 634 1093 736 q 1180 418 1180 533 q 1136 201 1180 302 q 1016 25 1093 100 q 840 -94 941 -51 q 625 -137 738 -137 l 625 -137 m 625 905 q 434 866 523 905 q 280 762 345 827 q 175 606 213 695 q 137 418 137 518 q 175 227 137 316 q 280 73 213 138 q 434 -31 345 6 q 625 -69 523 -69 q 813 -31 725 -69 q 968 73 901 6 q 1072 227 1033 138 q 1111 418 1111 316 q 1072 606 1111 518 q 968 761 1033 695 q 813 866 901 827 q 625 905 725 905 l 625 905 "},"켠":{"x_min":58.328125,"x_max":1138.890625,"ha":1250,"o":"m 437 625 q 340 615 391 618 q 258 612 288 612 l 118 612 l 118 727 l 277 727 q 392 730 323 727 q 516 741 461 733 q 542 813 533 776 q 554 890 551 850 l 134 890 l 134 1006 l 716 1006 q 679 775 718 886 q 568 573 641 665 q 387 404 493 477 q 154 284 281 330 l 58 380 q 245 468 148 411 q 416 601 341 525 q 420 606 418 604 q 426 612 423 609 q 431 618 429 615 q 437 625 434 620 m 963 866 l 963 1072 l 1106 1072 l 1106 129 l 963 129 l 963 462 l 722 462 l 722 579 l 963 579 l 963 750 l 740 750 l 740 866 l 963 866 m 377 198 l 523 198 l 523 -93 l 1138 -93 l 1138 -211 l 377 -211 l 377 198 "},"림":{"x_min":111.109375,"x_max":1106.953125,"ha":1250,"o":"m 876 522 l 876 411 q 759 395 829 402 q 611 381 690 387 q 454 373 533 376 q 309 370 375 370 l 111 370 l 111 752 l 513 752 l 513 911 l 111 911 l 111 1023 l 663 1023 l 663 645 l 259 645 l 259 487 l 400 487 q 506 490 447 487 q 631 497 566 493 q 759 509 695 502 q 876 522 822 515 m 963 305 l 963 1072 l 1106 1072 l 1106 305 l 963 305 m 526 123 l 526 -97 l 956 -97 l 956 123 l 526 123 m 380 -211 l 380 238 l 1102 238 l 1102 -211 l 380 -211 "},"㈐":{"x_min":40.28125,"x_max":1215.28125,"ha":1250,"o":"m 1215 416 q 1196 224 1215 311 q 1150 66 1177 137 q 1089 -56 1122 -2 q 1029 -145 1056 -109 l 976 -145 q 1098 127 1063 -15 q 1133 416 1133 269 q 1098 704 1133 559 q 976 979 1063 850 l 1029 979 q 1090 886 1058 940 q 1151 762 1123 833 q 1196 606 1177 693 q 1215 416 1215 520 l 1215 416 m 40 416 q 58 606 40 520 q 104 762 76 693 q 163 886 130 833 q 226 979 197 940 l 279 979 q 154 704 188 850 q 120 416 120 559 q 156 127 120 269 q 279 -145 191 -15 l 226 -145 q 164 -56 197 -109 q 104 66 131 -2 q 58 224 76 137 q 40 416 40 311 l 40 416 m 769 222 q 672 203 733 212 q 565 191 612 194 q 480 188 527 188 q 391 187 433 187 q 320 186 350 186 q 287 187 290 187 l 287 756 l 701 756 l 701 662 l 390 662 l 390 280 l 544 283 q 661 293 594 284 q 769 313 729 302 l 769 222 m 806 856 l 908 856 l 908 498 l 1025 498 l 1025 406 l 908 406 l 908 -23 l 806 -23 l 806 856 "},"쇼":{"x_min":34.71875,"x_max":1213.890625,"ha":1250,"o":"m 394 79 l 394 395 l 527 395 l 527 79 l 725 79 l 725 395 l 858 395 l 858 79 l 1213 79 l 1213 -41 l 34 -41 l 34 79 l 394 79 m 1098 487 l 1020 393 q 904 439 962 409 q 793 508 845 469 q 697 593 740 547 q 629 690 655 640 q 555 593 600 640 q 458 506 511 547 q 345 437 404 468 q 230 390 287 406 l 151 481 q 305 555 233 508 q 430 663 377 602 q 513 797 483 725 q 545 951 544 870 l 545 1050 l 704 1050 l 704 951 q 730 802 702 873 q 809 669 758 730 q 934 562 861 609 q 1098 487 1008 515 "},"벗":{"x_min":97.21875,"x_max":1140.28125,"ha":1250,"o":"m 963 779 l 963 1072 l 1106 1072 l 1106 236 l 963 236 l 963 659 l 741 659 l 741 779 l 963 779 m 97 1026 l 241 1026 l 241 818 l 526 818 l 526 1026 l 670 1026 l 670 388 l 97 388 l 97 1026 m 241 704 l 241 505 l 526 505 l 526 704 l 241 704 m 636 268 l 797 268 l 797 180 q 830 68 797 122 q 918 -29 863 13 q 1025 -106 966 -75 q 1140 -154 1084 -138 l 1061 -248 q 961 -209 1013 -236 q 859 -147 908 -181 q 777 -75 813 -113 q 719 0 740 -37 q 662 -73 700 -36 q 577 -144 625 -111 q 474 -208 527 -180 q 372 -248 420 -236 l 293 -154 q 418 -98 352 -136 q 536 -11 484 -61 q 609 79 581 30 q 636 180 636 129 l 636 268 "},"돌":{"x_min":29.171875,"x_max":1219.453125,"ha":1250,"o":"m 552 643 l 234 643 l 234 1041 l 1015 1041 l 1015 930 l 377 930 l 377 752 l 1026 752 l 1026 643 l 702 643 l 702 519 l 1219 519 l 1219 406 l 29 406 l 29 519 l 552 519 l 552 643 m 237 95 l 855 95 l 855 188 l 237 188 l 237 298 l 1009 298 l 1009 -6 l 393 -6 l 393 -102 l 1036 -102 l 1036 -212 l 237 -212 l 237 95 "},"둘":{"x_min":29.171875,"x_max":1219.453125,"ha":1250,"o":"m 551 419 l 29 419 l 29 530 l 1219 530 l 1219 419 l 705 419 l 705 293 l 1012 293 l 1012 -9 l 393 -9 l 393 -102 l 1038 -102 l 1038 -212 l 237 -212 l 237 93 l 858 93 l 858 183 l 237 183 l 237 293 l 551 293 l 551 419 m 234 1041 l 1015 1041 l 1015 930 l 377 930 l 377 752 l 1026 752 l 1026 643 l 234 643 l 234 1041 "},"엥":{"x_min":15.28125,"x_max":1136.109375,"ha":1250,"o":"m 995 316 l 995 1069 l 1136 1069 l 1136 316 l 995 316 m 770 -283 q 646 -261 704 -283 q 544 -198 588 -238 q 476 -106 501 -159 q 451 6 451 -54 q 476 120 451 66 q 544 212 501 173 q 646 275 588 252 q 770 298 704 298 q 895 275 837 298 q 997 212 954 252 q 1065 120 1040 173 q 1091 6 1091 66 q 1065 -106 1091 -54 q 997 -198 1040 -159 q 895 -261 954 -238 q 770 -283 837 -283 m 770 179 q 644 128 695 179 q 593 6 593 77 q 642 -113 593 -63 q 766 -162 691 -162 q 893 -113 840 -162 q 947 6 947 -63 q 895 128 947 77 q 770 179 844 179 m 625 787 l 734 787 l 734 1054 l 869 1054 l 869 358 l 734 358 l 734 669 l 625 669 q 588 565 615 613 q 522 483 561 518 q 431 429 481 448 q 323 409 380 409 q 200 434 256 409 q 102 501 144 458 q 38 602 61 544 q 15 725 15 659 q 38 847 15 790 q 102 948 61 905 q 200 1016 144 991 q 323 1041 256 1041 q 429 1022 379 1041 q 519 968 480 1002 q 586 887 559 933 q 625 787 613 841 m 323 918 q 200 861 248 918 q 152 725 152 804 q 200 588 152 644 q 323 531 248 531 q 444 588 395 531 q 493 725 493 644 q 444 861 493 804 q 323 918 395 918 "},"포":{"x_min":34.71875,"x_max":1213.890625,"ha":1250,"o":"m 894 894 l 888 506 l 1065 506 l 1065 391 l 695 391 l 695 77 l 1213 77 l 1213 -43 l 34 -43 l 34 77 l 548 77 l 548 391 l 191 391 l 191 506 l 365 506 l 362 894 l 206 894 l 206 1009 l 1047 1009 l 1047 894 l 894 894 m 761 894 l 495 894 l 498 506 l 756 506 l 761 894 "},"뀐":{"x_min":29.171875,"x_max":1118.0625,"ha":1250,"o":"m 1108 120 l 965 120 l 965 1070 l 1108 1070 l 1108 120 m 356 166 l 502 166 l 502 -93 l 1118 -93 l 1118 -211 l 356 -211 l 356 166 m 419 908 q 409 818 415 866 q 393 723 402 770 q 372 634 383 677 q 351 556 362 590 q 406 557 379 556 q 461 559 434 558 q 517 562 488 561 q 576 565 545 563 q 620 732 602 638 q 643 908 638 826 l 419 908 m 793 1029 q 785 910 791 972 q 769 788 779 848 q 747 672 759 727 q 720 573 734 616 q 771 577 747 575 q 818 580 795 579 q 860 584 840 581 q 898 588 880 586 l 898 477 q 727 461 836 469 q 505 447 619 452 l 505 237 l 356 237 l 356 443 l 316 443 l 29 441 l 29 556 l 208 556 q 232 639 220 594 q 254 730 244 684 q 268 823 262 777 q 277 908 275 869 l 87 908 l 87 1029 l 793 1029 "},"궂":{"x_min":30.5625,"x_max":1220.828125,"ha":1250,"o":"m 816 580 q 833 661 825 616 q 847 750 841 705 q 856 836 854 795 q 856 908 858 877 l 234 908 l 234 1029 l 1009 1029 q 1006 915 1009 979 q 997 790 1004 852 q 983 679 991 731 q 963 580 975 626 l 1220 580 l 1220 468 l 704 468 l 704 312 l 550 312 l 550 468 l 30 468 l 30 580 l 816 580 m 551 141 l 238 141 l 238 258 l 1011 258 l 1011 141 l 698 141 q 736 37 700 86 q 825 -48 772 -11 q 941 -116 879 -88 q 1062 -159 1004 -144 l 986 -248 q 882 -212 936 -236 q 780 -159 829 -188 q 692 -95 731 -130 q 626 -23 652 -61 q 561 -94 601 -61 q 475 -155 520 -127 q 368 -210 423 -186 q 261 -248 312 -234 l 180 -159 q 310 -112 241 -143 q 436 -37 379 -81 q 515 43 483 -2 q 551 141 548 88 "},"㈓":{"x_min":37.5,"x_max":1212.5,"ha":1250,"o":"m 383 504 l 383 266 l 594 266 l 594 504 l 383 504 m 281 783 l 383 783 l 383 597 l 594 597 l 594 783 l 694 783 l 694 173 l 281 173 l 281 783 m 912 402 l 912 -26 l 809 -26 l 809 854 l 912 854 l 912 497 l 1029 497 l 1029 402 l 912 402 m 1212 416 q 1193 224 1212 311 q 1147 66 1175 137 q 1086 -56 1119 -2 q 1026 -145 1054 -109 l 973 -145 q 1096 127 1061 -15 q 1131 416 1131 269 q 1097 704 1131 559 q 973 979 1062 850 l 1026 979 q 1088 886 1055 940 q 1148 762 1120 833 q 1193 606 1175 693 q 1212 416 1212 520 l 1212 416 m 37 416 q 55 606 37 520 q 101 762 73 693 q 161 886 127 833 q 223 979 194 940 l 276 979 q 152 704 186 850 q 119 416 119 559 q 154 127 119 269 q 276 -145 188 -15 l 223 -145 q 161 -56 194 -109 q 101 66 129 -2 q 55 224 73 137 q 37 416 37 311 l 37 416 "},"똑":{"x_min":30.5625,"x_max":1220.828125,"ha":1250,"o":"m 547 427 l 547 559 l 704 559 l 704 427 l 1220 427 l 1220 313 l 30 313 l 30 427 l 547 427 m 205 1041 l 588 1041 l 588 925 l 344 925 l 344 704 q 395 703 362 702 q 463 705 427 704 q 536 709 500 706 q 602 715 573 711 l 602 605 q 516 597 569 601 q 416 593 463 594 l 205 590 l 205 1041 m 645 1041 l 1037 1041 l 1037 925 l 786 925 l 786 701 l 1051 701 l 1051 587 l 645 587 l 645 1041 m 225 69 l 225 184 l 1013 184 l 1013 -234 l 868 -234 l 868 69 l 225 69 "},"⑼":{"x_min":18.0625,"x_max":1233.328125,"ha":1250,"o":"m 398 198 l 493 198 q 531 104 501 134 q 606 75 562 75 q 694 110 662 75 q 741 197 726 145 q 761 304 756 247 q 766 402 765 361 q 750 372 761 391 q 719 334 738 352 q 671 303 700 316 q 604 290 643 290 q 534 302 572 290 q 463 344 495 313 q 410 425 431 375 q 388 554 388 476 q 407 679 388 626 q 458 769 426 733 q 531 822 490 804 q 616 840 572 840 q 730 805 683 840 q 806 713 777 770 q 849 584 836 656 q 862 434 862 511 q 847 266 862 355 q 797 116 831 177 q 747 52 773 76 q 694 15 720 27 q 645 0 668 2 q 606 -4 622 -4 q 474 44 536 -4 q 398 198 412 93 l 398 198 m 620 763 q 525 715 566 763 q 484 559 484 668 q 520 415 484 462 q 613 368 556 368 q 712 415 669 368 q 755 555 755 462 q 749 618 755 581 q 727 686 743 654 q 686 740 712 718 q 620 763 661 763 l 620 763 m 1233 418 q 1186 113 1233 259 q 1052 -161 1140 -31 l 1006 -161 q 1054 -78 1025 -131 q 1112 50 1084 -25 q 1162 216 1141 123 q 1183 418 1183 309 q 1162 618 1183 525 q 1112 784 1141 711 q 1054 913 1084 859 q 1006 997 1025 966 l 1052 997 q 1186 720 1140 868 q 1233 418 1233 573 l 1233 418 m 244 -161 l 198 -161 q 63 113 109 -31 q 18 418 18 259 q 63 720 18 573 q 198 997 109 868 l 244 997 q 195 913 225 966 q 137 784 165 859 q 88 618 108 711 q 68 418 68 525 q 88 216 68 309 q 137 50 108 123 q 195 -78 165 -25 q 244 -161 225 -131 l 244 -161 "},"켐":{"x_min":34.71875,"x_max":1136.109375,"ha":1250,"o":"m 327 641 q 261 634 294 636 q 208 631 229 631 l 86 631 l 86 744 l 218 744 q 302 747 252 744 q 393 758 351 750 q 414 829 406 794 q 423 898 422 865 l 101 898 l 101 1016 l 579 1016 q 568 885 579 948 q 540 765 558 822 l 718 765 l 718 1054 l 852 1054 l 852 301 l 718 301 l 718 648 l 538 648 l 538 763 q 508 687 525 723 q 470 618 491 651 q 320 442 408 518 q 131 316 233 366 l 34 402 q 207 510 134 448 q 327 641 280 572 m 995 300 l 995 1069 l 1136 1069 l 1136 300 l 995 300 m 386 238 l 1123 238 l 1123 -211 l 386 -211 l 386 238 m 531 123 l 531 -97 l 977 -97 l 977 123 l 531 123 "},"퓻":{"x_min":29.171875,"x_max":1219.453125,"ha":1250,"o":"m 888 920 l 886 675 l 1058 675 l 1058 559 l 198 559 l 198 675 l 369 675 l 365 920 l 212 920 l 212 1036 l 1040 1036 l 1040 920 l 888 920 m 756 920 l 498 920 l 502 675 l 754 675 l 756 920 m 547 150 l 705 150 l 705 105 q 736 19 705 58 q 818 -50 768 -19 q 934 -108 868 -84 q 1068 -147 1001 -131 l 1001 -241 q 891 -211 948 -230 q 781 -165 834 -191 q 690 -112 731 -141 q 629 -50 650 -83 q 567 -109 608 -81 q 475 -162 526 -137 q 363 -207 420 -187 q 256 -238 306 -227 l 184 -145 q 316 -106 250 -130 q 437 -47 383 -83 q 515 20 483 -18 q 547 105 547 58 l 547 150 m 354 316 l 29 316 l 29 431 l 1219 431 l 1219 316 l 902 316 l 902 136 l 756 136 l 756 316 l 500 316 l 500 138 l 354 138 l 354 316 "},"깰":{"x_min":23.609375,"x_max":1186.109375,"ha":1250,"o":"m 1031 804 l 1031 1070 l 1168 1070 l 1168 390 l 1031 390 l 1031 677 l 895 677 l 895 390 l 766 390 l 766 1056 l 895 1056 l 895 804 l 1031 804 m 431 115 l 1001 115 l 1001 216 l 431 216 l 431 325 l 1158 325 l 1158 8 l 590 8 l 590 -100 l 1186 -100 l 1186 -212 l 431 -212 l 431 115 m 668 1016 q 609 677 666 837 q 420 398 552 518 l 320 456 q 468 667 415 547 q 529 900 520 787 l 377 900 q 350 783 370 844 q 297 662 330 722 q 219 549 263 602 q 120 456 175 495 l 23 515 q 177 692 118 588 q 250 900 237 795 l 73 900 l 73 1016 l 668 1016 "},"타":{"x_min":118.0625,"x_max":1254.171875,"ha":1250,"o":"m 1063 638 l 1254 638 l 1254 520 l 1063 520 l 1063 -170 l 920 -170 l 920 1069 l 1063 1069 l 1063 638 m 259 630 l 652 630 l 652 515 l 259 515 l 259 243 l 400 244 q 607 252 495 244 q 840 275 719 259 l 840 162 q 708 145 779 152 q 569 134 637 138 q 438 128 500 130 q 336 126 377 126 l 118 126 l 118 1006 l 666 1006 l 666 886 l 259 886 l 259 630 "},"뤄":{"x_min":48.609375,"x_max":1108.328125,"ha":1250,"o":"m 381 230 l 316 230 l 48 229 l 48 344 l 263 344 q 427 347 338 344 q 604 354 516 350 q 767 363 690 358 q 898 376 844 369 l 898 265 q 741 249 840 256 q 534 236 643 241 l 534 -138 l 381 -138 l 381 230 m 766 455 l 175 455 l 175 793 l 590 793 l 590 912 l 173 912 l 173 1026 l 734 1026 l 734 686 l 319 686 l 319 566 l 766 566 l 766 455 m 963 40 l 693 40 l 693 155 l 963 155 l 963 1070 l 1108 1070 l 1108 -170 l 963 -170 l 963 40 "},"례":{"x_min":81.9375,"x_max":1136.109375,"ha":1250,"o":"m 745 823 l 745 1050 l 880 1050 l 880 -123 l 745 -123 l 745 402 l 591 402 l 591 522 l 745 522 l 745 704 l 594 704 l 594 823 l 745 823 m 651 279 l 651 169 q 559 156 615 162 q 445 144 504 150 q 333 137 386 140 q 250 134 280 134 l 83 134 l 83 633 l 398 633 l 398 891 l 81 891 l 81 1005 l 544 1005 l 544 525 l 227 525 l 227 251 l 298 251 q 371 253 326 251 q 466 258 416 255 q 565 267 516 262 q 651 279 613 272 m 995 -170 l 995 1069 l 1136 1069 l 1136 -170 l 995 -170 "},"껙":{"x_min":22.21875,"x_max":1168.0625,"ha":1250,"o":"m 1031 308 l 1031 1070 l 1168 1070 l 1168 308 l 1031 308 m 390 112 l 390 227 l 1151 227 l 1151 -225 l 1005 -225 l 1005 112 l 390 112 m 644 773 l 790 773 l 790 1056 l 919 1056 l 919 308 l 790 308 l 790 648 l 612 648 q 536 477 583 556 q 427 330 490 397 l 323 388 q 408 498 370 437 q 472 626 445 559 q 511 762 497 693 q 529 897 526 831 l 379 897 q 350 763 370 831 q 297 629 329 695 q 220 502 263 563 q 123 393 176 441 l 22 448 q 105 545 66 491 q 175 658 144 598 q 225 777 205 716 q 251 897 244 838 l 73 897 l 73 1013 l 668 1013 q 661 891 668 951 q 644 773 655 831 "},"€":{"x_min":172.21875,"x_max":1009.71875,"ha":1250,"o":"m 172 287 l 309 287 q 304 331 305 308 q 304 379 304 354 q 304 428 304 404 q 309 477 305 452 l 186 477 l 200 587 l 331 587 q 375 697 348 647 q 436 788 401 748 q 577 898 495 859 q 754 937 659 937 q 893 918 826 937 q 988 875 959 898 l 937 797 q 863 831 904 818 q 755 845 822 845 q 620 817 680 845 q 518 733 559 788 q 479 667 495 704 q 451 587 462 630 l 769 587 l 769 477 l 433 477 q 429 438 430 458 q 429 397 429 418 q 429 340 429 368 q 434 287 430 312 l 727 287 l 727 177 l 456 177 q 481 112 466 141 q 515 58 495 83 q 620 -28 556 0 q 766 -56 683 -56 q 880 -42 836 -56 q 959 -2 925 -27 l 1009 -76 q 897 -126 970 -105 q 750 -147 823 -147 q 574 -113 655 -147 q 433 -12 493 -79 q 372 72 398 25 q 330 177 347 119 l 172 177 l 172 287 "},"췌":{"x_min":44.4375,"x_max":1168.0625,"ha":1250,"o":"m 784 65 l 548 65 l 548 175 l 784 175 l 784 1050 l 915 1050 l 915 -123 l 784 -123 l 784 65 m 1030 -170 l 1030 1069 l 1168 1069 l 1168 -170 l 1030 -170 m 304 270 q 263 268 283 269 q 223 268 243 268 q 185 266 204 266 q 148 266 166 266 l 44 265 l 44 380 l 95 380 q 259 383 170 380 q 436 390 348 386 q 600 400 523 394 q 731 412 677 405 l 731 301 q 606 288 683 294 q 443 277 530 281 l 443 -123 l 304 -123 l 304 270 m 587 830 q 543 750 568 788 q 487 676 518 711 q 600 613 537 643 q 722 566 662 583 l 659 458 q 528 517 597 479 q 406 597 459 555 q 271 504 344 544 q 123 441 198 463 l 52 530 q 175 577 115 547 q 286 645 234 606 q 377 731 337 684 q 441 829 418 777 l 126 829 l 126 940 l 312 940 l 312 1112 l 443 1112 l 443 940 l 587 940 l 587 830 "},"쫄":{"x_min":27.78125,"x_max":1218.0625,"ha":1250,"o":"m 962 1041 l 962 937 q 936 872 951 904 q 900 811 920 840 q 1002 750 945 777 q 1113 706 1058 723 l 1044 602 q 932 652 991 619 q 827 725 873 686 q 743 653 787 686 q 650 597 698 620 l 701 597 l 701 508 l 1218 508 l 1218 394 l 27 394 l 27 508 l 551 508 l 551 597 l 566 597 l 518 651 q 537 659 527 655 q 558 669 547 663 q 494 706 525 686 q 437 750 463 727 q 320 671 383 704 q 193 619 256 638 l 125 704 q 306 793 222 731 q 422 934 390 855 l 204 934 l 204 1041 l 962 1041 m 675 744 q 758 832 722 784 q 811 934 794 880 l 580 934 q 552 879 568 905 q 518 830 537 854 q 592 783 551 805 q 675 744 633 761 m 236 94 l 854 94 l 854 187 l 236 187 l 236 297 l 1008 297 l 1008 -8 l 391 -8 l 391 -104 l 1034 -104 l 1034 -213 l 236 -213 l 236 94 "},"츌":{"x_min":30.5625,"x_max":1219.453125,"ha":1250,"o":"m 379 402 l 30 402 l 30 509 l 1219 509 l 1219 402 l 876 402 l 876 281 l 1011 281 l 1011 -12 l 393 -12 l 393 -108 l 1037 -108 l 1037 -212 l 237 -212 l 237 86 l 856 86 l 856 179 l 237 179 l 237 281 l 379 281 l 379 402 m 525 402 l 525 281 l 729 281 l 729 402 l 525 402 m 906 865 q 836 804 875 833 q 754 750 797 775 q 924 703 830 723 q 1112 672 1018 683 l 1066 565 q 842 610 958 577 q 633 687 726 643 q 415 606 529 638 q 198 559 302 573 l 136 658 q 295 686 215 666 q 450 731 375 705 q 588 793 523 759 q 701 863 652 826 l 236 863 l 236 973 l 552 973 l 552 1111 l 704 1111 l 704 973 l 906 973 l 906 865 "},"김":{"x_min":59.71875,"x_max":1106.953125,"ha":1250,"o":"m 150 338 l 59 434 q 224 506 136 459 q 384 618 312 554 q 492 743 450 675 q 538 891 534 812 l 129 891 l 129 1008 l 704 1008 q 663 781 704 883 q 552 597 623 679 q 377 450 479 513 q 150 338 275 387 m 963 305 l 963 1072 l 1106 1072 l 1106 305 l 963 305 m 526 123 l 526 -97 l 956 -97 l 956 123 l 526 123 m 380 -211 l 380 238 l 1102 238 l 1102 -211 l 380 -211 "},"♣":{"x_min":83.328125,"x_max":1165.28125,"ha":1250,"o":"m 1165 356 q 1145 257 1165 304 q 1090 175 1125 211 q 1007 119 1055 140 q 905 98 959 98 q 788 116 847 98 q 690 177 730 134 q 711 21 691 81 q 768 -75 731 -38 q 858 -126 804 -109 q 984 -148 912 -143 l 997 -183 l 250 -183 l 262 -148 q 387 -127 333 -143 q 477 -75 441 -111 q 534 21 515 -38 q 556 179 554 81 q 459 118 516 136 q 347 100 401 100 q 242 120 290 100 q 158 175 194 140 q 103 256 123 209 q 83 356 83 302 q 100 447 83 402 q 147 526 116 491 q 221 586 177 562 q 318 615 265 609 q 352 615 334 616 q 393 609 369 615 q 370 664 375 638 q 365 729 365 690 q 387 829 365 783 q 445 909 409 875 q 529 962 483 943 q 626 981 576 981 q 719 962 673 981 q 801 909 765 943 q 859 830 837 876 q 881 730 881 784 q 874 664 881 693 q 852 608 866 636 q 965 606 909 620 q 1066 558 1022 593 q 1137 471 1109 523 q 1165 356 1165 419 l 1165 356 "},"¶":{"x_min":184.71875,"x_max":970.828125,"ha":1250,"o":"m 875 -206 l 875 1013 l 970 1013 l 970 -206 l 875 -206 m 618 -206 l 616 438 l 518 437 q 276 512 368 434 q 184 725 184 590 q 263 923 184 851 q 494 1006 341 995 q 545 1009 526 1008 q 577 1012 565 1011 q 600 1013 590 1012 q 623 1013 609 1013 l 711 1011 l 711 -206 l 618 -206 m 616 925 l 555 925 q 356 872 427 925 q 284 727 284 819 q 354 581 284 636 q 533 530 425 526 l 616 533 l 616 925 "},"헌":{"x_min":48.609375,"x_max":1138.890625,"ha":1250,"o":"m 963 636 l 963 1072 l 1106 1072 l 1106 129 l 963 129 l 963 516 l 776 516 l 776 636 l 963 636 m 377 184 l 523 184 l 523 -93 l 1138 -93 l 1138 -211 l 377 -211 l 377 184 m 418 673 q 303 630 345 672 q 261 530 261 588 q 304 430 261 469 q 419 393 348 391 q 529 430 487 391 q 573 530 572 469 q 529 631 572 590 q 418 673 487 672 m 794 844 l 48 844 l 48 959 l 340 959 l 340 1111 l 486 1111 l 486 959 l 794 959 l 794 844 m 416 790 q 538 768 483 788 q 633 711 594 747 q 695 629 673 676 q 718 530 716 581 q 695 430 716 477 q 634 348 673 383 q 540 292 595 312 q 419 272 486 272 q 297 291 352 272 q 202 347 241 311 q 140 429 162 381 q 119 530 119 476 q 140 627 119 580 q 200 709 161 675 q 293 767 238 745 q 416 790 348 788 "},"­":{"x_min":368.0625,"x_max":881.953125,"ha":1250,"o":"m 881 237 l 368 237 l 368 337 l 881 337 l 881 237 "},"찰":{"x_min":16.671875,"x_max":1252.78125,"ha":1250,"o":"m 1063 808 l 1252 808 l 1252 686 l 1063 686 l 1063 397 l 919 397 l 919 1070 l 1063 1070 l 1063 808 m 334 120 l 904 120 l 904 226 l 334 226 l 334 334 l 1059 334 l 1059 15 l 491 15 l 491 -100 l 1090 -100 l 1090 -212 l 334 -212 l 334 120 m 312 963 l 312 1111 l 458 1111 l 458 963 l 633 963 l 633 862 q 595 770 619 815 q 537 683 570 725 q 658 599 590 637 q 798 536 726 561 l 727 422 q 579 494 652 448 q 452 591 506 540 q 282 466 375 520 q 94 381 190 412 l 16 477 q 162 537 91 500 q 294 623 233 575 q 400 727 354 670 q 472 845 447 784 l 91 845 l 91 963 l 312 963 "},"오":{"x_min":33.328125,"x_max":1213.890625,"ha":1250,"o":"m 840 709 q 824 797 840 755 q 779 869 808 838 q 710 920 750 901 q 623 938 670 938 q 535 920 575 938 q 468 869 495 901 q 425 796 440 837 q 409 709 409 755 q 425 622 409 663 q 469 548 441 580 q 537 498 498 516 q 623 480 576 480 q 710 498 670 480 q 779 548 750 516 q 824 622 808 580 q 840 709 840 663 m 547 366 q 434 409 486 379 q 343 484 381 440 q 283 586 305 529 q 261 709 261 644 q 289 845 261 781 q 366 958 318 909 q 482 1033 416 1005 q 623 1061 548 1061 q 766 1033 700 1061 q 881 956 833 1005 q 960 845 931 909 q 988 709 988 781 q 966 586 988 644 q 905 484 944 529 q 813 407 866 438 q 697 365 759 376 l 697 79 l 1213 79 l 1213 -41 l 33 -41 l 33 79 l 547 79 l 547 366 "},"렝":{"x_min":68.0625,"x_max":1136.109375,"ha":1250,"o":"m 725 661 l 577 661 l 577 777 l 725 777 l 725 1054 l 859 1054 l 859 358 l 725 358 l 725 661 m 638 506 l 638 394 q 547 381 602 387 q 433 369 493 375 q 315 362 373 365 q 216 359 258 359 l 69 359 l 69 754 l 381 754 l 381 918 l 68 918 l 68 1031 l 527 1031 l 527 647 l 213 647 l 213 475 l 300 475 q 377 477 333 475 q 469 483 422 479 q 561 493 516 487 q 638 506 605 500 m 995 316 l 995 1069 l 1136 1069 l 1136 316 l 995 316 m 770 -283 q 646 -261 704 -283 q 544 -198 588 -238 q 476 -106 501 -159 q 451 6 451 -54 q 476 120 451 66 q 544 212 501 173 q 646 275 588 252 q 770 298 704 298 q 895 275 837 298 q 997 212 954 252 q 1065 120 1040 173 q 1091 6 1091 66 q 1065 -106 1091 -54 q 997 -198 1040 -159 q 895 -261 954 -238 q 770 -283 837 -283 m 770 179 q 644 128 695 179 q 593 6 593 77 q 642 -113 593 -63 q 766 -162 691 -162 q 893 -113 840 -162 q 947 6 947 -63 q 895 128 947 77 q 770 179 844 179 "},"쥐":{"x_min":50,"x_max":1108.328125,"ha":1250,"o":"m 966 -172 l 966 1069 l 1108 1069 l 1108 -172 l 966 -172 m 390 275 l 316 275 l 50 273 l 50 387 l 263 387 q 443 388 352 386 q 616 395 533 390 q 772 406 700 400 q 898 420 844 412 l 898 308 q 743 290 840 300 q 538 277 645 281 l 538 -125 l 390 -125 l 390 275 m 676 906 q 627 818 655 861 q 566 738 600 776 q 690 670 623 701 q 825 618 758 638 l 754 504 q 612 570 686 529 q 480 656 538 611 q 326 552 409 597 q 151 481 243 508 l 76 572 q 213 625 147 593 q 336 700 279 658 q 434 790 391 741 q 504 894 477 840 l 152 894 l 152 1012 l 676 1012 l 676 906 "},"따":{"x_min":83.328125,"x_max":1254.171875,"ha":1250,"o":"m 1063 654 l 1254 654 l 1254 536 l 1063 536 l 1063 -170 l 920 -170 l 920 1069 l 1063 1069 l 1063 654 m 83 162 l 83 998 l 400 998 l 400 881 l 218 881 l 218 280 q 313 284 263 280 q 406 295 363 287 l 406 186 q 348 176 381 180 q 279 169 315 172 q 210 163 244 165 q 150 162 176 162 l 83 162 m 465 998 l 795 998 l 795 881 l 600 881 l 600 277 q 721 283 651 277 q 854 300 791 288 l 854 187 q 784 173 823 179 q 702 165 744 168 q 618 159 659 161 q 545 158 577 158 l 465 158 l 465 998 "},"주":{"x_min":33.328125,"x_max":1216.671875,"ha":1250,"o":"m 551 223 l 33 223 l 33 340 l 1216 340 l 1216 223 l 705 223 l 705 -187 l 551 -187 l 551 223 m 893 909 q 830 805 866 855 q 750 712 794 755 q 913 625 822 662 q 1105 568 1005 588 l 1036 450 q 839 518 938 472 q 656 631 740 565 q 443 506 559 558 q 208 434 326 455 l 144 536 q 318 585 231 552 q 479 665 404 618 q 615 769 555 711 q 709 894 675 827 l 248 894 l 248 1012 l 893 1012 l 893 909 "},"본":{"x_min":30.5625,"x_max":1220.828125,"ha":1250,"o":"m 552 522 l 234 522 l 234 1045 l 379 1045 l 379 898 l 870 898 l 870 1045 l 1015 1045 l 1015 522 l 702 522 l 702 366 l 1220 366 l 1220 251 l 30 251 l 30 366 l 552 366 l 552 522 m 379 786 l 379 637 l 870 637 l 870 786 l 379 786 m 240 168 l 391 168 l 391 -91 l 1033 -91 l 1033 -208 l 240 -208 l 240 168 "},"켜":{"x_min":77.78125,"x_max":1108.328125,"ha":1250,"o":"m 963 820 l 963 1070 l 1108 1070 l 1108 -170 l 963 -170 l 963 398 l 726 398 l 726 511 l 963 511 l 963 706 l 756 706 l 756 820 l 963 820 m 462 545 q 368 536 416 538 q 281 533 319 533 l 144 533 l 144 650 l 301 650 q 407 652 348 650 q 519 662 466 655 q 552 767 540 712 q 569 879 565 822 l 162 879 l 162 1000 l 733 1000 q 692 713 731 848 q 580 465 652 579 q 402 261 506 351 q 169 109 298 170 l 77 205 q 296 347 197 259 q 462 545 395 434 "},"쥑":{"x_min":27.78125,"x_max":1108.328125,"ha":1250,"o":"m 1108 247 l 965 247 l 965 1070 l 1108 1070 l 1108 247 m 336 70 l 336 184 l 1100 184 l 1100 -225 l 954 -225 l 954 70 l 336 70 m 347 391 l 316 391 l 27 390 l 27 504 l 263 504 q 427 506 338 504 q 604 513 516 509 q 767 524 690 518 q 898 537 844 530 l 898 425 q 723 408 834 416 q 495 395 612 400 l 495 248 l 347 248 l 347 391 m 656 926 q 605 853 634 888 q 543 786 576 818 q 672 736 601 758 q 812 700 743 715 l 758 587 q 602 638 684 604 q 455 715 520 673 q 302 627 384 665 q 137 568 220 590 l 73 659 q 194 702 133 676 q 309 761 255 727 q 411 834 365 794 q 488 920 456 875 l 159 920 l 159 1037 l 656 1037 l 656 926 "},"㎮":{"x_min":61.109375,"x_max":1237.5,"ha":1250,"o":"m 136 826 q 166 859 151 847 q 211 880 181 870 q 248 889 227 888 q 269 890 269 890 l 269 819 q 234 817 250 819 q 205 808 218 815 q 153 761 170 790 q 136 683 136 733 l 136 504 l 61 504 l 61 881 l 136 881 l 136 826 m 1070 130 q 1120 83 1105 113 q 1131 18 1136 52 q 1091 -60 1127 -27 q 984 -93 1055 -93 q 870 -45 906 -93 q 831 62 833 1 l 904 62 q 926 -5 904 16 q 986 -27 948 -27 q 1041 -13 1023 -27 q 1061 22 1059 1 q 1052 50 1061 38 q 1031 69 1044 61 q 1008 76 1020 73 q 981 81 995 79 q 953 87 968 84 q 923 95 938 90 q 865 134 886 112 q 844 202 844 156 q 878 281 844 244 q 983 318 912 318 q 1049 304 1022 318 q 1093 269 1076 290 q 1117 222 1109 247 q 1125 175 1125 197 l 1054 175 q 1036 232 1054 211 q 983 254 1019 254 q 934 236 950 254 q 919 202 919 219 q 930 177 919 186 q 956 162 941 168 q 974 155 962 158 q 1001 150 986 152 q 1034 142 1016 147 q 1070 130 1052 137 l 1070 130 m 268 -219 l 220 -162 l 1184 855 l 1237 804 l 268 -219 m 756 538 q 723 511 745 525 q 665 497 701 497 q 568 550 606 497 q 530 690 530 602 q 568 829 530 776 q 679 881 606 881 q 727 871 708 881 q 755 852 747 861 l 755 1026 l 819 1026 l 819 504 l 755 504 l 756 538 m 683 823 q 625 786 645 823 q 604 691 604 748 q 622 595 604 634 q 675 556 640 556 q 727 597 708 556 q 747 691 747 637 q 731 784 747 745 q 683 823 716 823 l 683 823 m 463 541 q 434 508 454 522 q 376 494 413 494 q 280 552 308 494 q 252 694 252 611 q 287 838 252 786 q 384 891 322 891 q 432 881 409 891 q 465 856 455 872 q 465 864 465 861 q 466 872 466 868 q 468 880 468 876 q 469 890 468 884 l 523 890 q 520 858 522 875 q 516 823 518 841 q 514 786 515 805 q 513 745 513 766 l 513 605 q 520 554 513 580 q 540 512 527 529 l 483 484 q 474 499 477 491 q 469 513 470 506 q 465 527 466 520 q 463 541 465 534 l 463 541 m 443 698 q 432 787 443 744 q 386 830 422 830 q 342 793 358 830 q 326 695 326 755 q 337 598 326 640 q 381 556 348 556 q 429 599 415 556 q 443 698 443 641 l 443 698 "},"킨":{"x_min":69.4375,"x_max":1138.890625,"ha":1250,"o":"m 444 620 q 349 612 398 615 q 269 609 300 609 l 129 609 l 129 723 l 288 723 q 401 726 334 723 q 523 737 468 729 q 551 811 540 773 q 565 890 562 848 l 145 890 l 145 1006 l 726 1006 q 689 775 727 886 q 577 573 651 665 q 397 404 502 477 q 166 284 291 330 l 69 380 q 255 468 159 411 q 426 601 351 525 q 430 605 427 602 q 434 611 433 608 q 439 615 437 613 q 444 620 441 618 m 377 198 l 523 198 l 523 -93 l 1138 -93 l 1138 -211 l 377 -211 l 377 198 m 963 129 l 963 1072 l 1106 1072 l 1106 129 l 963 129 "},"죵":{"x_min":30.5625,"x_max":1220.828125,"ha":1250,"o":"m 958 -16 q 932 -122 958 -73 q 862 -206 906 -172 q 759 -263 818 -243 q 631 -283 700 -283 q 506 -263 565 -283 q 402 -206 447 -243 q 332 -122 358 -172 q 306 -16 306 -73 q 332 90 306 40 q 402 176 358 140 q 505 235 445 213 q 631 256 565 256 q 758 235 698 256 q 862 176 818 213 q 932 90 906 140 q 958 -16 958 40 m 811 -16 q 759 95 811 50 q 631 141 708 141 q 503 95 556 141 q 450 -16 450 50 q 501 -125 450 -83 q 627 -168 552 -168 q 756 -126 702 -168 q 811 -16 811 -84 m 391 419 l 391 575 l 531 575 l 531 419 l 725 419 l 725 575 l 866 575 l 866 419 l 1220 419 l 1220 305 l 30 305 l 30 419 l 391 419 m 906 918 q 833 840 873 877 q 747 772 793 804 q 917 715 825 738 q 1101 681 1009 691 l 1048 562 q 836 618 948 579 q 636 704 725 656 q 422 612 534 650 q 206 559 311 575 l 144 659 q 308 694 226 670 q 465 751 390 718 q 602 827 540 784 q 709 918 665 869 l 243 918 l 243 1033 l 906 1033 l 906 918 "},"⅓":{"x_min":88.890625,"x_max":1144.453125,"ha":1250,"o":"m 379 458 l 293 458 l 293 865 l 166 865 l 166 937 q 222 943 195 937 q 269 963 248 950 q 297 993 284 973 q 309 1037 309 1012 l 379 1037 l 379 458 m 1048 77 q 1115 22 1087 58 q 1144 -59 1144 -13 q 1085 -190 1144 -138 q 933 -241 1026 -241 q 778 -186 840 -241 q 719 -48 716 -131 l 806 -48 q 834 -131 802 -94 q 931 -168 865 -168 q 1019 -137 987 -168 q 1052 -59 1051 -106 q 1030 0 1054 -26 q 973 34 1006 26 q 950 37 962 36 q 927 38 938 38 q 904 38 916 38 q 883 38 893 38 l 883 109 q 929 111 904 109 q 973 120 955 112 q 1018 155 1002 133 q 1036 209 1034 177 q 1008 272 1036 245 q 930 300 980 300 q 843 267 868 300 q 820 194 819 234 l 734 194 q 790 325 731 277 q 931 372 848 372 q 1070 323 1015 372 q 1125 208 1125 275 q 1097 121 1125 154 q 1048 77 1069 88 l 1048 77 m 1081 937 l 154 -197 l 88 -148 l 1018 984 l 1081 937 "},"엑":{"x_min":15.28125,"x_max":1136.109375,"ha":1250,"o":"m 995 300 l 995 1069 l 1136 1069 l 1136 300 l 995 300 m 368 112 l 368 227 l 1129 227 l 1129 -225 l 983 -225 l 983 112 l 368 112 m 625 781 l 731 781 l 731 1054 l 866 1054 l 866 301 l 731 301 l 731 665 l 625 665 q 587 563 613 609 q 520 481 561 516 q 431 428 481 447 q 323 409 380 409 q 200 434 256 409 q 102 501 144 458 q 38 602 61 544 q 15 725 15 659 q 38 847 15 790 q 102 948 61 905 q 200 1016 144 991 q 323 1041 256 1041 q 431 1021 380 1041 q 522 966 481 1001 q 588 884 561 931 q 625 781 615 836 m 323 918 q 200 861 248 918 q 152 725 152 804 q 200 588 152 644 q 323 531 248 531 q 444 588 395 531 q 493 725 493 644 q 444 861 493 804 q 323 918 395 918 "},"쳰":{"x_min":12.5,"x_max":1150,"ha":1250,"o":"m 995 165 l 995 1069 l 1136 1069 l 1136 165 l 995 165 m 390 184 l 534 184 l 534 -93 l 1150 -93 l 1150 -211 l 390 -211 l 390 184 m 575 855 l 741 856 l 741 1054 l 876 1054 l 876 197 l 741 197 l 741 516 l 576 516 l 576 633 l 741 633 l 741 740 l 575 740 l 575 855 m 259 929 l 259 1104 l 390 1104 l 390 929 l 527 929 l 527 811 q 498 702 519 756 q 448 594 477 647 q 545 492 490 540 q 662 408 601 444 l 575 304 q 468 389 520 338 q 379 490 416 440 q 249 359 320 419 q 97 261 177 300 l 12 351 q 143 433 80 383 q 254 544 205 483 q 336 673 302 605 q 384 811 370 741 l 73 811 l 73 929 l 259 929 "},"놨":{"x_min":25,"x_max":1254.171875,"ha":1250,"o":"m 1063 602 l 1063 287 l 919 287 l 919 1070 l 1063 1070 l 1063 726 l 1254 726 l 1254 602 l 1063 602 m 344 636 l 126 636 l 126 1054 l 272 1054 l 272 755 l 713 755 l 713 636 l 497 636 l 497 463 q 696 475 601 468 q 854 490 791 481 l 854 379 q 740 366 809 372 q 591 355 670 361 q 427 346 511 350 q 272 343 344 343 l 25 341 l 25 456 l 219 456 q 279 456 248 456 q 344 458 311 456 l 344 636 m 658 -241 q 588 -198 620 -220 q 529 -151 555 -176 q 484 -104 502 -127 q 452 -56 465 -81 q 418 -105 437 -81 q 373 -150 398 -129 q 310 -197 344 -175 q 236 -241 276 -220 l 158 -154 q 263 -84 220 -120 q 333 -4 305 -47 q 367 77 355 33 q 379 175 379 120 l 379 223 l 523 223 l 523 177 q 534 80 523 127 q 570 -6 545 33 q 607 -56 586 -33 q 655 -100 629 -80 q 709 -54 686 -79 q 750 0 733 -29 q 782 84 770 38 q 794 177 794 129 l 794 223 l 938 223 l 938 175 q 951 72 938 120 q 990 -13 963 25 q 1058 -90 1016 -55 q 1159 -152 1100 -125 l 1086 -241 q 1011 -202 1045 -225 q 951 -155 976 -180 q 900 -106 920 -131 q 866 -55 879 -81 q 837 -101 855 -79 q 797 -144 819 -123 q 731 -196 768 -172 q 658 -241 695 -220 "},"듬":{"x_min":29.171875,"x_max":1220.828125,"ha":1250,"o":"m 236 1029 l 1016 1029 l 1016 911 l 379 911 l 379 706 l 1029 706 l 1029 593 l 236 593 l 236 1029 m 29 333 l 29 451 l 1220 451 l 1220 333 l 29 333 m 383 80 l 383 -100 l 862 -100 l 862 80 l 383 80 m 237 193 l 1012 193 l 1012 -213 l 237 -213 l 237 193 "},"캭":{"x_min":45.828125,"x_max":1255.5625,"ha":1250,"o":"m 429 641 q 331 631 383 634 q 248 629 280 629 l 108 629 l 108 743 l 268 743 q 381 745 313 743 q 505 756 450 748 q 531 825 522 790 q 541 895 541 859 l 122 895 l 122 1012 l 702 1012 q 666 784 706 891 q 554 586 626 676 q 370 422 477 491 q 141 315 262 352 l 45 409 q 234 486 136 430 q 404 613 331 543 q 410 620 406 616 q 416 627 413 623 q 422 634 419 630 q 429 641 426 637 m 1063 893 l 1252 893 l 1252 780 l 1063 780 l 1063 634 l 1255 634 l 1255 522 l 1063 522 l 1063 309 l 919 309 l 919 1070 l 1063 1070 l 1063 893 m 316 122 l 316 237 l 1063 237 l 1063 -225 l 918 -225 l 918 122 l 316 122 "},"츨":{"x_min":30.5625,"x_max":1219.453125,"ha":1250,"o":"m 30 377 l 30 488 l 1219 488 l 1219 377 l 30 377 m 237 90 l 856 90 l 856 183 l 237 183 l 237 287 l 1011 287 l 1011 -8 l 393 -8 l 393 -108 l 1037 -108 l 1037 -212 l 237 -212 l 237 90 m 906 865 q 836 804 875 833 q 754 750 797 775 q 924 703 830 723 q 1112 672 1018 683 l 1066 565 q 842 610 958 577 q 633 687 726 643 q 415 606 529 638 q 198 559 302 573 l 136 658 q 295 686 215 666 q 450 731 375 705 q 588 793 523 759 q 701 863 652 826 l 236 863 l 236 973 l 552 973 l 552 1111 l 704 1111 l 704 973 l 906 973 l 906 865 "},"룁":{"x_min":29.171875,"x_max":1108.328125,"ha":1250,"o":"m 358 548 l 137 548 l 137 843 l 573 843 l 573 926 l 134 926 l 134 1038 l 719 1038 l 719 737 l 280 737 l 280 659 l 751 659 l 751 548 l 512 548 l 512 458 q 727 469 623 462 q 898 484 831 476 l 898 375 q 784 362 854 368 q 634 351 715 356 q 472 342 555 345 q 316 338 388 338 l 29 337 l 29 452 l 358 452 l 358 548 m 1108 318 l 965 318 l 965 1070 l 1108 1070 l 1108 318 m 366 265 l 512 265 l 512 136 l 956 136 l 956 265 l 1102 265 l 1102 -211 l 366 -211 l 366 265 m 956 23 l 512 23 l 512 -97 l 956 -97 l 956 23 "},"냥":{"x_min":116.671875,"x_max":1255.5625,"ha":1250,"o":"m 1063 887 l 1252 887 l 1252 775 l 1063 775 l 1063 629 l 1255 629 l 1255 516 l 1063 516 l 1063 288 l 919 288 l 919 1070 l 1063 1070 l 1063 887 m 830 565 l 830 452 q 722 436 788 444 q 586 422 656 427 q 446 413 515 416 q 330 409 377 409 l 116 409 l 116 1029 l 263 1029 l 263 527 l 391 529 q 500 531 443 529 q 616 540 558 534 q 728 551 673 544 q 830 565 783 558 m 713 -283 q 589 -261 647 -283 q 487 -198 531 -238 q 419 -106 444 -159 q 394 6 394 -54 q 419 120 394 66 q 487 212 444 173 q 589 275 531 252 q 713 298 647 298 q 838 275 780 298 q 940 212 895 252 q 1008 120 983 173 q 1033 6 1033 66 q 1008 -106 1033 -54 q 940 -198 983 -159 q 838 -261 895 -238 q 713 -283 780 -283 m 713 179 q 586 128 638 179 q 534 6 534 77 q 584 -113 534 -63 q 708 -162 633 -162 q 836 -113 783 -162 q 890 6 890 -63 q 839 128 890 77 q 713 179 788 179 "},"쵬":{"x_min":27.78125,"x_max":1108.328125,"ha":1250,"o":"m 368 -211 l 368 188 l 1105 188 l 1105 -211 l 368 -211 m 513 75 l 513 -97 l 959 -97 l 959 75 l 513 75 m 1108 248 l 965 248 l 965 1070 l 1108 1070 l 1108 248 m 372 381 l 372 537 l 526 537 l 526 387 q 625 391 573 388 q 726 398 677 394 q 820 406 776 401 q 898 415 865 411 l 898 304 q 784 290 854 297 q 634 280 715 284 q 472 272 555 275 q 316 269 388 269 l 27 268 l 27 381 l 372 381 m 675 866 q 624 795 652 829 q 562 730 595 761 q 697 665 623 694 q 840 618 770 636 l 777 509 q 622 570 706 531 q 470 655 538 608 q 306 561 394 601 q 131 497 219 522 l 61 591 q 192 634 126 606 q 318 695 258 661 q 427 774 377 731 q 511 863 477 816 l 141 863 l 141 973 l 369 973 l 369 1111 l 511 1111 l 511 973 l 675 973 l 675 866 "},"렵":{"x_min":102.78125,"x_max":1106.953125,"ha":1250,"o":"m 963 938 l 963 1072 l 1106 1072 l 1106 369 l 963 369 l 963 601 l 733 601 l 733 711 l 963 711 l 963 827 l 731 827 l 731 938 l 963 938 m 863 551 l 863 438 q 747 422 818 430 q 600 409 677 415 q 442 401 522 404 q 297 398 362 398 l 102 398 l 102 772 l 495 772 l 495 915 l 102 915 l 102 1029 l 644 1029 l 644 663 l 251 663 l 251 516 l 388 516 q 495 518 434 516 q 619 526 555 520 q 746 536 683 530 q 863 551 809 543 m 369 304 l 515 304 l 515 165 l 948 165 l 948 304 l 1094 304 l 1094 -211 l 369 -211 l 369 304 m 948 51 l 515 51 l 515 -97 l 948 -97 l 948 51 "},"K":{"x_min":129.171875,"x_max":887.5,"ha":926,"o":"m 887 -22 l 702 -22 l 369 448 l 269 337 l 269 -22 l 129 -22 l 129 995 l 269 995 l 269 529 l 676 995 l 854 995 l 461 551 l 887 -22 "},"Y":{"x_min":38.890625,"x_max":890.28125,"ha":926,"o":"m 890 995 l 537 415 l 537 -22 l 394 -22 l 394 415 l 38 995 l 204 995 l 468 544 l 731 995 l 890 995 "},"E":{"x_min":130.5625,"x_max":673.609375,"ha":772,"o":"m 673 -22 l 130 -22 l 130 995 l 673 995 l 673 880 l 270 880 l 270 563 l 641 563 l 641 445 l 270 445 l 270 93 l 673 93 l 673 -22 "},"⒁":{"x_min":18.0625,"x_max":1233.328125,"ha":1250,"o":"m 1041 218 l 959 218 l 959 31 l 872 31 l 872 218 l 583 218 l 583 293 l 879 804 l 959 804 l 959 293 l 1041 293 l 1041 218 m 872 293 l 872 647 l 666 293 l 872 293 m 429 31 l 341 31 l 341 609 l 218 609 l 218 675 q 259 682 237 677 q 300 700 280 687 q 335 738 319 713 q 362 804 351 762 l 429 804 l 429 31 m 1233 418 q 1186 113 1233 259 q 1052 -161 1140 -31 l 1006 -161 q 1054 -78 1025 -131 q 1112 50 1084 -25 q 1162 216 1141 123 q 1183 418 1183 309 q 1162 618 1183 525 q 1112 784 1141 711 q 1054 913 1084 859 q 1006 997 1025 966 l 1052 997 q 1186 720 1140 868 q 1233 418 1233 573 l 1233 418 m 244 -161 l 198 -161 q 63 113 109 -31 q 18 418 18 259 q 63 720 18 573 q 198 997 109 868 l 244 997 q 195 913 225 966 q 137 784 165 859 q 88 618 108 711 q 68 418 68 525 q 88 216 68 309 q 137 50 108 123 q 195 -78 165 -25 q 244 -161 225 -131 l 244 -161 "},"랗":{"x_min":87.5,"x_max":1252.78125,"ha":1250,"o":"m 1063 797 l 1252 797 l 1252 675 l 1063 675 l 1063 356 l 919 356 l 919 1070 l 1063 1070 l 1063 797 m 830 572 l 830 461 q 713 445 783 452 q 566 431 644 437 q 409 423 488 426 q 265 420 330 420 l 87 420 l 87 783 l 484 783 l 484 915 l 87 915 l 87 1029 l 633 1029 l 633 673 l 236 673 l 236 538 l 354 538 q 461 540 401 538 q 586 548 522 543 q 713 559 650 552 q 830 572 776 565 m 898 118 q 964 49 937 93 q 991 -40 991 5 q 967 -134 991 -91 q 902 -205 943 -176 q 804 -252 861 -236 q 684 -269 748 -269 q 563 -252 619 -269 q 466 -205 508 -236 q 402 -134 426 -176 q 379 -40 379 -91 q 404 49 379 5 q 469 118 430 93 l 265 118 l 265 229 l 612 229 l 612 376 l 758 376 l 758 229 l 1094 229 l 1094 118 l 898 118 m 684 104 q 571 67 618 104 q 525 -27 525 30 q 572 -124 525 -88 q 684 -159 620 -159 q 796 -125 747 -159 q 845 -27 845 -90 q 797 68 845 33 q 684 104 750 104 "},"⒝":{"x_min":37.5,"x_max":1212.5,"ha":1250,"o":"m 37 416 q 55 606 37 520 q 101 762 73 693 q 161 886 127 833 q 223 979 194 940 l 276 979 q 152 704 186 850 q 119 416 119 559 q 154 127 119 269 q 276 -145 188 -15 l 223 -145 q 161 -56 194 -109 q 101 66 129 -2 q 55 224 73 137 q 37 416 37 311 l 37 416 m 1212 416 q 1193 224 1212 311 q 1147 66 1175 137 q 1086 -56 1119 -2 q 1026 -145 1054 -109 l 973 -145 q 1096 127 1061 -15 q 1131 416 1131 269 q 1097 704 1131 559 q 973 979 1062 850 l 1026 979 q 1088 886 1055 940 q 1148 762 1120 833 q 1193 606 1175 693 q 1212 416 1212 520 l 1212 416 m 473 45 l 473 -19 l 373 -19 l 373 847 l 473 847 l 473 550 q 553 613 506 590 q 655 636 600 636 q 760 611 712 636 q 843 541 808 586 q 895 434 876 495 q 915 297 915 372 q 895 159 915 222 q 843 52 876 97 q 760 -17 808 6 q 655 -41 712 -41 q 553 -18 600 -41 q 473 45 506 4 l 473 45 m 640 537 q 517 470 561 537 q 473 297 473 402 q 517 125 473 191 q 640 58 561 58 q 762 125 718 58 q 806 297 806 191 q 762 470 806 402 q 640 537 718 537 l 640 537 "},"엡":{"x_min":15.28125,"x_max":1136.109375,"ha":1250,"o":"m 995 370 l 995 1069 l 1136 1069 l 1136 370 l 995 370 m 404 304 l 550 304 l 550 165 l 981 165 l 981 304 l 1127 304 l 1127 -211 l 404 -211 l 404 304 m 981 51 l 550 51 l 550 -97 l 981 -97 l 981 51 m 623 791 l 731 791 l 731 1054 l 866 1054 l 866 372 l 731 372 l 731 673 l 625 673 q 588 572 615 619 q 522 491 561 525 q 431 437 481 456 q 323 418 380 418 q 200 442 256 418 q 102 508 144 466 q 38 607 61 551 q 15 729 15 663 q 38 850 15 793 q 102 950 61 906 q 200 1016 144 991 q 323 1041 256 1041 q 429 1022 379 1041 q 519 969 479 1002 q 585 890 558 936 q 623 791 612 844 m 323 919 q 200 863 248 919 q 152 729 152 808 q 200 594 152 650 q 323 538 248 538 q 444 594 395 538 q 493 729 493 650 q 444 863 493 808 q 323 919 395 919 "},"궐":{"x_min":27.78125,"x_max":1130.5625,"ha":1250,"o":"m 965 390 l 681 390 l 681 502 l 965 502 l 965 1070 l 1108 1070 l 1108 326 l 965 326 l 965 390 m 361 80 l 947 80 l 947 151 l 361 151 l 361 262 l 1102 262 l 1102 -25 l 519 -25 l 519 -100 l 1130 -100 l 1130 -212 l 361 -212 l 361 80 m 540 668 q 551 723 547 695 q 559 780 555 751 q 566 852 563 818 q 569 913 569 886 l 130 913 l 130 1034 l 722 1034 q 718 923 722 981 q 706 806 715 865 q 697 738 702 770 q 687 676 693 705 q 804 684 750 680 q 898 694 858 688 l 898 581 q 723 565 834 573 q 495 552 612 556 l 495 333 l 347 333 l 347 548 l 316 548 l 27 547 l 27 661 l 263 661 q 397 662 326 661 q 540 668 469 663 "},"쟌":{"x_min":19.4375,"x_max":1255.5625,"ha":1250,"o":"m 336 198 l 481 198 l 481 -93 l 1081 -93 l 1081 -211 l 336 -211 l 336 198 m 1061 887 l 1252 887 l 1252 775 l 1061 775 l 1061 581 l 1255 581 l 1255 469 l 1061 469 l 1061 129 l 918 129 l 918 1072 l 1061 1072 l 1061 887 m 640 898 q 597 772 625 833 q 533 655 570 711 q 664 550 590 597 q 816 472 738 504 l 738 352 q 588 440 662 386 q 455 555 513 494 q 288 408 380 473 q 98 301 197 343 l 19 394 q 178 481 101 427 q 318 602 255 536 q 422 744 379 669 q 479 897 465 819 l 105 897 l 105 1013 l 640 1013 l 640 898 "},"잎":{"x_min":68.0625,"x_max":1116.671875,"ha":1250,"o":"m 959 140 l 958 -97 l 1116 -97 l 1116 -211 l 315 -211 l 315 -97 l 473 -97 l 469 140 l 330 140 l 330 256 l 1098 256 l 1098 140 l 959 140 m 827 140 l 604 140 l 606 -97 l 826 -97 l 827 140 m 395 1037 q 521 1012 462 1037 q 625 944 580 987 q 695 843 669 901 q 722 720 722 786 q 695 597 722 655 q 625 497 669 540 q 521 429 580 454 q 395 405 462 405 q 268 429 327 405 q 163 497 208 454 q 93 597 119 540 q 68 720 68 655 q 93 843 68 786 q 163 944 119 901 q 268 1012 208 987 q 395 1037 327 1037 m 395 912 q 266 856 319 912 q 213 720 213 800 q 266 585 213 640 q 395 530 319 530 q 523 585 470 530 q 576 720 576 640 q 523 856 576 800 q 395 912 470 912 m 963 305 l 963 1072 l 1106 1072 l 1106 305 l 963 305 "},"벎":{"x_min":97.21875,"x_max":1106.953125,"ha":1250,"o":"m 963 800 l 963 1072 l 1106 1072 l 1106 406 l 963 406 l 963 679 l 733 679 l 733 800 l 963 800 m 279 116 l 520 116 l 520 219 l 279 219 l 279 327 l 652 327 l 652 9 l 413 9 l 413 -101 l 479 -101 q 574 -98 516 -101 q 683 -88 631 -95 l 683 -198 q 546 -209 620 -205 q 411 -213 472 -213 l 279 -213 l 279 116 m 97 1029 l 241 1029 l 241 847 l 526 847 l 526 1029 l 670 1029 l 670 454 l 97 454 l 97 1029 m 241 731 l 241 569 l 526 569 l 526 731 l 241 731 m 740 -212 l 740 327 l 1101 327 l 1101 -212 l 740 -212 m 868 226 l 868 -108 l 972 -108 l 972 226 l 868 226 "},"홑":{"x_min":29.171875,"x_max":1219.453125,"ha":1250,"o":"m 237 275 l 1016 275 l 1016 170 l 391 170 l 391 83 l 1011 83 l 1011 -15 l 393 -15 l 393 -106 l 1043 -106 l 1043 -212 l 237 -212 l 237 275 m 627 866 q 504 831 555 866 q 452 744 452 795 q 504 656 452 691 q 627 622 555 622 q 752 657 698 622 q 805 744 805 693 q 752 831 805 795 q 627 866 698 866 m 550 979 l 550 1112 l 706 1112 l 706 979 l 1077 979 l 1077 866 l 870 866 q 934 812 908 848 q 959 737 959 776 q 888 600 959 658 q 702 526 816 541 l 702 463 l 1219 463 l 1219 359 l 29 359 l 29 463 l 552 463 l 552 527 q 369 600 441 543 q 297 736 297 656 q 322 811 297 773 q 383 866 347 848 l 175 866 l 175 979 l 550 979 "},"ⅰ":{"x_min":576.390625,"x_max":683.328125,"ha":1250,"o":"m 683 847 l 576 847 l 576 952 l 683 952 l 683 847 m 681 -86 l 580 -86 l 580 675 l 681 675 l 681 -86 "},"퍼":{"x_min":81.9375,"x_max":1108.328125,"ha":1250,"o":"m 656 884 l 652 281 q 767 288 711 284 q 870 295 823 291 l 870 179 q 737 168 815 172 q 576 159 659 163 q 413 154 493 156 q 277 152 334 152 l 81 152 l 81 270 l 230 270 l 226 884 l 113 884 l 113 1000 l 768 1000 l 768 884 l 656 884 m 525 884 l 359 884 l 365 270 q 400 271 381 270 q 440 273 419 272 q 479 274 459 273 q 520 276 500 275 l 525 884 m 963 669 l 963 1070 l 1108 1070 l 1108 -170 l 963 -170 l 963 547 l 745 547 l 745 669 l 963 669 "}}}
